<svg width="473" height="341" viewBox="0 0 473 341" fill="none" xmlns="http://www.w3.org/2000/svg">
<g clip-path="url(#clip0_7_29)">
<path opacity="0.1" d="M150.967 12.8631C163.712 1.58732 183.711 -0.724209 201.913 0.173513C259.092 2.99678 310.706 30.4445 355.35 61.4918C371.515 72.7286 387.427 84.8413 397.917 100.319C419.29 131.822 412.939 175.472 383.244 201.424C373.137 210.258 360.889 217.036 348.314 223.025C325.955 233.698 301.83 242.264 276.457 244.71C258.36 246.444 240.04 245.035 222.052 242.611C171.79 235.823 122.453 220.835 81.1029 195.218C62.9663 183.968 45.8679 169.99 38.3916 151.793C30.9154 133.596 35.7004 110.546 54.2208 99.7773C61.8802 95.3234 71.0401 93.3111 80.0037 91.4246C93.2026 88.6447 106.611 85.9038 118.523 80.2529C130.824 74.4156 145.388 63.1225 142.95 50.2031C140.341 36.3166 138.243 24.1388 150.967 12.8631Z" fill="#EF5B59"/>
<path opacity="0.1" d="M371.222 310.087C397.591 310.087 418.967 308.724 418.967 307.043C418.967 305.361 397.591 303.998 371.222 303.998C344.854 303.998 323.478 305.361 323.478 307.043C323.478 308.724 344.854 310.087 371.222 310.087Z" fill="#EF5B59"/>
<path opacity="0.1" d="M247.123 289.713C273.492 289.713 294.868 288.35 294.868 286.668C294.868 284.987 273.492 283.624 247.123 283.624C220.755 283.624 199.379 284.987 199.379 286.668C199.379 288.35 220.755 289.713 247.123 289.713Z" fill="#EF5B59"/>
<path opacity="0.1" d="M71.8383 338.008C98.207 338.008 119.583 336.645 119.583 334.963C119.583 333.282 98.207 331.919 71.8383 331.919C45.4696 331.919 24.0935 333.282 24.0935 334.963C24.0935 336.645 45.4696 338.008 71.8383 338.008Z" fill="#EF5B59"/>
<path opacity="0.1" d="M162.565 341C173.415 341 182.21 340.439 182.21 339.747C182.21 339.054 173.415 338.493 162.565 338.493C151.715 338.493 142.919 339.054 142.919 339.747C142.919 340.439 151.715 341 162.565 341Z" fill="#EF5B59"/>
<path opacity="0.1" d="M456.959 308.452C465.415 308.452 472.269 308.015 472.269 307.476C472.269 306.937 465.415 306.501 456.959 306.501C448.503 306.501 441.649 306.937 441.649 307.476C441.649 308.015 448.503 308.452 456.959 308.452Z" fill="#EF5B59"/>
<path opacity="0.1" d="M316.442 287.969C323.611 287.969 329.423 287.599 329.423 287.141C329.423 286.684 323.611 286.313 316.442 286.313C309.273 286.313 303.461 286.684 303.461 287.141C303.461 287.599 309.273 287.969 316.442 287.969Z" fill="#EF5B59"/>
<path d="M459.162 284.058C459.162 284.058 461.212 286.725 458.22 290.749C455.227 294.774 452.75 298.17 453.749 300.676C453.749 300.676 458.272 293.204 461.949 293.1C465.626 292.996 463.214 288.555 459.162 284.058Z" fill="#EF5B59"/>
<path opacity="0.1" d="M459.162 284.058C459.346 284.315 459.493 284.597 459.598 284.895C463.188 289.088 465.098 293 461.648 293.1C458.433 293.191 454.578 298.907 453.653 300.351C453.683 300.462 453.719 300.57 453.762 300.676C453.762 300.676 458.285 293.204 461.962 293.1C465.639 292.996 463.214 288.555 459.162 284.058Z" fill="black"/>
<path d="M462.978 287.453C462.978 288.394 462.874 289.153 462.743 289.153C462.612 289.153 462.507 288.394 462.507 287.453C462.507 286.512 462.638 286.959 462.769 286.959C462.9 286.959 462.978 286.516 462.978 287.453Z" fill="#FFD037"/>
<path d="M464.287 288.577C463.458 289.01 462.738 289.296 462.673 289.184C462.608 289.071 463.231 288.611 464.06 288.16C464.889 287.709 464.562 288.039 464.623 288.16C464.684 288.282 465.116 288.126 464.287 288.577Z" fill="#FFD037"/>
<path d="M448.34 284.058C448.34 284.058 446.29 286.725 449.286 290.749C452.283 294.774 454.752 298.17 453.753 300.676C453.753 300.676 449.234 293.204 445.553 293.1C441.871 292.996 444.292 288.555 448.34 284.058Z" fill="#EF5B59"/>
<path opacity="0.1" d="M448.34 284.058C448.155 284.314 448.008 284.596 447.904 284.895C444.314 289.088 442.399 293 445.849 293.1C449.064 293.191 452.924 298.907 453.845 300.351C453.815 300.462 453.778 300.57 453.736 300.676C453.736 300.676 449.217 293.204 445.535 293.1C441.854 292.996 444.292 288.555 448.34 284.058Z" fill="black"/>
<path d="M444.528 287.453C444.528 288.394 444.632 289.153 444.763 289.153C444.894 289.153 445.003 288.394 445.003 287.453C445.003 286.512 444.868 286.959 444.737 286.959C444.606 286.959 444.528 286.516 444.528 287.453Z" fill="#FFD037"/>
<path d="M443.219 288.577C444.048 289.01 444.772 289.296 444.833 289.184C444.894 289.071 444.275 288.611 443.446 288.16C442.617 287.709 442.944 288.039 442.883 288.16C442.822 288.282 442.39 288.126 443.219 288.577Z" fill="#FFD037"/>
<path d="M445.204 300.329C445.204 300.329 450.935 300.156 452.662 298.933C454.39 297.71 461.478 296.248 461.91 298.208C462.341 300.169 470.52 307.962 464.051 308.014C457.583 308.066 449.016 307.012 447.289 305.971C445.561 304.931 445.204 300.329 445.204 300.329Z" fill="#A8A8A8"/>
<path opacity="0.2" d="M464.143 307.333C457.674 307.385 449.108 306.332 447.385 305.286C446.076 304.493 445.548 301.639 445.374 300.321H445.182C445.182 300.321 445.544 304.918 447.267 305.959C448.99 306.999 457.557 308.053 464.03 308.001C465.896 308.001 466.542 307.329 466.507 306.349C466.245 306.952 465.534 307.32 464.143 307.333Z" fill="black"/>
<path d="M318.745 267.118C318.745 267.118 320.49 269.395 317.934 272.838C315.378 276.282 313.258 279.187 314.113 281.334C314.113 281.334 317.977 274.942 321.127 274.829C324.276 274.716 322.2 270.96 318.745 267.118Z" fill="#EF5B59"/>
<path opacity="0.1" d="M318.745 267.118C318.897 267.339 319.018 267.58 319.103 267.834C322.156 271.42 323.809 274.772 320.847 274.85C318.099 274.929 314.798 279.82 314.008 281.056C314.034 281.151 314.066 281.244 314.104 281.334C314.104 281.334 317.969 274.942 321.118 274.829C324.267 274.716 322.2 270.96 318.745 267.118Z" fill="black"/>
<path d="M322.004 270.024C322.004 270.826 321.913 271.476 321.803 271.476C321.694 271.476 321.598 270.826 321.598 270.024C321.598 269.221 321.711 269.59 321.825 269.59C321.939 269.59 322.004 269.221 322.004 270.024Z" fill="#FFD037"/>
<path d="M323.125 270.982C322.414 271.364 321.816 271.598 321.742 271.498C321.668 271.398 322.222 271.012 322.928 270.631C323.635 270.249 323.364 270.527 323.412 270.631C323.46 270.735 323.831 270.596 323.125 270.982Z" fill="#FFD037"/>
<path d="M309.481 267.118C309.481 267.118 307.736 269.395 310.287 272.838C312.839 276.282 314.968 279.187 314.113 281.334C314.113 281.334 310.244 274.942 307.095 274.829C303.945 274.716 306.017 270.96 309.481 267.118Z" fill="#EF5B59"/>
<path opacity="0.1" d="M309.481 267.118C309.326 267.338 309.204 267.579 309.119 267.834C306.065 271.42 304.412 274.772 307.374 274.85C310.126 274.929 313.424 279.82 314.213 281.056C314.187 281.148 314.156 281.243 314.122 281.334C314.122 281.334 310.253 274.942 307.103 274.829C303.954 274.716 306.017 270.96 309.481 267.118Z" fill="black"/>
<path d="M306.218 270.024C306.218 270.826 306.31 271.476 306.423 271.476C306.537 271.476 306.624 270.826 306.624 270.024C306.624 269.221 306.511 269.59 306.397 269.59C306.283 269.59 306.218 269.221 306.218 270.024Z" fill="#FFD037"/>
<path d="M305.101 270.982C305.808 271.364 306.41 271.598 306.48 271.498C306.549 271.398 306.004 271.012 305.293 270.631C304.582 270.249 304.857 270.527 304.809 270.631C304.761 270.735 304.39 270.596 305.101 270.982Z" fill="#FFD037"/>
<path d="M306.776 281.039C306.776 281.039 311.679 280.887 313.158 279.842C314.636 278.797 320.704 277.544 321.07 279.222C321.436 280.9 328.437 287.57 322.902 287.614C317.367 287.657 310.039 286.746 308.565 285.879C307.09 285.012 306.776 281.039 306.776 281.039Z" fill="#A8A8A8"/>
<path opacity="0.2" d="M323.002 287.028C317.463 287.076 310.135 286.161 308.661 285.294C307.54 284.613 307.09 282.171 306.942 281.043H306.776C306.776 281.043 307.086 284.973 308.565 285.866C310.043 286.759 317.367 287.661 322.902 287.601C324.498 287.601 325.052 287.024 325.022 286.187C324.817 286.725 324.189 287.02 323.002 287.028Z" fill="black"/>
<g opacity="0.8">
<path opacity="0.8" d="M64.7329 269.651C71.1832 269.653 77.4879 271.557 82.8499 275.122C88.212 278.687 92.3907 283.752 94.8577 289.678C97.3248 295.603 97.9693 302.123 96.71 308.413C95.4507 314.703 92.3439 320.48 87.7826 325.015C83.2213 329.549 77.4101 332.638 71.0838 333.889C64.7574 335.14 58.2 334.498 52.2405 332.045C46.2809 329.591 41.1869 325.436 37.6023 320.104C34.0177 314.772 32.1036 308.503 32.1019 302.09C32.099 297.829 32.9411 293.609 34.58 289.672C36.2189 285.734 38.6224 282.157 41.6531 279.144C44.6838 276.131 48.2822 273.742 52.2425 272.113C56.2027 270.484 60.4471 269.647 64.7329 269.651Z" fill="#E74D89"/>
<path opacity="0.8" d="M64.7329 336.819C57.8241 336.812 51.0726 334.768 45.3318 330.946C39.5909 327.125 35.1183 321.697 32.4792 315.348C29.8401 309 29.153 302.017 30.5046 295.28C31.8563 288.544 35.186 282.357 40.0731 277.501C44.9602 272.646 51.1852 269.34 57.9615 268.001C64.7378 266.662 71.7612 267.351 78.1441 269.979C84.527 272.608 89.9829 277.059 93.8223 282.77C97.6618 288.481 99.7123 295.195 99.7149 302.064C99.7068 311.284 96.0178 320.123 89.4584 326.64C82.899 333.157 74.0058 336.818 64.7329 336.819ZM94.2233 306.822C88.1841 305.071 81.8376 304.627 75.6113 305.521C78.1616 312.395 80.107 319.476 81.4257 326.684C84.8177 324.426 87.7049 321.497 89.9069 318.079C92.1089 314.662 93.5783 310.829 94.2233 306.822ZM76.4052 329.425C75.001 321.744 72.8688 314.212 70.0369 306.93C69.9766 306.959 69.9116 306.976 69.845 306.982C52.9821 312.824 46.9409 324.429 46.3957 325.513C51.6308 329.569 58.0789 331.768 64.7154 331.763C68.7265 331.79 72.7002 330.995 76.3877 329.425H76.4052ZM42.5441 321.953C43.2246 320.812 51.4249 307.338 66.8396 302.363C67.2191 302.229 67.6291 302.12 68.013 302.012C67.2758 300.325 66.4558 298.642 65.5791 296.986C50.6616 301.414 36.1758 301.223 34.8629 301.197C34.8629 301.496 34.8368 301.795 34.8368 302.09C34.8455 309.431 37.5916 316.508 42.5441 321.953ZM35.491 296.032C44.8124 295.991 54.0912 294.777 63.1059 292.419C59.7267 286.51 56.0313 280.786 52.0355 275.271C47.8537 277.228 44.184 280.12 41.3138 283.722C38.4435 287.323 36.4506 291.537 35.491 296.032ZM57.7365 273.263C61.8342 278.795 65.5601 284.59 68.8897 290.611C79.5195 286.647 83.9992 280.666 84.5488 279.907C79.0882 275.085 72.0361 272.426 64.7329 272.435C62.376 272.452 60.0288 272.736 57.7365 273.281V273.263ZM87.855 283.342C87.2269 284.188 82.2239 290.572 71.1841 295.051C71.8645 296.465 72.5493 297.905 73.1774 299.345C73.3955 299.861 73.6136 300.377 73.8361 300.867C83.7811 299.614 93.6476 301.626 94.6334 301.817C94.5597 295.069 92.1681 288.549 87.855 283.338V283.342Z" fill="#B2215A"/>
</g>
<path d="M145.623 203.093C144.834 202.109 143.935 195.339 143.935 195.339L140.446 178.087L138.64 168.147C138.64 168.147 138.204 155.592 130.3 149.364L129.685 148.883C129.685 148.77 129.685 148.662 129.685 148.549C129.613 147.337 129.347 146.143 128.896 145.015C128.705 144.649 128.607 144.242 128.612 143.831C128.633 143.668 128.686 143.512 128.769 143.371C129.139 142.866 129.627 142.458 130.191 142.183C131.626 141.315 132.848 139.949 133.179 138.332C133.177 138.295 133.177 138.259 133.179 138.223C133.179 138.154 133.179 138.08 133.21 138.006C133.24 137.933 133.21 137.928 133.21 137.885C133.214 137.81 133.214 137.734 133.21 137.659V137.564C133.21 137.477 133.21 137.386 133.21 137.295C133.207 137.276 133.207 137.257 133.21 137.239C133.21 137.139 133.188 137.035 133.17 136.935V136.913C133.091 136.327 132.865 135.769 132.511 135.293C132.157 134.817 131.687 134.437 131.146 134.19C131.343 134.143 131.526 134.052 131.681 133.923C131.836 133.795 131.959 133.632 132.041 133.448C132.094 133.342 132.137 133.23 132.167 133.114C132.197 133.007 132.216 132.896 132.224 132.785C132.224 132.785 132.224 132.75 132.224 132.733C132.23 132.637 132.23 132.542 132.224 132.446C132.224 132.416 132.224 132.386 132.224 132.355C132.211 132.26 132.19 132.166 132.163 132.074C132.165 132.049 132.165 132.024 132.163 132L132.137 131.939C131.844 131.106 131.151 130.465 130.553 129.797C127.107 125.959 126.44 120.559 125.502 115.555C124.983 112.779 124.002 109.617 121.297 108.564C120.533 108.323 119.755 108.126 118.968 107.974C116.569 107.341 114.606 105.675 112.26 104.86C110.675 104.319 108.98 104.177 107.326 104.448C106.066 104.656 105.01 105.272 103.793 105.563C101.176 106.2 98.0007 105.489 95.9419 107.592C94.4981 109.054 94.3847 111.283 93.6738 113.187C92.3303 116.721 88.8408 119.293 87.9379 122.966C87.3578 125.334 87.9597 127.737 88.5922 130.118C89.0685 131.717 89.3898 133.358 89.5518 135.018C89.5758 135.437 89.5758 135.857 89.5518 136.276C89.4586 137.499 89.1807 138.7 88.7274 139.841C85.7788 140.925 82.7299 142.204 82.5031 142.924C82.0669 144.342 74.9483 148.384 74.9483 148.384C74.9483 148.384 72.244 150.678 72.244 151.55C72.244 152.422 71.3455 155.154 70.7784 155.154C70.2114 155.154 69.0904 166.183 69.0904 166.183V177.649C69.0904 177.649 64.9248 191.189 63.9652 203.202C63.9652 203.202 62.2815 210.874 65.0295 215.275C65.389 215.873 65.8476 216.405 66.386 216.85L67.7906 220.497C68.2847 219.677 68.9126 218.944 69.6487 218.329C69.7185 218.784 69.797 219.317 69.893 219.911C70.0107 220.657 70.1503 221.503 70.3292 222.41C69.4568 223.767 67.35 226.608 64.8201 227.67C62.4822 228.65 65.5268 231.244 67.6292 232.757C67.0708 235.52 66.2639 238.911 65.6096 239.353C64.4799 240.117 60.877 249.727 60.877 249.727C60.877 249.727 53.7803 266.207 63.9783 268.072C74.1763 269.937 79.3756 265.561 79.3756 265.561H81.8183C81.8183 265.561 84.7887 263.896 84.8716 260.452C86.5334 259.09 89.0851 256.931 89.6042 256.059C90.1232 255.187 88.6925 252.351 87.7853 250.803L88.0252 250.369C88.0252 250.369 97.7216 238.031 98.9603 239.34C100.199 240.65 100.989 242.723 100.426 244.037L100.958 251.596V263.388C100.958 263.388 99.5666 268.74 100.958 269.286C102.349 269.833 100.958 271.888 100.958 271.888C100.958 271.888 101.477 274.291 101.573 275.054C101.623 276.037 101.623 277.021 101.573 278.003L101.106 289.799L100.203 307.268C100.203 307.268 99.1915 308.691 99.981 309.671C100.77 310.651 100.417 312.949 100.203 313.383C99.9897 313.817 99.8676 317.425 99.8676 317.425C99.8676 317.425 96.5962 320.808 99.1915 321.684L99.2918 321.714C98.2188 322.703 98.2057 324.928 98.2886 325.617C98.3715 326.307 97.5994 329.087 97.0193 330.661C96.9033 331.061 96.7237 331.44 96.4872 331.784C96.0902 332.062 96.4872 335.119 96.4872 335.119C96.4872 335.119 109.163 336.156 110.236 335.119C110.672 334.716 110.563 333.736 110.258 332.604C109.771 330.961 109.122 329.371 108.321 327.855C107.584 326.493 107.928 324.745 107.928 324.745V323.444C108.779 323.579 109.333 323.657 109.333 323.657C109.333 323.657 110.912 322.356 110.236 321.146C109.56 319.936 111.474 313.179 111.474 313.179C111.474 313.179 113.616 305.533 113.616 304.77C113.616 304.007 116.434 294.071 116.434 294.071C116.434 294.071 120.604 276.49 118.576 268.189C118.576 268.189 120.377 266.116 120.15 265.587C119.923 265.058 119.4 262.746 120.172 261.766C120.944 260.786 124.211 248.552 125.114 246.479C125.528 245.52 126.566 242.875 127.561 240.295C132.049 239.627 137.397 238.395 137.397 238.395C137.397 238.395 136.599 235.017 136.006 231.565L136.494 229.192L136.669 228.373C137.072 228.766 137.43 229.202 137.737 229.674L138.636 225.307C138.636 225.307 138.736 225.155 138.906 224.873C139.957 223.238 143.787 217.361 145.623 215.579C147.765 213.467 146.417 204.073 145.623 203.093Z" fill="url(#paint0_linear_7_29)"/>
<path d="M118.279 130.031H105.848V143.909H118.279V130.031Z" fill="#925978"/>
<path opacity="0.1" d="M118.279 130.031H105.848V143.909H118.279V130.031Z" fill="black"/>
<path d="M87.6325 249.619C87.6325 249.619 90.7949 254.606 90.0316 255.907C89.2682 257.208 84.0427 261.437 84.0427 261.437L82.4987 251.028L87.6325 249.619Z" fill="#FF6484"/>
<path d="M77.8184 265.665L80.1258 265.34H82.4899C82.4899 265.34 85.6305 263.544 85.4516 259.81C85.2728 256.076 85.4516 252.438 85.4516 252.438L77.8184 265.665Z" fill="#575988"/>
<path opacity="0.1" d="M77.8184 265.665L80.1258 265.34H82.4899C82.4899 265.34 85.6305 263.544 85.4516 259.81C85.2728 256.076 85.4516 252.438 85.4516 252.438L77.8184 265.665Z" fill="black"/>
<path d="M82.49 214.816L69.4044 229.127C69.4044 229.127 67.8778 238.56 66.7873 239.319C65.6968 240.078 62.2335 249.619 62.2335 249.619C62.2335 249.619 55.3723 265.99 65.2345 267.834C75.0966 269.677 80.1171 265.34 80.1171 265.34L88.4919 250.269C88.4919 250.269 97.8742 238.018 99.0737 239.319C100.273 240.62 101.037 242.68 100.491 243.981L101.002 251.462V263.171C101.002 263.171 99.6582 268.484 101.002 269.026C102.345 269.568 101.002 271.628 101.002 271.628C101.002 271.628 101.508 274.014 101.599 274.772C101.691 275.531 101.599 277.7 101.599 277.7L101.163 289.409L100.291 306.757C100.291 306.757 99.3092 308.166 100.073 309.142C100.836 310.118 100.509 312.394 100.291 312.828C100.073 313.262 99.9635 316.84 99.9635 316.84C99.9635 316.84 96.8012 320.201 99.3092 321.068C101.817 321.935 109.123 323.02 109.123 323.02C109.123 323.02 110.65 321.719 109.996 320.526C109.341 319.333 111.195 312.611 111.195 312.611C111.195 312.611 113.267 305.022 113.267 304.263C113.267 303.504 115.993 293.638 115.993 293.638C115.993 293.638 120.028 276.182 118.065 267.942C118.065 267.942 119.81 265.882 119.592 265.34C119.374 264.798 118.863 262.521 119.592 261.545C120.32 260.569 123.517 248.426 124.39 246.366C125.262 244.306 128.97 234.332 128.97 234.332V215.9L82.49 214.816Z" fill="#575988"/>
<path d="M121.555 149.438L114.026 163.581L112.041 167.302L111.74 167.87L92.3302 168.629C92.3302 168.629 91.7762 167.41 90.9911 165.519C89.6346 162.245 87.5845 156.945 86.5507 152.474C86.2949 151.404 86.1056 150.319 85.9837 149.226C85.6958 146.52 86.132 144.59 87.8768 144.425C88.3176 144.385 88.762 144.431 89.1853 144.559C90.3983 144.916 91.6686 145.038 92.9278 144.919C97.5339 144.364 98.8817 139.529 99.1085 134.984C99.1085 134.663 99.139 134.342 99.1434 134.025C99.1434 133.041 99.1434 132.087 99.078 131.211C98.9906 129.725 98.8188 128.245 98.5633 126.778C99.7161 126.217 100.923 125.774 102.166 125.456C105.848 124.519 111.034 124.545 111.104 132.091C111.096 133.763 111.263 135.432 111.601 137.07C111.797 138.003 112.112 138.908 112.539 139.763C113.817 142.204 115.592 142.469 116.425 142.439C116.579 142.439 116.733 142.423 116.883 142.391L121.555 149.438Z" fill="#FFC5CB"/>
<path opacity="0.1" d="M102.179 157.626C102.448 158.395 102.585 159.202 102.585 160.016C102.667 160.872 102.647 161.736 102.524 162.588C102.4 163.449 101.97 164.238 101.311 164.812" fill="black"/>
<path opacity="0.1" d="M107.671 138.171C114.115 138.171 119.339 132.977 119.339 126.57C119.339 120.163 114.115 114.969 107.671 114.969C101.227 114.969 96.0029 120.163 96.0029 126.57C96.0029 132.977 101.227 138.171 107.671 138.171Z" fill="black"/>
<path d="M119.334 126.137C119.335 128.468 118.63 130.745 117.309 132.672C115.989 134.599 114.115 136.085 111.932 136.936C109.749 137.788 107.359 137.966 105.073 137.447C102.787 136.927 100.711 135.735 99.1173 134.025C99.0155 133.922 98.9194 133.813 98.8294 133.7C97.6014 132.282 96.7365 130.591 96.3086 128.769C95.8806 126.947 95.9024 125.049 96.3719 123.238C96.8415 121.426 97.7449 119.754 99.0051 118.365C100.265 116.976 101.845 115.91 103.609 115.259C105.373 114.608 107.269 114.391 109.136 114.627C111.003 114.863 112.784 115.544 114.329 116.613C115.873 117.681 117.135 119.106 118.006 120.764C118.876 122.422 119.331 124.266 119.33 126.137H119.334Z" fill="#FFC5CB"/>
<path opacity="0.1" d="M88.941 155.076C88.941 155.076 93.0848 165.81 101.808 164.075C101.808 164.075 110.615 164.76 115.657 158.329C120.7 151.897 121.001 195.192 121.001 195.192L119.038 223.923C119.038 223.923 104.98 232.271 98.873 231.187C92.7664 230.103 89.8221 226.85 89.8221 226.85C89.8221 226.85 83.3884 220.887 81.6437 220.128C79.8989 219.369 82.407 182.398 82.407 182.398L84.4789 168.52L88.941 155.076Z" fill="black"/>
<path d="M88.941 154.209C88.941 154.209 93.0848 164.942 101.808 163.208C101.808 163.208 110.615 163.893 115.657 157.461C120.7 151.03 121.001 194.324 121.001 194.324L119.038 223.056C119.038 223.056 104.98 231.404 98.873 230.32C92.7664 229.236 89.8221 225.983 89.8221 225.983C89.8221 225.983 83.3884 220.02 81.6437 219.261C79.8989 218.502 82.407 181.531 82.407 181.531L84.4789 167.653L88.941 154.209Z" fill="#E8F4FF"/>
<path opacity="0.1" d="M88.5049 214.816C88.5049 214.816 97.8828 225.224 97.3376 226.308C96.7924 227.393 88.2868 217.96 88.5049 214.816Z" fill="black"/>
<path opacity="0.1" d="M86.891 188.934C86.891 188.934 89.8876 193.097 91.7632 192.663L86.891 188.934Z" fill="black"/>
<path opacity="0.1" d="M93.3683 144.559C93.3683 144.559 93.3683 144.685 93.3378 144.919C93.2375 146.251 92.8624 151.078 92.3564 156.455C92.0729 159.491 91.7501 162.674 91.4186 165.519C90.8777 170.147 90.302 173.85 89.8134 174.375C88.3958 175.893 88.9411 190.204 88.9411 190.204V208.311C88.9411 208.311 87.7459 214.057 86.7601 215.358C85.7744 216.659 83.3666 221.538 81.4387 222.188C80.7604 222.558 80.151 223.041 79.6372 223.615C77.8925 225.35 75.4237 228.243 73.5306 230.524C71.9691 232.428 70.8132 233.898 70.8132 233.898C70.8132 233.898 63.18 229.127 66.4514 227.718C68.8984 226.664 70.9223 223.845 71.7815 222.514C72.0738 222.08 72.2177 221.772 72.2177 221.772C72.3722 220.761 72.604 219.764 72.9113 218.788C73.1882 217.869 73.595 216.992 74.1195 216.186C74.5187 215.515 75.1674 215.028 75.9253 214.829C78.7605 214.287 80.1781 187.507 80.1781 187.507L71.4544 168.581L70.582 166.69C70.582 166.69 71.6725 155.74 72.2177 155.74C72.763 155.74 73.6353 153.029 73.6353 152.162C73.6353 151.294 76.2524 149.018 76.2524 149.018C76.2524 149.018 83.1703 144.993 83.6065 143.584C83.8377 142.842 87.0088 141.502 89.9617 140.4C92.6137 139.411 95.0869 138.614 95.0869 138.614C96.5307 140.799 93.3683 144.559 93.3683 144.559Z" fill="black"/>
<path d="M92.9322 144.559C92.9322 144.559 92.9322 144.685 92.9016 144.919C92.8013 146.251 92.4262 151.078 91.9202 156.455C91.6367 159.491 91.3139 162.674 90.9824 165.519C90.4416 170.147 89.8658 173.85 89.3773 174.375C87.9597 175.893 88.5049 190.204 88.5049 190.204V208.311C88.5049 208.311 87.3098 214.057 86.324 215.358C85.3382 216.659 82.9305 221.538 81.0025 222.188C80.3242 222.558 79.7149 223.041 79.2011 223.615C77.4563 225.35 74.9875 228.243 73.0945 230.524C71.5329 232.428 70.3771 233.898 70.3771 233.898C70.3771 233.898 62.7438 229.127 66.0152 227.718C68.4622 226.664 70.4861 223.845 71.3454 222.514C71.6376 222.08 71.7816 221.772 71.7816 221.772C71.936 220.761 72.1679 219.764 72.4751 218.788C72.7521 217.869 73.1589 216.992 73.6833 216.186C74.0825 215.515 74.7312 215.028 75.4891 214.829C78.3243 214.287 79.7419 187.507 79.7419 187.507L71.0183 168.581L70.1459 166.69C70.1459 166.69 71.2363 155.74 71.7816 155.74C72.3268 155.74 73.1992 153.029 73.1992 152.162C73.1992 151.294 75.8163 149.018 75.8163 149.018C75.8163 149.018 82.7342 144.993 83.1704 143.584C83.4015 142.842 86.5726 141.502 89.5256 140.4C92.1776 139.411 94.6507 138.614 94.6507 138.614C96.0945 140.799 92.9322 144.559 92.9322 144.559Z" fill="#FF6484"/>
<path opacity="0.1" d="M136.306 169.47L126.889 180.446C126.889 180.446 135.068 222.622 134.086 224.574C134.011 224.736 133.963 224.908 133.942 225.085C133.842 226.096 133.861 227.115 133.999 228.121C134.112 229.184 134.287 230.363 134.483 231.539C135.059 234.965 135.831 238.321 135.831 238.321C135.831 238.321 124.817 240.923 121.437 240.598C118.056 240.273 120.019 234.852 120.565 232.358C121.11 229.865 116.857 226.373 116.857 226.373L110.859 201.892C110.859 201.892 110.423 196.471 109.115 193.869C107.806 191.267 109.006 188.448 108.569 184.762C108.26 182.134 110.162 172.74 111.597 167.28C112.142 165.203 112.622 163.698 112.905 163.346C112.917 163.327 112.932 163.31 112.949 163.294C113.821 162.535 112.949 158.09 112.949 158.09C112.949 158.09 115.021 146.381 114.803 145.405C114.68 144.85 115.365 143.488 115.98 142.417C116.447 141.606 116.874 140.96 116.874 140.96C116.874 140.96 121.092 143.618 128.324 149.43L128.979 149.959C136.612 156.139 137.048 168.607 137.048 168.607L136.306 169.47Z" fill="black"/>
<path d="M136.743 169.47L127.325 180.446C127.325 180.446 135.504 222.622 134.522 224.574C134.448 224.736 134.399 224.908 134.378 225.085C134.278 226.096 134.297 227.115 134.435 228.121C134.549 229.184 134.723 230.363 134.919 231.539C135.495 234.965 136.267 238.321 136.267 238.321C136.267 238.321 125.253 240.923 121.873 240.598C118.493 240.273 120.455 234.852 121.001 232.358C121.546 229.865 117.293 226.373 117.293 226.373L111.296 201.892C111.296 201.892 110.859 196.471 109.551 193.869C108.242 191.267 109.442 188.448 109.006 184.762C108.696 182.134 110.598 172.74 112.033 167.28C112.578 165.203 113.058 163.698 113.341 163.346C113.354 163.327 113.368 163.31 113.385 163.294C114.257 162.535 113.385 158.09 113.385 158.09C113.385 158.09 115.457 146.381 115.239 145.405C115.117 144.85 115.801 143.488 116.416 142.417C116.883 141.606 117.311 140.96 117.311 140.96C117.311 140.96 121.528 143.618 128.76 149.43L129.415 149.959C137.048 156.139 137.484 168.607 137.484 168.607L136.743 169.47Z" fill="#FF6484"/>
<path opacity="0.1" d="M116.857 175.351C116.748 176.218 119.474 222.297 122.309 225.007L116.857 175.351Z" fill="black"/>
<path d="M80.0909 239.427C77.0376 241.335 74.7084 236.313 73.1119 230.524C72.3661 227.805 71.8034 224.916 71.3672 222.496C71.2058 221.594 71.0706 220.762 70.9572 220.016C70.6562 218.081 70.521 216.815 70.521 216.815L73.7313 216.173L77.2819 215.466L77.7181 219.452L77.9231 221.26C77.9231 221.26 78.4814 222.18 79.2316 223.615C81.3384 227.813 84.9151 236.439 80.0909 239.427Z" fill="#FFC5CB"/>
<path d="M136.158 225.463L135.395 229.205L134.919 231.56L134.893 231.677C134.893 231.677 125.362 244.523 122.309 239.21C119.976 235.151 125.668 228.494 128.477 225.584C129.349 224.682 129.942 224.14 129.942 224.14L134.378 225.085L136.158 225.463Z" fill="#FFC5CB"/>
<path d="M109.987 334.404C108.949 335.431 96.6834 334.404 96.6834 334.404C96.6834 334.404 96.2996 331.368 96.6834 331.095C96.9148 330.752 97.0886 330.374 97.1981 329.976C97.7608 328.393 98.5067 325.639 98.4282 324.971C98.3191 324.052 98.3758 320.365 100.88 320.634C100.88 320.634 104.151 314.021 107.754 322.152V324.104C107.574 325.148 107.706 326.221 108.133 327.191C108.91 328.699 109.538 330.278 110.009 331.906C110.305 333.029 110.393 333.996 109.987 334.404Z" fill="#FF6484"/>
<path d="M109.987 334.404C108.949 335.432 96.6834 334.404 96.6834 334.404C96.6834 334.404 96.2996 331.368 96.6834 331.095C96.9148 330.752 97.0886 330.374 97.1981 329.976C98.8207 329.286 101.028 328.618 102.572 329.2C104.522 329.937 108.12 331.229 109.987 331.906C110.305 333.029 110.393 333.996 109.987 334.404Z" fill="#E8F4FF"/>
<path opacity="0.1" d="M99.0824 134.984C99.3921 136.224 99.8195 137.477 99.837 138.744C99.8631 140.478 99.1085 142.152 98.306 143.714C97.39 145.5 96.3562 147.417 96.6615 149.399C96.8267 150.15 97.0439 150.889 97.3115 151.611C97.9888 153.937 97.7679 156.43 96.6921 158.602C95.9767 160.037 94.5111 161.425 92.9452 160.961C92.8275 159.43 92.6355 157.761 91.9071 156.455C91.6191 155.925 91.2223 155.461 90.7425 155.093C89.6084 154.226 88.0425 154.044 87.0131 153.064C86.8281 152.888 86.6655 152.69 86.529 152.474C86.0274 151.633 85.8132 150.653 85.9183 149.681C85.9183 149.534 85.9488 149.386 85.975 149.247C86.1852 148.192 86.5404 147.171 87.0306 146.212C87.301 145.631 87.5845 145.049 87.868 144.477C88.5239 143.181 89.0753 141.835 89.5168 140.452C92.1688 139.464 94.642 138.666 94.642 138.666C96.0945 140.834 92.9321 144.611 92.9321 144.611C92.9321 144.611 92.9321 144.737 92.9016 144.971C97.5077 144.364 98.873 139.529 99.0824 134.984Z" fill="black"/>
<path opacity="0.1" d="M105.617 118.669C104.343 119.072 103.126 119.878 102.563 121.093C101.961 122.437 102.271 123.99 102.127 125.456C102.094 125.777 102.033 126.095 101.944 126.405C101.403 128.205 99.7062 129.476 99.0389 131.211C98.9909 131.341 98.9473 131.471 98.908 131.61C98.7319 132.293 98.7007 133.004 98.8164 133.7C97.2572 131.895 96.2942 129.657 96.0582 127.29C95.8222 124.922 96.3246 122.54 97.4971 120.466C98.6697 118.392 100.456 116.727 102.613 115.697C104.77 114.667 107.193 114.321 109.554 114.708C111.915 115.094 114.1 116.194 115.811 117.857C117.522 119.52 118.677 121.666 119.119 124.004C119.561 126.343 119.269 128.759 118.282 130.927C117.295 133.094 115.662 134.907 113.603 136.12C114.096 134.658 114.615 133.201 115.016 131.709C115.958 128.201 116.12 124.146 113.9 121.262C112.936 120.059 111.632 119.169 110.157 118.707C108.681 118.245 107.1 118.232 105.617 118.669Z" fill="black"/>
<path opacity="0.1" d="M128.403 153.784C128.019 155.167 127.042 156.685 125.602 156.62C124.918 156.59 124.294 156.186 123.609 156.121C122.636 156.035 121.716 156.659 121.132 157.422C120.601 158.242 120.14 159.103 119.753 159.998C118.68 162.071 116.578 163.936 114.257 163.611L114.017 163.568C113.78 163.52 113.547 163.449 113.324 163.355C111.243 162.488 110.118 159.825 110.192 157.47C110.279 154.786 111.409 152.244 111.78 149.581C112.124 147.127 111.81 144.624 112.076 142.161C112.167 141.348 112.313 140.543 112.513 139.75C113.791 142.191 115.566 142.456 116.399 142.426C116.866 141.615 117.293 140.968 117.293 140.968C117.293 140.968 121.511 143.627 128.743 149.438C128.907 150.895 128.792 152.37 128.403 153.784Z" fill="black"/>
<path d="M111.959 105.779C114.222 106.59 116.129 108.243 118.449 108.872C119.212 109.021 119.965 109.215 120.704 109.453C123.321 110.498 124.272 113.638 124.774 116.392C125.677 121.362 126.326 126.722 129.659 130.534C130.252 131.211 130.941 131.861 131.216 132.702C131.491 133.544 131.12 134.706 130.235 134.893C131.753 135.53 132.499 137.395 132.18 139.004C131.862 140.613 130.68 141.94 129.288 142.825C128.638 143.258 127.853 143.692 127.766 144.455C127.761 144.865 127.855 145.269 128.041 145.635C128.94 147.954 129.07 150.497 128.411 152.895C128.028 154.274 127.051 155.796 125.611 155.731C124.926 155.701 124.303 155.297 123.622 155.232C122.645 155.146 121.729 155.77 121.14 156.533C120.609 157.352 120.148 158.214 119.762 159.109C118.693 161.182 116.591 163.047 114.266 162.722C111.592 162.345 110.118 159.252 110.201 156.581C110.284 153.91 111.422 151.355 111.793 148.692C112.133 146.238 111.819 143.735 112.089 141.272C112.482 137.664 114.1 134.311 115.042 130.807C115.985 127.303 116.142 123.244 113.921 120.36C112.959 119.154 111.655 118.262 110.178 117.798C108.701 117.334 107.119 117.32 105.634 117.758C104.356 118.161 103.143 118.968 102.581 120.182C101.848 121.821 102.472 123.773 101.957 125.495C101.377 127.429 99.4575 128.756 98.9036 130.699C98.258 133.036 99.7759 135.413 99.8196 137.833C99.8457 139.568 99.0911 141.242 98.2929 142.803C97.3726 144.59 96.3388 146.507 96.6485 148.489C96.8122 149.24 97.0279 149.979 97.294 150.7C97.986 153.037 97.7712 155.547 96.6921 157.735C95.9768 159.17 94.485 160.558 92.9453 160.094C92.7752 157.947 92.4698 155.527 90.7425 154.226C89.6041 153.359 88.0382 153.177 87.0088 152.192C86.5854 151.742 86.2669 151.205 86.0762 150.619C85.8854 150.033 85.8271 149.412 85.9053 148.801C86.0692 147.58 86.4455 146.397 87.0175 145.305C88.2694 142.616 89.7917 139.936 89.9661 136.979C90.2278 132.516 87.349 128.118 88.3959 123.764C89.2683 120.121 92.653 117.567 93.9354 114.045C94.6202 112.155 94.7293 109.939 96.1163 108.486C98.1228 106.4 101.189 107.107 103.728 106.478C104.905 106.183 105.909 105.576 107.147 105.372C108.76 105.091 110.418 105.231 111.959 105.779Z" fill="#925978"/>
<path opacity="0.1" d="M80.9895 198.327C80.9895 198.327 80.9895 208.085 80.9895 212.422C80.9895 213.003 80.9895 213.606 80.9546 214.213C80.8063 218.116 80.2088 222.18 80.2088 222.18C79.5108 221.158 78.6708 220.239 77.7138 219.452C75.6245 217.817 73.8448 218.025 72.5057 218.771C71.9272 219.105 71.4035 219.524 70.9529 220.016C70.6519 218.081 70.5167 216.815 70.5167 216.815L73.727 216.173C74.1262 215.502 74.7749 215.015 75.5329 214.816C78.3681 214.274 79.7857 187.494 79.7857 187.494L71.062 168.568V167.644L74.0106 162.982C78.9177 158.754 80.1172 164.825 80.1172 164.825C80.1172 164.825 80.9895 181.305 80.9895 181.739C80.9895 182.173 80.9895 198.327 80.9895 198.327Z" fill="black"/>
<path d="M80.1172 197.36C80.1172 197.36 80.1172 207.118 80.1172 211.455C80.1172 212.036 80.1172 212.639 80.0823 213.246C79.934 217.149 79.3364 221.213 79.3364 221.213C73.2298 212.647 68.9203 220.605 68.9203 220.605L67.5594 216.984C67.0385 216.54 66.5962 216.012 66.2508 215.423C63.5944 211.051 65.2214 203.432 65.2214 203.432C66.1505 191.505 70.1809 178.061 70.1809 178.061V166.677L73.1382 162.015C78.0453 157.787 80.1172 163.858 80.1172 163.858C80.1172 163.858 80.1172 180.338 80.1172 180.772C80.1172 181.205 80.1172 197.36 80.1172 197.36Z" fill="#FF6484"/>
<path opacity="0.1" d="M80.091 212.812C79.9426 216.715 79.3451 220.779 79.3451 220.779C73.2385 212.214 68.929 220.172 68.929 220.172L67.5681 216.551C67.0472 216.106 66.6049 215.579 66.2595 214.989C69.1034 213.432 75.3714 210.561 80.091 212.812Z" fill="black"/>
<path d="M80.091 213.246C79.9426 217.149 79.3451 221.213 79.3451 221.213C73.2385 212.647 68.929 220.605 68.929 220.605L67.5681 216.984C67.0472 216.54 66.6049 216.012 66.2595 215.423C69.1034 213.866 75.3714 210.995 80.091 213.246Z" fill="#FF6484"/>
<path opacity="0.1" d="M80.091 213.246C79.9426 217.149 79.3451 221.213 79.3451 221.213C73.2385 212.647 68.929 220.605 68.929 220.605L67.5681 216.984C67.0472 216.54 66.6049 216.012 66.2595 215.423C69.1034 213.866 75.3714 210.995 80.091 213.246Z" fill="white"/>
<path opacity="0.1" d="M71.8296 183.916C71.8296 183.916 73.7924 194.65 75.7552 197.794C77.7181 200.938 71.8296 183.916 71.8296 183.916Z" fill="black"/>
<path opacity="0.1" d="M66.8047 202.131C66.8047 202.131 68.0042 208.636 70.5123 209.395C73.0203 210.154 66.8047 202.131 66.8047 202.131Z" fill="black"/>
<path opacity="0.1" d="M134.378 225.085L136.158 225.463L135.395 229.205C135.105 228.825 134.784 228.47 134.435 228.143C132.82 226.611 130.706 225.703 128.477 225.584C127.508 225.522 126.534 225.583 125.581 225.766C125.996 224.293 126.27 222.785 126.401 221.26C126.478 220.688 126.383 220.105 126.126 219.586C125.253 218.394 124.817 207.335 124.817 207.335C124.817 207.335 125.581 201.697 126.017 200.613C126.453 199.529 124.054 193.986 124.163 192.312C124.272 190.638 125.581 176.218 125.581 175.459C125.581 174.7 128.416 159.847 134.304 165.484L136.594 168.629L136.743 169.47L127.325 180.447C127.325 180.447 135.504 222.622 134.522 224.574C134.448 224.736 134.399 224.908 134.378 225.085Z" fill="black"/>
<path d="M144.236 215.683C142.457 217.453 138.753 223.29 137.737 224.912L137.475 225.346L136.603 229.683C136.603 229.683 133.55 224.478 126.462 225.779C126.877 224.306 127.151 222.798 127.282 221.273C127.359 220.701 127.264 220.118 127.007 219.599C126.135 218.407 125.698 207.348 125.698 207.348C125.698 207.348 126.462 201.71 126.898 200.626C127.334 199.542 124.935 193.999 125.044 192.325C125.153 190.651 126.462 176.231 126.462 175.472C126.462 174.713 129.297 159.86 135.185 165.498L137.475 168.642L139.22 178.508L142.601 195.638C142.601 195.638 143.473 202.361 144.236 203.336C145 204.312 146.299 213.623 144.236 215.683Z" fill="#FF6484"/>
<path opacity="0.1" d="M137.728 224.478L137.467 224.912L136.594 229.249C136.594 229.249 133.541 224.045 126.453 225.346C126.868 223.873 127.143 222.364 127.273 220.84C129.703 220.992 134.597 221.672 137.728 224.478Z" fill="black"/>
<path d="M137.728 224.912L137.467 225.346L136.594 229.682C136.594 229.682 133.541 224.478 126.453 225.779C126.868 224.306 127.143 222.798 127.273 221.273C129.703 221.425 134.597 222.106 137.728 224.912Z" fill="#FF6484"/>
<path opacity="0.1" d="M137.728 224.912L137.467 225.346L136.594 229.682C136.594 229.682 133.541 224.478 126.453 225.779C126.868 224.306 127.143 222.798 127.273 221.273C129.703 221.425 134.597 222.106 137.728 224.912Z" fill="white"/>
<path opacity="0.1" d="M130.597 194.433C130.597 194.433 138.012 194.342 139.102 198.18C140.193 202.018 130.597 194.433 130.597 194.433Z" fill="black"/>
<path opacity="0.1" d="M129.179 205.275C129.179 205.275 141.72 204.733 141.174 210.154C140.629 215.575 129.179 205.275 129.179 205.275Z" fill="black"/>
<path opacity="0.1" d="M129.942 213.623C129.942 213.623 130.924 213.406 131.578 215.683C132.232 217.96 129.942 213.623 129.942 213.623Z" fill="black"/>
<path opacity="0.1" d="M104.543 266.641C104.543 266.641 107.531 265.773 108.905 266.641C110.279 267.508 104.543 266.641 104.543 266.641Z" fill="black"/>
<path opacity="0.1" d="M105.08 269.785C105.08 269.785 112.168 269.893 112.822 270.652C113.476 271.411 105.08 269.785 105.08 269.785Z" fill="black"/>
<g opacity="0.1">
<path opacity="0.1" d="M89.9835 135.677C90.1929 132.13 88.4351 128.63 88.217 125.156C87.9902 128.66 89.7785 132.191 89.9617 135.764C89.971 135.736 89.9783 135.707 89.9835 135.677Z" fill="black"/>
<path opacity="0.1" d="M98.3103 141.541C97.403 143.302 96.3911 145.184 96.6528 147.14C96.8404 145.652 97.608 144.212 98.3103 142.846C99.1085 141.285 99.8631 139.628 99.8413 137.876C99.8413 137.685 99.8282 137.495 99.8021 137.304C99.6494 138.787 98.9951 140.201 98.3103 141.541Z" fill="black"/>
<path opacity="0.1" d="M130.226 133.609C130.549 133.745 130.845 133.939 131.098 134.181C131.316 133.726 131.356 133.207 131.212 132.724C131.212 132.724 131.212 132.685 131.19 132.663C131.128 132.892 131.006 133.1 130.837 133.266C130.667 133.432 130.457 133.551 130.226 133.609Z" fill="black"/>
<path opacity="0.1" d="M96.692 156.429C95.9767 157.865 94.4849 159.252 92.9452 158.788C92.7751 156.642 92.4697 154.222 90.7425 152.921C89.604 152.053 88.0381 151.871 87.0131 150.891C86.3991 150.27 86.0173 149.459 85.9313 148.593C85.9313 148.662 85.9095 148.731 85.9052 148.801C85.8266 149.412 85.8852 150.034 86.0768 150.62C86.2683 151.206 86.5881 151.743 87.0131 152.192C88.0381 153.177 89.604 153.372 90.7425 154.226C92.4872 155.527 92.7751 157.947 92.9452 160.094C94.4849 160.558 95.9767 159.17 96.692 157.735C97.4377 156.211 97.77 154.52 97.656 152.83C97.5734 154.08 97.246 155.303 96.692 156.429Z" fill="black"/>
<path opacity="0.1" d="M132.171 137.72C131.853 139.325 130.671 140.656 129.284 141.541C128.629 141.975 127.844 142.408 127.757 143.171C127.737 143.468 127.788 143.765 127.905 144.039C128.263 143.541 128.736 143.137 129.284 142.859C130.671 141.992 131.853 140.643 132.171 139.038C132.256 138.572 132.256 138.095 132.171 137.629C132.173 137.659 132.173 137.69 132.171 137.72Z" fill="black"/>
<path opacity="0.1" d="M128.403 151.611C128.019 152.99 127.046 154.512 125.602 154.447C124.918 154.417 124.294 154.013 123.613 153.948C122.636 153.862 121.72 154.486 121.131 155.249C120.601 156.068 120.141 156.93 119.757 157.826C118.684 159.899 116.582 161.763 114.262 161.438C111.941 161.113 110.454 158.628 110.227 156.195C110.227 156.329 110.196 156.464 110.196 156.603C110.109 159.287 111.583 162.366 114.262 162.743C116.582 163.069 118.684 161.204 119.757 159.131C120.14 158.235 120.6 157.373 121.131 156.555C121.72 155.779 122.636 155.154 123.613 155.254C124.294 155.319 124.922 155.722 125.602 155.753C127.046 155.818 128.019 154.295 128.403 152.916C128.74 151.694 128.872 150.425 128.791 149.161C128.751 149.989 128.621 150.81 128.403 151.611Z" fill="black"/>
<path opacity="0.1" d="M113.913 120.394C115.018 121.91 115.627 123.727 115.657 125.599C115.771 123.239 115.326 120.915 113.913 119.067C112.95 117.861 111.646 116.969 110.169 116.505C108.692 116.042 107.11 116.028 105.625 116.465C104.347 116.869 103.134 117.675 102.572 118.89C101.835 120.529 102.458 122.485 101.944 124.202C101.364 126.136 99.4443 127.463 98.8903 129.406C98.7289 130.029 98.6904 130.677 98.7769 131.315C98.8004 131.111 98.8383 130.91 98.8903 130.712C99.4268 128.769 101.346 127.442 101.944 125.508C102.458 123.773 101.835 121.834 102.572 120.195C103.117 118.981 104.316 118.174 105.625 117.771C107.112 117.336 108.696 117.353 110.173 117.82C111.65 118.288 112.952 119.185 113.913 120.394Z" fill="black"/>
</g>
<g opacity="0.8">
<path opacity="0.8" d="M247.965 286.673C267.285 286.673 282.947 271.101 282.947 251.891C282.947 232.682 267.285 217.11 247.965 217.11C228.645 217.11 212.983 232.682 212.983 251.891C212.983 271.101 228.645 286.673 247.965 286.673Z" fill="#1769FF"/>
<path opacity="0.8" d="M237.693 236.127C239.08 236.116 240.465 236.249 241.824 236.526C242.965 236.747 244.051 237.189 245.021 237.827C245.91 238.435 246.621 239.265 247.084 240.234C247.611 241.4 247.863 242.669 247.821 243.946C247.871 245.35 247.49 246.735 246.731 247.919C245.91 249.055 244.799 249.953 243.512 250.521C245.27 250.954 246.816 251.995 247.874 253.457C248.722 254.824 249.213 256.381 249.303 257.985C249.392 259.589 249.076 261.19 248.384 262.642C247.789 263.777 246.929 264.752 245.876 265.487C244.784 266.242 243.566 266.795 242.278 267.122C240.923 267.474 239.529 267.652 238.129 267.651H222.776V236.127H237.693ZM236.821 248.886C237.906 248.933 238.977 248.628 239.874 248.019C240.677 247.44 241.077 246.483 241.074 245.148C241.097 244.521 240.959 243.898 240.672 243.339C240.422 242.884 240.055 242.502 239.608 242.233C239.135 241.959 238.617 241.773 238.077 241.682C237.482 241.58 236.879 241.529 236.276 241.531H229.733V248.903L236.821 248.886ZM237.222 262.261C237.879 262.264 238.534 262.197 239.176 262.061C239.76 261.946 240.316 261.722 240.816 261.402C241.297 261.086 241.687 260.653 241.95 260.144C242.258 259.511 242.408 258.813 242.387 258.11C242.387 256.497 241.929 255.339 241.008 254.641C239.944 253.903 238.663 253.537 237.366 253.6H229.777V262.274L237.222 262.261ZM258.115 261.597C259.063 262.511 260.424 262.968 262.198 262.968C263.371 262.996 264.524 262.66 265.496 262.005C266.272 261.546 266.868 260.838 267.184 259.997H272.732C271.842 262.735 270.48 264.692 268.645 265.869C266.64 267.097 264.316 267.714 261.963 267.643C260.295 267.665 258.638 267.37 257.082 266.775C255.686 266.239 254.428 265.402 253.396 264.325C252.367 263.231 251.572 261.94 251.062 260.53C250.502 258.972 250.224 257.328 250.242 255.673C250.227 254.045 250.512 252.428 251.084 250.903C251.61 249.484 252.424 248.188 253.474 247.095C254.524 246.003 255.789 245.136 257.191 244.549C258.701 243.915 260.327 243.599 261.967 243.621C263.736 243.58 265.489 243.967 267.075 244.749C268.487 245.47 269.71 246.51 270.647 247.784C271.597 249.086 272.283 250.559 272.667 252.121C273.082 253.78 273.229 255.495 273.103 257.2H256.528C256.615 259.221 257.134 260.695 258.081 261.602L258.115 261.597ZM265.243 249.593C264.487 248.769 263.339 248.357 261.801 248.357C260.937 248.327 260.077 248.5 259.293 248.864C258.675 249.162 258.13 249.592 257.697 250.122C257.313 250.591 257.025 251.13 256.85 251.709C256.703 252.198 256.606 252.701 256.563 253.21H266.804C266.513 251.622 265.987 250.417 265.225 249.593H265.243ZM255.463 237.719H268.274V241.253H255.463V237.719Z" fill="white"/>
</g>
<g opacity="0.8">
<path opacity="0.8" d="M406.048 272.261C406.048 272.587 406.048 272.916 406.048 273.246C405.809 281.572 402.574 289.537 396.93 295.692C391.286 301.848 383.609 305.786 375.292 306.791C373.895 306.957 372.49 307.039 371.083 307.038C364.164 307.038 357.4 304.998 351.647 301.176C345.895 297.354 341.411 291.922 338.763 285.566C336.116 279.211 335.423 272.217 336.773 265.47C338.123 258.723 341.456 252.525 346.348 247.661C351.241 242.797 357.475 239.485 364.261 238.144C371.047 236.802 378.081 237.491 384.473 240.125C390.865 242.758 396.328 247.216 400.172 252.937C404.015 258.657 406.066 265.382 406.065 272.261H406.048Z" fill="#B3BBC6"/>
<path opacity="0.8" d="M406.03 273.246C405.792 281.572 402.556 289.537 396.913 295.692C391.269 301.848 383.591 305.786 375.275 306.791L346.713 285.666L350.281 262.681L364.405 263.549L372.44 270.245L378.154 260.986L387.75 268.913L392.91 272.587V260.994L405.917 272.964C405.947 273.059 405.995 273.15 406.03 273.246Z" fill="#666C76"/>
<path opacity="0.8" d="M368.562 273.116C368.562 265.743 364.004 260.747 355.324 260.747H346.753V285.562H355.502C363.93 285.562 368.562 280.488 368.562 273.116ZM362.337 273.155C362.337 278.476 359.589 280.779 355.18 280.779H352.933V265.531H355.18C359.411 265.531 362.337 267.938 362.337 273.155ZM393.193 285.562V260.747H387.44V274.625L378.254 260.747H372.248V285.558H378.001V270.709L387.837 285.558H393.193V285.562Z" fill="white"/>
</g>
<path d="M379.745 235.26C379.309 234.392 375.24 228.59 375.24 228.59L375.118 228.069L373.783 222.149L373.691 221.716C374.564 221.495 375.192 221.221 375.388 220.879C376.348 219.209 374.577 217.179 374.577 217.179L374.206 208.402L373.246 187.151C373.246 187.151 371.253 180.039 370.956 178.374C370.66 176.708 367.929 173.221 367.929 173.221C367.929 173.221 368.518 171.487 367.781 170.246C367.044 169.006 365.417 163.208 365.417 163.208L364.017 147.161L363.349 131.375C364.018 131.371 364.686 131.433 365.343 131.562C365.439 131.64 365.386 131.445 365.247 131.094C365.281 131.099 365.313 131.111 365.343 131.128C365.569 131.31 364.963 129.953 364.309 128.569L364.23 128.409C364.544 127.277 365.844 122.693 366.747 121.036C367.419 119.813 366.128 111.37 365.142 105.602C365.072 105.19 365.002 104.795 364.937 104.413C366.538 101.629 368.374 98.4719 368.374 98.4719C368.374 98.4719 373.024 85.2706 374.943 79.5374C376.862 73.8041 374.943 58.9375 374.943 58.9375C374.943 58.9375 374.943 58.2089 374.838 57.0726C374.537 54.0022 373.386 47.9956 368.963 45.6624C362.909 42.4705 360.99 38.5544 360.99 38.5544C360.99 38.5544 353.435 31.7196 352.48 34.0137L352.414 33.8836C351.85 32.7366 351.435 31.5226 351.18 30.2711C351.154 30.141 351.132 30.0108 351.11 29.8851C352.075 29.1273 352.914 28.2228 353.596 27.2049C353.596 27.3957 353.566 27.5866 353.553 27.7774C353.553 27.8988 353.553 28.0202 353.553 28.1373V28.3021C353.548 28.3816 353.548 28.4612 353.553 28.5407C353.553 28.5884 353.553 28.6361 353.553 28.6838C353.832 28.7109 354.113 28.6529 354.359 28.5173C354.604 28.3817 354.802 28.1751 354.927 27.9248C355.163 27.4242 355.321 26.8903 355.393 26.3419C355.648 25.174 356.117 24.0627 356.776 23.0633C357.422 22.0788 358.285 21.09 358.399 19.9668C358.416 19.8024 358.416 19.6367 358.399 19.4724C358.342 18.8999 358.071 18.3665 357.989 17.7984C357.953 17.5103 357.953 17.219 357.989 16.931C357.989 16.7619 358.028 16.5927 358.054 16.4279C358.08 16.2631 358.124 15.9942 358.154 15.7514C358.185 15.5085 358.211 15.3741 358.233 15.1833V15.1616C358.294 14.6618 358.294 14.1565 358.233 13.6567C358.196 13.1947 358.048 12.7483 357.802 12.3545C357.556 11.9608 357.219 11.6311 356.82 11.3929C356.383 11.1717 355.882 11.1023 355.446 10.8811C354.294 10.2957 353.928 8.89052 353.265 7.80632C352.794 7.08355 352.156 6.48272 351.406 6.05359C350.655 5.62447 349.812 5.37939 348.946 5.33867C347.202 5.26928 345.492 6.02822 343.778 5.77235C342.683 5.59887 341.675 5.00907 340.567 4.93101C338.949 4.81825 337.492 5.79837 336.179 6.73946C335.25 7.40299 334.26 8.15326 333.955 9.24614C333.711 10.1395 333.955 11.1674 333.449 11.948C333.122 12.4554 332.528 12.746 332.162 13.249C331.859 13.6491 331.705 14.141 331.726 14.6412C331.726 14.6845 331.726 14.7322 331.726 14.7799C331.726 14.8276 331.726 14.9361 331.726 15.0141C331.756 15.3481 331.817 15.6863 331.874 16.0159C331.876 16.0506 331.876 16.0853 331.874 16.12C332.005 17.0351 331.708 17.6769 331.377 18.5703C331.236 18.947 331.156 19.3438 331.141 19.7456C331.141 19.7456 331.141 19.7846 331.141 19.8063C331.141 19.828 331.141 19.8627 331.141 19.893C331.137 19.9768 331.137 20.0608 331.141 20.1446C331.18 20.4564 331.318 20.7479 331.534 20.9772C331.643 20.8002 331.792 20.6515 331.97 20.5436C331.97 20.6737 331.97 20.8038 331.97 20.9382V20.9642C331.971 22.493 332.281 24.0061 332.88 25.4139C333.479 26.8218 334.356 28.0958 335.46 29.1608C335.46 29.2866 335.425 29.4167 335.407 29.5425C335.22 30.8435 334.971 32.2747 334.67 33.6451L334.565 34.0788H332.384C332.384 34.0788 332.755 32.4828 329.135 34.4431C325.515 36.4033 321.083 37.3444 320.411 37.7044C319.74 38.0643 311.552 44.3831 311.552 44.3831C311.552 44.3831 304.46 48.4423 304.682 55.4073L303.871 63.2136L303.282 77.794C303.282 77.794 302.174 90.2016 303.282 91.9407C304.39 93.6797 306.309 103.984 305.939 105.289C305.673 106.235 308.346 112.879 310.205 116.752C309.706 117.275 309.244 117.831 308.822 118.417C308.822 118.417 308.08 121.323 308.08 121.613C308.08 121.613 308.08 121.644 308.115 121.661C306.479 123.309 303.871 126.019 303.871 126.618C303.871 127.485 304.39 128.244 303.579 128.192C302.768 128.14 302.741 129.086 302.789 129.662C302.837 130.239 301.804 129.376 301.878 130.46C301.952 131.545 294.345 148.597 294.345 148.597C294.345 148.597 290.877 156.941 289.547 158.32C288.216 159.699 286.371 165.792 286.52 168.039C286.668 170.285 286.742 170.945 286.149 170.945C285.556 170.945 284.378 172.974 284.378 172.974L278.546 190.82C278.546 190.82 276.845 196.332 276.33 196.263C275.816 196.194 274.655 205.735 274.655 205.735C274.655 205.735 273.404 208.562 273.181 208.562C273.138 208.562 273.343 208.766 273.722 209.087L273.469 209.299C272.921 209.766 272.345 210.201 271.746 210.6C271.724 210.6 268.374 208.289 266.076 208.506C263.777 208.723 259.062 209.299 256.693 207.638C255.385 206.71 252.624 205.904 250.404 205.869C248.633 205.843 247.198 206.303 247.097 207.638C246.875 210.609 255.145 216.199 255.145 216.199C255.145 216.199 263.869 218.663 265.557 220.97C267.245 223.277 274.219 226.772 274.219 226.772C274.219 226.772 276.317 225.853 277.107 224.929C277.201 224.841 277.275 224.734 277.325 224.615C277.375 224.496 277.398 224.368 277.395 224.24C277.246 223.151 280.274 219.036 280.274 219.036L280.71 216.993C280.923 215.982 281.194 214.751 281.46 213.671C281.495 213.523 281.53 213.379 281.565 213.237C281.911 213.255 282.256 213.201 282.581 213.081C285.534 211.923 285.831 208.744 285.831 208.744L290.249 199.555C290.249 199.555 292.168 194.259 292.757 193.314C293.346 192.368 297.926 182.871 297.926 182.871C297.926 182.871 298.737 178.807 299.479 177.576C300.22 176.344 300.29 173.672 300.29 173.672C300.29 173.672 301.838 169.609 303.465 168.013C304.637 166.76 305.653 165.373 306.493 163.88C306.493 163.88 313.21 153.359 317.79 150.388C317.79 150.388 328.795 137.039 329.458 135.877C330.121 134.715 332.188 131.67 334.692 134.424C337.196 137.178 339.856 140.739 339.856 140.739L344.367 152.925L349.387 168.538C349.387 168.538 351.747 172.306 351.603 173.104C351.459 173.902 355.441 181.015 355.441 181.015C355.441 181.015 356.99 183.617 356.697 184.918C356.405 186.219 357.805 187.52 357.805 187.52L358.242 192.815C358.242 192.815 359.869 198.019 359.424 198.839C358.979 199.659 360.976 204.642 360.976 204.642C360.976 204.642 360.976 209.065 361.714 210.518C362.451 211.971 363.349 217.769 363.275 218.203C363.201 218.637 363.275 222.631 363.275 222.631C363.275 222.631 363.794 222.631 364.619 222.605L364.653 223.038L365.02 227.406L365.055 227.809C364.857 227.961 364.694 228.153 364.577 228.373C364.461 228.593 364.393 228.836 364.379 229.084C364.379 230.264 364.553 233.729 364.701 236.457C364.736 237.181 364.776 237.849 364.81 238.408C364.822 238.604 364.874 238.795 364.963 238.97C365.051 239.144 365.175 239.299 365.326 239.425C365.477 239.55 365.653 239.644 365.842 239.699C366.031 239.755 366.229 239.772 366.424 239.748C368.524 239.485 370.653 239.564 372.727 239.982C375.025 240.507 377.391 240.68 379.741 240.494C379.741 240.494 379.902 238.859 379.929 237.393C379.95 236.457 379.916 235.594 379.745 235.26Z" fill="url(#paint1_linear_7_29)"/>
<path d="M374.097 228.793H364.139L364.043 227.627L363.681 223.273L363.41 219.977H372.134L372.666 222.375L373.979 228.273L374.097 228.793Z" fill="#FFAAB0"/>
<path d="M282.568 211.299C282.38 211.481 282.071 212.578 281.757 213.901C281.194 216.225 280.605 219.248 280.605 219.248L280.239 219.335L272.475 221.2C272.475 221.2 268.405 211.949 270.294 211.732C270.96 211.594 271.589 211.316 272.139 210.917C272.761 210.507 273.357 210.058 273.923 209.573C274.956 208.705 275.746 207.899 275.746 207.899C275.746 207.899 283.078 210.791 282.568 211.299Z" fill="#FFAAB0"/>
<path opacity="0.1" d="M282.568 211.299C282.38 211.481 282.071 212.578 281.757 213.901C279.074 213.745 275.018 210.579 273.905 209.564C274.939 208.697 275.729 207.89 275.729 207.89C275.729 207.89 283.078 210.791 282.568 211.299Z" fill="black"/>
<path opacity="0.1" d="M372.662 222.371C370.272 223.012 365.888 223.208 363.676 223.268L363.406 219.972H372.13L372.662 222.371Z" fill="black"/>
<path d="M309.393 120.95C309.393 120.95 303.941 126.297 303.941 127.164C303.941 128.032 304.451 128.782 303.653 128.734C302.855 128.686 302.829 129.623 302.877 130.2C302.925 130.777 301.908 129.909 301.978 130.994C302.048 132.078 294.563 149.065 294.563 149.065C294.563 149.065 291.148 157.379 289.839 158.749C288.53 160.12 286.712 166.196 286.86 168.438C287.008 170.68 287.078 171.326 286.494 171.326C285.909 171.326 284.749 173.351 284.749 173.351L279.009 191.132C279.009 191.132 277.334 196.627 276.828 196.553C276.322 196.48 275.083 206.021 275.083 206.021C275.083 206.021 273.844 208.84 273.626 208.84C273.408 208.84 279.951 214.477 282.86 213.324C285.769 212.17 286.057 208.987 286.057 208.987L290.419 199.88C290.419 199.88 292.312 194.602 292.892 193.661C293.472 192.72 297.983 183.252 297.983 183.252C297.983 183.252 298.781 179.206 299.509 177.979C300.238 176.751 300.307 174.076 300.307 174.076C300.307 174.076 301.834 170.025 303.435 168.438C304.589 167.187 305.589 165.804 306.414 164.318C306.414 164.318 313.031 153.836 317.537 150.874C317.537 150.874 328.367 137.573 329.022 136.415C329.676 135.257 331.713 132.225 334.186 134.971C336.659 137.716 339.272 141.259 339.272 141.259L343.708 153.402L348.65 168.941C348.65 168.941 350.979 172.701 350.831 173.495C350.682 174.288 354.613 181.375 354.613 181.375C354.613 181.375 356.139 183.977 355.847 185.278C355.555 186.579 356.937 187.88 356.937 187.88L357.374 193.158C357.374 193.158 358.974 198.362 358.538 199.155C358.102 199.949 360.065 204.936 360.065 204.936C360.065 204.936 360.065 209.347 360.793 210.791C361.522 212.235 362.39 218.021 362.32 218.454C362.25 218.888 362.32 222.865 362.32 222.865C362.32 222.865 373.29 222.791 374.236 221.13C375.183 219.469 373.438 217.444 373.438 217.444L373.072 208.696L372.13 187.52C372.13 187.52 370.167 180.433 369.875 178.772C369.582 177.111 366.895 173.642 366.895 173.642C366.895 173.642 367.476 171.907 366.747 170.676C366.019 169.444 364.422 163.667 364.422 163.667L363.04 147.69L362.329 130.274L309.393 120.95Z" fill="#DCE6F2"/>
<path opacity="0.1" d="M364.353 132.152C363.916 131.787 346.033 131.644 345.815 131.644C345.597 131.644 338.836 128.968 338.836 128.968C338.836 128.968 323.787 126.514 321.462 127.598C319.138 128.682 311.936 125.573 311.936 125.573V124.198C311.936 124.198 308.085 122.897 308.085 122.611C308.085 122.324 308.813 119.427 308.813 119.427L309.249 119.276L310.916 118.708L362.023 126.874C362.023 126.874 362.699 128.253 363.332 129.602C363.964 130.95 364.575 132.334 364.353 132.152Z" fill="black"/>
<path d="M364.353 131.718C363.916 131.354 346.033 131.211 345.815 131.211C345.597 131.211 338.836 128.535 338.836 128.535C338.836 128.535 323.787 126.08 321.462 127.164C319.138 128.248 311.936 125.139 311.936 125.139V123.764C311.936 123.764 308.085 122.463 308.085 122.177C308.085 121.891 308.813 118.994 308.813 118.994L309.249 118.842L310.916 118.274L362.023 126.44C362.023 126.44 362.699 127.819 363.332 129.168C363.964 130.517 364.575 131.9 364.353 131.718Z" fill="#F1FAFF"/>
<path opacity="0.1" d="M281.019 216.772L280.583 218.814C280.583 218.814 280.439 219.014 280.217 219.335L272.475 221.2C272.475 221.2 268.405 211.949 270.294 211.732C270.96 211.594 271.589 211.316 272.139 210.917C271.742 213.814 274.001 216.863 274.001 216.863C277.19 219.248 281.019 216.772 281.019 216.772Z" fill="black"/>
<path d="M281.019 217.21L280.583 219.252C280.583 219.252 277.604 223.372 277.748 224.457C277.752 224.585 277.729 224.712 277.68 224.831C277.631 224.95 277.558 225.057 277.465 225.146C276.688 226.066 274.621 226.981 274.621 226.981C274.621 226.981 267.79 223.511 266.115 221.2C264.44 218.888 255.865 216.429 255.865 216.429C255.865 216.429 247.725 210.861 247.944 207.899C248.039 206.598 249.453 206.112 251.197 206.138C253.378 206.164 256.096 206.975 257.391 207.899C259.721 209.56 264.37 208.983 266.625 208.766C268.88 208.549 272.195 210.856 272.195 210.856C271.441 213.892 273.966 217.296 273.966 217.296C277.19 219.686 281.019 217.21 281.019 217.21Z" fill="#575988"/>
<path d="M277.486 225.142C276.71 226.061 274.642 226.976 274.642 226.976C274.642 226.976 267.812 223.507 266.137 221.195C264.462 218.884 255.886 216.425 255.886 216.425C255.886 216.425 247.747 210.856 247.965 207.894C248.061 206.593 249.474 206.108 251.219 206.134C252.528 208.302 254.46 211.316 255.886 212.157C258.216 213.532 262.796 216.134 262.796 216.134C262.796 216.134 270.062 220.688 270.573 221.195C270.991 221.616 275.201 224.383 277.486 225.142Z" fill="#F1FAFF"/>
<path opacity="0.1" d="M374.106 228.789H364.135L364.039 227.622C365.295 226.447 367.986 225.888 367.986 225.888C369.853 225.32 373.294 227.757 373.975 228.26L374.106 228.789Z" fill="black"/>
<path d="M378.716 237.558C378.69 239.02 378.529 240.646 378.529 240.646C376.214 240.832 373.885 240.661 371.624 240.139C369.583 239.72 367.488 239.641 365.421 239.904C365.227 239.927 365.031 239.91 364.844 239.854C364.657 239.799 364.483 239.705 364.334 239.58C364.184 239.455 364.063 239.3 363.976 239.126C363.889 238.952 363.839 238.763 363.829 238.569C363.799 238.014 363.759 237.346 363.724 236.626C363.576 233.924 363.406 230.472 363.406 229.297C363.406 227.276 367.986 226.335 367.986 226.335C370.062 225.701 374.093 228.793 374.093 228.793C374.093 228.793 378.092 234.574 378.529 235.442C378.699 235.776 378.734 236.634 378.716 237.558Z" fill="#575988"/>
<path d="M378.716 237.558C378.69 239.02 378.529 240.646 378.529 240.646C376.214 240.832 373.885 240.661 371.624 240.139C369.584 239.72 367.488 239.641 365.421 239.904C365.227 239.927 365.031 239.91 364.844 239.854C364.657 239.799 364.483 239.705 364.334 239.58C364.185 239.455 364.063 239.3 363.976 239.126C363.889 238.952 363.839 238.763 363.829 238.569C363.799 238.014 363.759 237.346 363.724 236.626C365.399 236.374 367.868 236.131 369.587 236.526C371.585 236.986 376.173 237.372 378.716 237.558Z" fill="#F1FAFF"/>
<path opacity="0.1" d="M279.406 194.134C279.406 194.134 277.879 196.736 279.406 197.928C280.932 199.121 279.406 194.134 279.406 194.134Z" fill="black"/>
<path opacity="0.1" d="M361.408 204.217C361.845 205.084 363.005 206.385 362.804 207.903C362.604 209.421 361.408 204.217 361.408 204.217Z" fill="black"/>
<path d="M360.065 45.6321C360.065 45.6321 353.404 44.9599 346.5 44.0492L346.216 44.0101C338.199 42.9476 329.972 41.5728 331.565 40.571C332.276 40.1373 332.873 39.0358 333.366 37.648C333.673 36.7592 333.931 35.8543 334.138 34.9375C334.173 34.7944 334.203 34.6469 334.238 34.5038C334.539 33.1377 334.779 31.7109 334.967 30.4185C335.338 27.7861 335.49 25.6871 335.49 25.6871C335.49 25.6871 352.576 19.2512 350.469 27.2743C350.149 28.5626 350.129 29.9061 350.408 31.2035C350.659 32.4496 351.068 33.6591 351.625 34.8031C354.346 40.5797 360.065 45.6321 360.065 45.6321Z" fill="#FFAAB0"/>
<path opacity="0.1" d="M350.469 27.2699C350.149 28.5582 350.129 29.9017 350.408 31.1991C348.191 32.9871 345.387 33.8962 342.536 33.7512C339.685 33.6063 336.989 32.4176 334.967 30.4141C335.338 27.7817 335.49 25.6827 335.49 25.6827C335.49 25.6827 352.576 19.2468 350.469 27.2699Z" fill="black"/>
<path d="M354.682 21.8402C354.686 24.8883 353.471 27.8128 351.306 29.9705C350.234 31.0389 348.961 31.8869 347.559 32.466C346.157 33.0452 344.655 33.3441 343.137 33.3458C341.619 33.3475 340.115 33.052 338.712 32.476C337.309 31.9 336.034 31.0549 334.959 29.9889C332.789 27.8361 331.568 24.9143 331.565 21.8663V21.8402C331.565 18.7922 332.782 15.869 334.95 13.7138C337.118 11.5585 340.058 10.3477 343.123 10.3477C346.189 10.3477 349.129 11.5585 351.297 13.7138C353.465 15.869 354.682 18.7922 354.682 21.8402Z" fill="#FFAAB0"/>
<path opacity="0.1" d="M346.652 43.5764C346.619 43.7392 346.568 43.8977 346.5 44.0491L346.216 44.0101C338.199 42.9476 329.972 41.5728 331.565 40.571C332.276 40.1373 332.873 39.0358 333.366 37.648C333.673 36.7592 333.931 35.8543 334.138 34.9375C334.173 34.7944 334.203 34.6469 334.238 34.5038H334.574C334.6 34.6859 335.447 40.2414 342.945 41.1912L343.198 41.2215C346.124 41.5468 346.87 42.5009 346.652 43.5764Z" fill="black"/>
<path d="M346.216 44.0101C345.85 45.8099 342.761 47.9436 342.761 47.9436L334.182 46.352C334.182 46.352 328.803 41.5815 328.803 41.4383C328.803 41.2952 332.001 34.9331 332.001 34.9331H334.138C334.164 35.1153 335.01 40.6707 342.508 41.6205L342.761 41.6508C345.688 41.9804 346.434 42.9345 346.216 44.0101Z" fill="#F1FAFF"/>
<path opacity="0.1" d="M360.065 45.6321C360.065 45.6321 353.221 44.9425 346.216 44.0101C345.85 45.8099 342.761 47.9436 342.761 47.9436L334.182 46.352C334.182 46.352 328.803 41.5815 328.803 41.4384C328.803 41.2953 332.001 34.9331 332.001 34.9331H332.11C332.391 35.8949 332.815 36.8098 333.366 37.648C334.714 39.695 337.292 41.9371 342.09 41.6552L342.491 41.6249C349.692 41.0307 351.311 36.0737 351.607 34.7987C354.346 40.5797 360.065 45.6321 360.065 45.6321Z" fill="black"/>
<path opacity="0.1" d="M363.332 129.168L363.188 129.693C361.443 128.392 348.724 127.524 348.724 127.524C348.724 127.524 345.379 127.134 342.181 126.627C339.861 126.258 337.619 125.824 336.795 125.43C336.603 125.345 336.406 125.271 336.206 125.208C333.309 124.306 324.429 123.261 324.429 123.261C324.429 123.261 320.067 125.213 317.742 124.345C315.417 123.478 308.8 119.427 308.8 119.427C308.8 119.427 308.944 119.211 309.236 118.842L310.903 118.274L362.01 126.44C362.01 126.44 362.704 127.819 363.332 129.168Z" fill="black"/>
<path d="M364.152 106.313C365.125 112.063 366.394 120.473 365.735 121.691C364.715 123.569 363.188 129.281 363.188 129.281C361.443 127.98 348.724 127.112 348.724 127.112C348.724 127.112 345.379 126.722 342.181 126.215C339.861 125.846 337.619 125.412 336.794 125.018C336.603 124.933 336.406 124.859 336.206 124.796C333.309 123.894 324.429 122.849 324.429 122.849C324.429 122.849 320.067 124.801 317.742 123.933C315.417 123.066 308.8 119.015 308.8 119.015C309.753 117.717 310.85 116.53 312.071 115.477C314.322 113.451 318.466 96.0303 318.361 95.8134C318.257 95.5966 317.232 90.0324 317.524 86.7798C317.816 83.5272 316.651 67.6241 316.651 67.6241C316.651 67.6241 304.957 63.1224 304.752 56.1835C304.547 49.2446 311.513 45.1984 311.513 45.1984C311.513 45.1984 319.583 38.91 320.237 38.5457C320.891 38.1814 325.253 37.2446 328.817 35.2931C332.38 33.3415 332.014 34.9331 332.014 34.9331C332.014 34.9331 333.471 42.5963 342.12 42.0889C350.77 41.5814 351.716 34.9331 351.716 34.9331C352.645 32.6216 360.095 39.4868 360.095 39.4868C360.095 39.4868 361.984 43.3899 367.947 46.5688C372.309 48.8933 373.434 54.8781 373.731 57.9356C373.84 59.0675 373.835 59.7961 373.835 59.7961L356.314 72.3035L363.201 100.853C363.201 100.853 363.637 103.182 364.152 106.313Z" fill="#575988"/>
<path d="M320.808 121.167C320.808 121.167 326.553 130.994 332.511 128.249C333.854 127.642 334.968 126.627 335.695 125.352C338.046 121.31 335.695 116.153 331.142 114.943C329.462 114.509 327.652 114.236 326.187 114.509C322.043 115.238 320.808 121.167 320.808 121.167Z" fill="#FFAAB0"/>
<path opacity="0.1" d="M320.808 121.167C320.808 121.167 326.553 130.994 332.511 128.249C333.854 127.642 334.968 126.627 335.695 125.352C338.046 121.31 335.695 116.153 331.142 114.943C329.462 114.509 327.652 114.236 326.187 114.509C322.043 115.238 320.808 121.167 320.808 121.167Z" fill="black"/>
<path opacity="0.1" d="M312.377 49.3921C312.377 49.3921 316.909 52.4279 317.005 57.1984L312.377 49.3921Z" fill="black"/>
<path opacity="0.1" d="M319.5 51.7036C319.5 51.9942 318.191 72.0867 320.516 78.9519C322.841 85.8171 319.5 51.7036 319.5 51.7036Z" fill="black"/>
<path opacity="0.1" d="M354.682 21.8402C354.687 24.0673 354.037 26.2472 352.811 28.1112C352.811 27.9638 352.811 27.8207 352.811 27.6775C352.737 26.4719 352.096 25.3834 351.472 24.3425C351.048 23.5149 350.453 22.785 349.727 22.2001C349.515 22.0777 349.318 21.9322 349.138 21.7665C348.737 21.3328 348.781 20.6432 348.702 20.0317C348.586 19.232 348.221 18.4885 347.659 17.9053C347.096 17.322 346.365 16.9282 345.566 16.7791C345.235 16.6968 344.884 16.7466 344.589 16.9179C344.292 17.1261 344.153 17.512 343.904 17.7506C343.512 18.1018 342.91 18.0585 342.391 17.9587C341.248 17.7332 340.057 17.3212 338.949 17.6855C337.047 18.3143 336.332 20.9294 334.382 21.4152C333.805 21.5009 333.221 21.5415 332.638 21.5366C332.262 21.561 331.898 21.6724 331.573 21.8619V21.8358C331.573 18.7878 332.791 15.8646 334.959 13.7094C337.126 11.5541 340.067 10.3433 343.132 10.3433C346.198 10.3433 349.138 11.5541 351.305 13.7094C353.473 15.8646 354.691 18.7878 354.691 21.8358L354.682 21.8402Z" fill="black"/>
<path d="M331.678 14.2118C332.04 13.7304 332.62 13.4399 332.947 12.9325C333.445 12.1562 333.2 11.1327 333.445 10.2436C333.741 9.15509 334.718 8.40916 335.625 7.74563C336.934 6.80887 338.352 5.83308 339.944 5.94151C341.034 6.01957 342.024 6.60938 343.106 6.78285C344.794 7.05607 346.486 6.30146 348.196 6.34917C349.051 6.39181 349.883 6.63778 350.622 7.06642C351.361 7.49507 351.987 8.09385 352.445 8.81248C353.121 9.88802 353.479 11.2888 354.626 11.8483C355.062 12.0694 355.55 12.1388 355.978 12.36C356.374 12.5997 356.706 12.9297 356.948 13.3226C357.19 13.7155 357.334 14.1601 357.369 14.6195C357.429 15.5361 357.365 16.4566 357.177 17.356C357.092 17.8091 357.071 18.272 357.116 18.7308C357.195 19.2989 357.465 19.828 357.522 20.4005C357.653 21.7015 356.65 22.8421 355.921 23.9567C355.275 24.9566 354.815 26.0643 354.565 27.2266C354.493 27.7734 354.337 28.3059 354.102 28.8052C353.981 29.0529 353.786 29.2581 353.545 29.3936C353.303 29.5291 353.026 29.5886 352.75 29.5642C352.667 28.7792 352.863 27.9856 352.811 27.1963C352.737 25.9906 352.096 24.9021 351.472 23.8656C351.049 23.036 350.454 22.3045 349.727 21.7189C349.516 21.5978 349.32 21.4522 349.143 21.2852C348.737 20.8515 348.781 20.1663 348.707 19.5505C348.59 18.7516 348.224 18.009 347.662 17.4266C347.1 16.8442 346.369 16.4511 345.57 16.3022C345.24 16.2186 344.889 16.2668 344.593 16.4366C344.297 16.6448 344.157 17.0308 343.909 17.2693C343.516 17.6206 342.914 17.5815 342.395 17.4775C341.252 17.2563 340.061 16.8399 338.954 17.2042C337.052 17.8331 336.336 20.4482 334.387 20.9339C333.809 21.022 333.226 21.0626 332.642 21.0553C332.348 21.056 332.058 21.1269 331.797 21.262C331.536 21.397 331.311 21.5924 331.141 21.8316C330.557 21.2245 330.675 20.2357 330.963 19.4464C331.298 18.5226 331.604 17.8678 331.438 16.8963C331.272 15.9249 331.054 15.0402 331.678 14.2118Z" fill="#794F6A"/>
<path opacity="0.1" d="M289.22 171.907C289.22 171.907 285.076 174.076 287.257 174.509C289.438 174.943 289.22 171.907 289.22 171.907Z" fill="black"/>
<path opacity="0.1" d="M357.483 177.112C357.483 177.112 359.773 174.076 362.281 175.919C364.789 177.762 357.483 177.112 357.483 177.112Z" fill="black"/>
<path opacity="0.1" d="M362.804 179.063C362.804 179.063 365.661 178.087 367.406 179.063H362.804Z" fill="black"/>
<path opacity="0.1" d="M306.34 129.84C306.34 129.84 312.447 135.695 314.409 135.912C316.372 136.128 306.34 129.84 306.34 129.84Z" fill="black"/>
<path opacity="0.1" d="M307.212 52.8615L305.625 56.1835L304.822 63.9898L304.242 78.5181C304.242 78.5181 303.152 90.8781 304.242 92.6128C305.332 94.3475 307.221 104.613 306.859 105.914C306.497 107.215 311.657 119.358 312.604 120.082C313.55 120.806 316.891 120.95 318.78 120.585L322.235 123.851L332.014 114.878L325.977 110.324C325.977 110.324 327.36 108.009 323.508 105.48C323.508 105.48 321.763 102.587 321.689 101.07C321.599 97.9731 321.06 94.9058 320.088 91.9623C318.71 87.916 317.908 65.4383 317.908 65.4383C317.908 65.4383 314.627 49.0277 307.212 52.8615Z" fill="black"/>
<path d="M306.34 52.8615L304.752 56.1835L303.95 63.9898L303.37 78.5181C303.37 78.5181 302.279 90.8781 303.37 92.6128C304.46 94.3475 306.349 104.613 305.987 105.914C305.625 107.215 310.785 119.358 311.731 120.082C312.678 120.806 316.019 120.95 317.908 120.585L321.362 123.851L331.142 114.878L325.105 110.324C325.105 110.324 326.487 108.009 322.636 105.48C322.636 105.48 320.891 102.587 320.817 101.07C320.726 97.9731 320.187 94.9058 319.216 91.9623C317.838 87.916 317.035 65.4383 317.035 65.4383C317.035 65.4383 313.755 49.0277 306.34 52.8615Z" fill="#575988"/>
<path opacity="0.1" d="M321.537 107.215C321.1 107.432 312.303 115.529 315.574 115.746C318.845 115.962 321.537 107.215 321.537 107.215Z" fill="black"/>
<path d="M332.729 116.973C332.729 116.973 320.154 118.274 320.808 123.335C321.463 128.396 330.404 133.271 333.24 131.735C336.075 130.2 338.474 128.734 338.474 128.734L332.729 116.973Z" fill="#FFAAB0"/>
<path opacity="0.1" d="M371.113 56.331L372.932 59.8005C372.932 59.8005 374.821 74.6151 372.932 80.3267C371.044 86.0383 366.464 99.1918 366.464 99.1918C366.464 99.1918 360.937 108.807 360.793 109.24C360.649 109.674 350.177 124.705 348.288 125.503C346.399 126.301 342.836 125.881 342.617 125.005C342.399 124.129 337.601 128.734 337.601 128.734C337.601 128.734 328.354 117.623 329.824 116.465C331.294 115.307 335.748 115.021 335.748 115.021C335.748 115.021 336.075 116.105 336.437 113.863C336.799 111.621 338.474 110.468 339.708 110.611C340.942 110.754 340.437 109.457 340.655 108.082C340.873 106.708 344.288 104.253 344.288 104.253C344.288 104.253 345.963 101.577 345.963 99.9855C345.963 98.3939 349.452 97.0234 349.74 97.0234C350.028 97.0234 349.958 96.3729 349.958 94.0614C349.958 91.7498 351.703 87.6255 351.703 87.6255L352.781 74.6151L354.674 61.3878C354.674 61.3878 359.847 45.2721 371.113 56.331Z" fill="black"/>
<path opacity="0.1" d="M363.201 100.853C363.201 100.853 363.637 103.182 364.165 106.291C363.293 107.848 362.599 109.088 362.547 109.236C362.403 109.67 351.934 124.705 350.046 125.499C348.157 126.293 344.593 125.876 344.375 125.005C344.279 124.614 343.281 125.304 342.194 126.193C340.842 127.303 339.355 128.73 339.355 128.73C339.355 128.73 337.889 126.969 336.219 124.775C333.689 121.461 330.692 117.164 331.573 116.465C333.043 115.307 337.501 115.021 337.501 115.021C337.501 115.021 337.828 116.105 338.19 113.863C338.552 111.621 340.227 110.468 341.462 110.611C342.696 110.754 342.19 109.453 342.408 108.082C342.626 106.712 346.042 104.249 346.042 104.249C346.042 104.249 347.712 101.577 347.712 99.9854C347.712 98.3938 351.202 97.0234 351.494 97.0234C351.786 97.0234 351.712 96.3729 351.712 94.057C351.712 91.7411 353.457 87.6255 353.457 87.6255L354.534 74.615L356.423 61.3877C356.423 61.3877 361.587 45.2678 372.854 56.3267L373.696 57.9356C373.805 59.0675 373.8 59.7961 373.8 59.7961L356.279 72.3035L363.201 100.853Z" fill="black"/>
<path d="M371.986 56.331L373.805 59.8005C373.805 59.8005 375.693 74.6151 373.805 80.3267C371.916 86.0383 367.336 99.1918 367.336 99.1918C367.336 99.1918 361.81 108.807 361.666 109.24C361.522 109.674 351.049 124.705 349.16 125.503C347.272 126.301 343.708 125.881 343.49 125.005C343.272 124.129 338.474 128.734 338.474 128.734C338.474 128.734 329.227 117.623 330.697 116.465C332.167 115.307 336.62 115.021 336.62 115.021C336.62 115.021 336.947 116.105 337.309 113.863C337.671 111.621 339.346 110.468 340.581 110.611C341.815 110.754 341.309 109.457 341.527 108.082C341.745 106.708 345.16 104.253 345.16 104.253C345.16 104.253 346.835 101.577 346.835 99.9855C346.835 98.3939 350.325 97.0234 350.613 97.0234C350.901 97.0234 350.831 96.3729 350.831 94.0614C350.831 91.7498 352.576 87.6255 352.576 87.6255L353.653 74.6151L355.546 61.3878C355.546 61.3878 360.719 45.2721 371.986 56.331Z" fill="#575988"/>
<path opacity="0.1" d="M339.564 114.414C339.564 114.414 340 115.39 341.963 115.745C343.926 116.101 339.564 114.414 339.564 114.414Z" fill="black"/>
<path opacity="0.1" d="M363.044 56.4004C362.974 56.6172 356.501 63.8901 357.81 65.7853C359.118 67.6805 363.044 56.4004 363.044 56.4004Z" fill="black"/>
<path opacity="0.1" d="M355.703 89.7939C355.703 89.7939 359.411 93.4109 358.682 95.1456C357.954 96.8803 355.703 89.7939 355.703 89.7939Z" fill="black"/>
<path opacity="0.1" d="M356.283 82.9287C356.501 83.2887 364.501 84.2298 364.937 87.2655C365.373 90.3013 356.283 82.9287 356.283 82.9287Z" fill="black"/>
<g opacity="0.1">
<path opacity="0.1" d="M357.094 17.9197C357.094 17.7549 357.134 17.5858 357.16 17.4167C357.323 16.5899 357.394 15.7478 357.37 14.9056C357.335 15.4564 357.239 16.0072 357.16 16.5493C357.073 17.0007 357.051 17.4621 357.094 17.9197Z" fill="black"/>
<path opacity="0.1" d="M331.443 17.0697C331.495 16.7494 331.495 16.4229 331.443 16.1026C331.39 15.7947 331.333 15.4867 331.303 15.1788C331.256 15.7795 331.303 16.3836 331.443 16.9699V17.0697Z" fill="black"/>
<path opacity="0.1" d="M357.483 20.2833C357.295 21.3155 356.514 22.2392 355.917 23.1543C355.268 24.1513 354.808 25.2581 354.56 26.4199C354.485 26.966 354.33 27.498 354.098 27.9985C353.977 28.247 353.783 28.4529 353.541 28.5886C353.3 28.7242 353.022 28.7831 352.746 28.7575C352.748 28.7431 352.748 28.7285 352.746 28.7141C352.722 29.0172 352.722 29.3217 352.746 29.6248C353.022 29.6505 353.3 29.5916 353.541 29.4559C353.783 29.3203 353.977 29.1144 354.098 28.8659C354.33 28.3653 354.485 27.8333 354.56 27.2873C354.808 26.1255 355.268 25.0187 355.917 24.0217C356.641 22.9071 357.661 21.7839 357.513 20.4611C357.531 20.4004 357.491 20.344 357.483 20.2833Z" fill="black"/>
<path opacity="0.1" d="M352.807 26.3938C352.733 25.1882 352.091 24.0953 351.468 23.0588C351.046 22.2221 350.451 21.4832 349.723 20.8904C349.511 20.7681 349.313 20.6226 349.134 20.4567C348.733 20.023 348.776 19.3335 348.698 18.722C348.581 17.9231 348.216 17.1805 347.653 16.5981C347.091 16.0157 346.36 15.6226 345.562 15.4737C345.231 15.3901 344.88 15.4383 344.585 15.6081C344.288 15.8163 344.148 16.2023 343.9 16.4451C343.679 16.59 343.429 16.6839 343.167 16.7199C342.905 16.7559 342.638 16.7332 342.386 16.6533C341.243 16.4278 340.053 16.0115 338.945 16.3801C337.043 17.0046 336.328 19.6197 334.374 20.1054C333.796 20.193 333.213 20.235 332.629 20.2312C332.335 20.2299 332.046 20.2995 331.785 20.434C331.525 20.5684 331.301 20.7637 331.133 21.0031C330.934 20.7928 330.802 20.5288 330.753 20.2442C330.685 20.526 330.684 20.8196 330.75 21.1019C330.816 21.3842 330.947 21.6474 331.133 21.8705C331.301 21.6311 331.525 21.4358 331.785 21.3013C332.046 21.1669 332.335 21.0973 332.629 21.0986C333.213 21.1024 333.796 21.0603 334.374 20.9728C336.319 20.4871 337.043 17.872 338.945 17.2475C340.053 16.8788 341.243 17.2952 342.386 17.5207C342.638 17.6005 342.905 17.6233 343.167 17.5872C343.429 17.5512 343.679 17.4573 343.9 17.3125C344.17 17.0696 344.288 16.6837 344.585 16.4755C344.88 16.3057 345.231 16.2574 345.562 16.3411C346.36 16.4899 347.091 16.8831 347.653 17.4655C348.216 18.0479 348.581 18.7904 348.698 19.5893C348.772 20.1878 348.728 20.86 349.134 21.3241C349.313 21.49 349.511 21.6355 349.723 21.7578C350.451 22.3506 351.046 23.0894 351.468 23.9262C352.074 24.9366 352.689 25.9948 352.776 27.1614C352.804 26.9065 352.814 26.6501 352.807 26.3938Z" fill="black"/>
</g>
<path d="M209.446 63.6776V109.188C209.445 109.284 209.463 109.379 209.499 109.468C209.536 109.556 209.59 109.637 209.658 109.704C209.726 109.772 209.808 109.825 209.897 109.861C209.987 109.897 210.082 109.914 210.179 109.912C222.784 109.522 233.296 99.1615 233.296 86.4329C233.296 73.7043 222.793 63.3393 210.179 62.9533C210.082 62.951 209.986 62.9681 209.896 63.0036C209.807 63.0391 209.725 63.0923 209.657 63.1599C209.588 63.2276 209.534 63.3084 209.498 63.3973C209.462 63.4863 209.444 63.5816 209.446 63.6776Z" fill="#61BEEC"/>
<path d="M177.966 125.828V88.1632C177.922 82.1396 179.863 76.2673 183.493 71.4448C186.926 66.9605 192.269 62.9012 200.347 62.9533C200.456 62.9527 200.564 62.9734 200.665 63.0143C200.765 63.0552 200.857 63.1154 200.934 63.1915C201.012 63.2676 201.073 63.3582 201.115 63.4579C201.158 63.5577 201.18 63.6647 201.18 63.7729V102.544C201.18 102.544 202.489 123.734 178.429 126.241C178.371 126.244 178.313 126.236 178.259 126.217C178.204 126.198 178.154 126.169 178.111 126.131C178.068 126.092 178.033 126.046 178.008 125.994C177.983 125.942 177.969 125.886 177.966 125.828Z" fill="#4064AC"/>
<path opacity="0.1" d="M78.7824 58.7032C86.3707 58.7032 92.5222 52.587 92.5222 45.0422C92.5222 37.4975 86.3707 31.3812 78.7824 31.3812C71.1941 31.3812 65.0426 37.4975 65.0426 45.0422C65.0426 52.587 71.1941 58.7032 78.7824 58.7032Z" fill="#EF5B59"/>
<path opacity="0.1" d="M49.9941 20.9729C54.6916 20.9729 58.4997 17.1867 58.4997 12.5161C58.4997 7.84557 54.6916 4.05933 49.9941 4.05933C45.2966 4.05933 41.4885 7.84557 41.4885 12.5161C41.4885 17.1867 45.2966 20.9729 49.9941 20.9729Z" fill="#EF5B59"/>
<path opacity="0.1" d="M5.50766 36.5855C8.39844 36.5855 10.7419 34.2555 10.7419 31.3813C10.7419 28.5071 8.39844 26.1771 5.50766 26.1771C2.61688 26.1771 0.273438 28.5071 0.273438 31.3813C0.273438 34.2555 2.61688 36.5855 5.50766 36.5855Z" fill="#EF5B59"/>
<path d="M179.053 291.404C178.634 291.974 178.299 292.601 178.058 293.265C177.997 293.425 177.936 293.612 177.875 293.789C177.765 293.738 177.649 293.698 177.53 293.672C177.022 293.544 176.496 293.498 175.973 293.538C175.973 293.338 175.999 293.104 176.004 292.905C176.069 290.619 175.799 287.432 173.605 288.78C171.502 290.082 173.003 292.25 174.359 293.642L174.708 293.98C173.469 294.848 173.234 296.899 173.029 299.028C172.824 301.158 171.005 303.491 169.797 304.814C169.675 304.948 169.566 305.07 169.457 305.182C168.969 304.794 168.403 304.512 167.798 304.358C167.193 304.203 166.561 304.178 165.945 304.285C165.897 304.098 165.845 303.903 165.784 303.695C164.811 300.169 162.783 294.097 160.192 292.796L160.532 292.363C161.631 290.932 162.87 288.806 161.043 288.264C159.215 287.722 159.049 290.108 159.149 291.894C159.149 292.115 159.184 292.328 159.202 292.527C158.837 292.544 158.479 292.635 158.15 292.795C157.821 292.955 157.529 293.179 157.291 293.456L157.008 293.126C155.525 291.391 152.807 288.629 151.983 290.715C151.22 292.658 153.61 295.177 155.294 296.639L155.398 296.73C154.269 301.292 159.202 305.009 161.858 306.635L162.203 306.843C158.539 311.137 156.275 319.182 156.275 319.182L166.538 321.003C166.538 321.003 173.339 315.166 172.466 309.688H172.536C179.336 308.335 180.88 301.127 179.825 296.847C179.864 296.847 179.903 296.817 179.942 296.795C181.18 296.292 182.266 295.477 183.092 294.431C184.993 291.79 181.007 288.824 179.053 291.404Z" fill="#EF5B59"/>
<path opacity="0.1" d="M179.053 291.404C178.634 291.974 178.299 292.601 178.058 293.265C177.997 293.425 177.936 293.612 177.875 293.789C177.765 293.738 177.649 293.698 177.53 293.672C177.022 293.544 176.496 293.498 175.973 293.538C175.973 293.338 175.999 293.104 176.004 292.905C176.069 290.619 175.799 287.432 173.605 288.78C171.502 290.082 173.003 292.25 174.359 293.642L174.708 293.98C173.469 294.848 173.234 296.899 173.029 299.028C172.824 301.158 171.005 303.491 169.797 304.814C169.675 304.948 169.566 305.07 169.457 305.182C168.969 304.794 168.403 304.512 167.798 304.358C167.193 304.203 166.561 304.178 165.945 304.285C165.897 304.098 165.845 303.903 165.784 303.695C164.811 300.169 162.783 294.097 160.192 292.796L160.532 292.363C161.631 290.932 162.87 288.806 161.043 288.264C159.215 287.722 159.049 290.108 159.149 291.894C159.149 292.115 159.184 292.328 159.202 292.527C158.837 292.544 158.479 292.635 158.15 292.795C157.821 292.955 157.529 293.179 157.291 293.456L157.008 293.126C155.525 291.391 152.807 288.629 151.983 290.715C151.22 292.658 153.61 295.177 155.294 296.639L155.398 296.73C154.269 301.292 159.202 305.009 161.858 306.635L162.203 306.843C158.539 311.137 156.275 319.182 156.275 319.182L166.538 321.003C166.538 321.003 173.339 315.166 172.466 309.688H172.536C179.336 308.335 180.88 301.127 179.825 296.847C179.864 296.847 179.903 296.817 179.942 296.795C181.18 296.292 182.266 295.477 183.092 294.431C184.993 291.79 181.007 288.824 179.053 291.404Z" fill="black"/>
<path d="M158.63 294.345L157.431 297.814C157.431 297.814 156.763 297.346 155.922 296.608C154.238 295.147 151.848 292.627 152.611 290.684C153.435 288.598 156.153 291.352 157.636 293.096C158.233 293.807 158.63 294.345 158.63 294.345Z" fill="#EF5B59"/>
<path d="M161.16 292.363C160.795 292.838 160.405 293.294 159.991 293.729C159.889 293.121 159.818 292.509 159.778 291.894C159.677 290.107 159.869 287.735 161.671 288.264C163.472 288.793 162.259 290.923 161.16 292.363Z" fill="#EF5B59"/>
<path d="M176.632 292.905C176.597 294.054 176.483 294.969 176.483 294.969C175.956 294.568 175.456 294.132 174.987 293.664C173.631 292.263 172.13 290.103 174.233 288.802C176.427 287.432 176.697 290.628 176.632 292.905Z" fill="#EF5B59"/>
<path d="M183.72 294.409C182.894 295.455 181.808 296.27 180.57 296.773C180.228 296.923 179.875 297.051 179.515 297.155L178.102 295.181C178.251 294.53 178.447 293.889 178.686 293.265C178.927 292.601 179.262 291.974 179.681 291.404C181.635 288.824 185.622 291.79 183.72 294.409Z" fill="#EF5B59"/>
<path opacity="0.1" d="M157.636 293.117C158.233 293.807 158.63 294.344 158.63 294.344L157.431 297.814C157.431 297.814 156.763 297.346 155.922 296.608C156.11 295.49 156.574 294.437 157.274 293.542C157.392 293.403 157.518 293.252 157.636 293.117Z" fill="black"/>
<path opacity="0.1" d="M161.16 292.363C160.795 292.838 160.405 293.294 159.991 293.729C159.889 293.121 159.818 292.509 159.777 291.894C160.276 291.902 160.76 292.066 161.16 292.363Z" fill="black"/>
<path d="M167.062 306.21L164.074 307.511C164.074 307.511 163.424 307.199 162.486 306.622C159.35 304.701 153.047 299.874 157.274 294.184C161.5 288.494 165.025 298.699 166.412 303.69C166.835 305.187 167.062 306.21 167.062 306.21Z" fill="#EF5B59"/>
<path opacity="0.1" d="M174.987 293.664C175.42 293.218 176.009 292.954 176.632 292.926C176.597 294.076 176.483 294.991 176.483 294.991C175.955 294.582 175.455 294.139 174.987 293.664Z" fill="black"/>
<path opacity="0.1" d="M180.57 296.773C180.228 296.923 179.875 297.051 179.515 297.155L178.102 295.182C178.251 294.53 178.447 293.889 178.686 293.265C179.598 293.798 180.269 295.112 180.57 296.773Z" fill="black"/>
<path d="M173.164 309.666L172.662 309.753C162.661 311.267 169.365 305.898 169.365 305.898C169.365 305.898 169.801 305.464 170.425 304.813C171.633 303.491 173.448 301.171 173.657 299.028C173.971 295.806 174.333 292.783 178.158 293.672C181.914 294.531 182.62 307.78 173.164 309.666Z" fill="#EF5B59"/>
<path d="M172.981 334.425H153.872V339.421H172.981V334.425Z" fill="#D4DFEC"/>
<path d="M175.803 318.188H150.836V335.622H175.803V318.188Z" fill="#D4DFEC"/>
<path opacity="0.1" d="M172.981 334.425H153.872V339.421H172.981V334.425Z" fill="black"/>
<path opacity="0.1" d="M175.803 318.188H150.836V335.622H175.803V318.188Z" fill="black"/>
<path d="M174.237 334.425H155.128V339.421H174.237V334.425Z" fill="#D4DFEC"/>
<path opacity="0.1" d="M166.412 303.695C166.848 305.187 167.062 306.21 167.062 306.21L164.074 307.511C164.074 307.511 163.424 307.199 162.486 306.622C163.655 305.152 164.972 304.037 166.412 303.695Z" fill="black"/>
<path opacity="0.1" d="M173.164 309.667L172.662 309.753C162.661 311.267 169.365 305.898 169.365 305.898C169.365 305.898 169.801 305.464 170.425 304.813C172.292 306.301 173.064 307.975 173.164 309.667Z" fill="black"/>
<path d="M156.886 319.173C156.886 319.173 162.486 299.223 170.342 305.382C178.198 311.54 167.149 320.994 167.149 320.994L156.886 319.173Z" fill="#EF5B59"/>
<path opacity="0.1" d="M159.734 297.94C160.081 297.94 160.362 297.66 160.362 297.315C160.362 296.97 160.081 296.691 159.734 296.691C159.387 296.691 159.106 296.97 159.106 297.315C159.106 297.66 159.387 297.94 159.734 297.94Z" fill="black"/>
<path opacity="0.1" d="M159.682 300.854C160.028 300.854 160.31 300.574 160.31 300.229C160.31 299.885 160.028 299.605 159.682 299.605C159.335 299.605 159.053 299.885 159.053 300.229C159.053 300.574 159.335 300.854 159.682 300.854Z" fill="black"/>
<path opacity="0.1" d="M177.897 298.512C178.244 298.512 178.525 298.233 178.525 297.888C178.525 297.543 178.244 297.263 177.897 297.263C177.55 297.263 177.269 297.543 177.269 297.888C177.269 298.233 177.55 298.512 177.897 298.512Z" fill="black"/>
<path opacity="0.1" d="M163.241 313.453C163.588 313.453 163.869 313.173 163.869 312.828C163.869 312.483 163.588 312.204 163.241 312.204C162.894 312.204 162.613 312.483 162.613 312.828C162.613 313.173 162.894 313.453 163.241 313.453Z" fill="black"/>
<path opacity="0.1" d="M176.588 303.352C176.935 303.352 177.216 303.072 177.216 302.728C177.216 302.383 176.935 302.103 176.588 302.103C176.241 302.103 175.96 302.383 175.96 302.728C175.96 303.072 176.241 303.352 176.588 303.352Z" fill="black"/>
<path opacity="0.1" d="M170.098 309.81C170.445 309.81 170.726 309.53 170.726 309.185C170.726 308.84 170.445 308.561 170.098 308.561C169.751 308.561 169.47 308.84 169.47 309.185C169.47 309.53 169.751 309.81 170.098 309.81Z" fill="black"/>
<path opacity="0.1" d="M161.88 299.189C162.227 299.189 162.508 298.909 162.508 298.564C162.508 298.219 162.227 297.94 161.88 297.94C161.533 297.94 161.252 298.219 161.252 298.564C161.252 298.909 161.533 299.189 161.88 299.189Z" fill="black"/>
<path opacity="0.1" d="M176.169 300.386C176.516 300.386 176.797 300.106 176.797 299.761C176.797 299.416 176.516 299.137 176.169 299.137C175.822 299.137 175.541 299.416 175.541 299.761C175.541 300.106 175.822 300.386 176.169 300.386Z" fill="black"/>
<path opacity="0.1" d="M174.023 305.226C174.37 305.226 174.651 304.946 174.651 304.601C174.651 304.256 174.37 303.977 174.023 303.977C173.676 303.977 173.395 304.256 173.395 304.601C173.395 304.946 173.676 305.226 174.023 305.226Z" fill="black"/>
<path opacity="0.1" d="M167.428 312.984C167.775 312.984 168.056 312.705 168.056 312.36C168.056 312.015 167.775 311.735 167.428 311.735C167.081 311.735 166.8 312.015 166.8 312.36C166.8 312.705 167.081 312.984 167.428 312.984Z" fill="black"/>
<path opacity="0.1" d="M166.067 309.914C166.414 309.914 166.695 309.634 166.695 309.289C166.695 308.944 166.414 308.665 166.067 308.665C165.72 308.665 165.439 308.944 165.439 309.289C165.439 309.634 165.72 309.914 166.067 309.914Z" fill="black"/>
<path opacity="0.1" d="M162.822 302.988C163.169 302.988 163.45 302.708 163.45 302.363C163.45 302.018 163.169 301.739 162.822 301.739C162.475 301.739 162.194 302.018 162.194 302.363C162.194 302.708 162.475 302.988 162.822 302.988Z" fill="black"/>
<path opacity="0.1" d="M174.237 334.425H155.128V336.251H174.237V334.425Z" fill="black"/>
<path d="M177.059 318.188H152.092V335.622H177.059V318.188Z" fill="#D4DFEC"/>
<path opacity="0.1" d="M168.266 315.794C168.613 315.794 168.894 315.515 168.894 315.17C168.894 314.825 168.613 314.545 168.266 314.545C167.919 314.545 167.638 314.825 167.638 315.17C167.638 315.515 167.919 315.794 168.266 315.794Z" fill="black"/>
<path opacity="0.1" d="M164.497 316.575C164.844 316.575 165.125 316.295 165.125 315.951C165.125 315.606 164.844 315.326 164.497 315.326C164.15 315.326 163.869 315.606 163.869 315.951C163.869 316.295 164.15 316.575 164.497 316.575Z" fill="black"/>
</g>
<defs>
<linearGradient id="paint0_linear_7_29" x1="102.624" y1="335.57" x2="102.624" y2="104.305" gradientUnits="userSpaceOnUse">
<stop stop-color="#808080" stop-opacity="0.25"/>
<stop offset="0.54" stop-color="#808080" stop-opacity="0.12"/>
<stop offset="1" stop-color="#808080" stop-opacity="0.1"/>
</linearGradient>
<linearGradient id="paint1_linear_7_29" x1="103481" y1="144113" x2="103481" y2="16073.5" gradientUnits="userSpaceOnUse">
<stop stop-color="#808080" stop-opacity="0.25"/>
<stop offset="0.54" stop-color="#808080" stop-opacity="0.12"/>
<stop offset="1" stop-color="#808080" stop-opacity="0.1"/>
</linearGradient>
<clipPath id="clip0_7_29">
<rect width="472" height="341" fill="white" transform="translate(0.273438)"/>
</clipPath>
</defs>
</svg>
