<svg width="554" height="265" viewBox="0 0 554 265" fill="none" xmlns="http://www.w3.org/2000/svg">
<g clip-path="url(#clip0_7_835)">
<path opacity="0.1" d="M549.064 219.777C546.415 224.905 542.687 229.394 538.138 232.934C537.492 233.453 536.832 233.954 536.162 234.445C535.259 235.08 534.334 235.705 533.388 236.318C526.029 241.004 517.411 244.207 508.998 246.543C506.705 247.179 504.404 247.776 502.095 248.335C500.148 248.809 498.198 249.251 496.248 249.66C495.506 249.823 494.765 249.975 494.024 250.137C493.283 250.299 492.433 250.457 491.649 250.614L490.523 250.828C468.756 254.856 446.704 255.624 424.49 254.613L423.435 254.561L421.749 254.475C417.239 254.24 412.725 253.939 408.205 253.574L406.495 253.436L405.74 253.374C403.206 253.161 400.672 252.927 398.139 252.673C394.801 252.355 391.458 252.004 388.11 251.62L387.678 251.572L387.326 251.529C375.379 250.18 363.402 248.559 351.412 246.896L349.716 246.657L346.671 246.233L344.106 245.876L343.346 245.771C339.298 245.202 335.251 244.639 331.203 244.083L330.548 243.993C322.947 242.949 315.303 241.943 307.683 241.028L306.69 240.909C303.571 240.537 300.453 240.183 297.336 239.846L294.961 239.593L291.802 239.274C283.047 238.401 274.296 237.705 265.564 237.272C261.365 237.062 257.156 236.903 252.937 236.795C249.454 236.715 245.97 236.669 242.486 236.657C237.761 236.634 233.026 236.661 228.282 236.738H227.208C220.524 236.847 213.826 237.038 207.123 237.267L205.916 237.305H205.517C191.265 237.81 177.014 238.482 162.8 238.964L159.327 239.078H158.824C153.883 239.237 148.947 239.359 144.016 239.445H142.71H142.667H141.08L138.876 239.474C136.586 239.496 134.301 239.509 132.021 239.512H129.223C120.852 239.488 112.515 239.302 104.23 238.868L103.309 238.816C87.2089 237.944 71.2897 236.142 55.6556 232.867C54.0372 232.527 52.422 232.171 50.81 231.799C40.0068 229.369 29.3994 226.133 19.0762 222.118C14.2116 220.211 9.31851 218.009 5.61781 214.281C-3.76932 204.748 -0.244396 186.076 11.9693 180.647C21.5227 176.4 32.7151 179.856 42.9906 177.939C43.6219 177.819 44.2454 177.659 44.8575 177.463C46.1638 177.04 47.4347 176.514 48.658 175.89C49.0761 175.68 49.4941 175.456 49.9169 175.222C50.867 174.703 51.8171 174.126 52.7293 173.497C54.2203 172.502 55.6483 171.414 57.0048 170.241C57.6065 169.726 58.1924 169.192 58.7625 168.639C60.7353 166.78 62.4771 164.688 63.9501 162.409C64.4864 161.547 64.9626 160.649 65.3753 159.721C65.5985 159.244 65.7981 158.729 65.9643 158.233C66.2126 157.516 66.4017 156.78 66.5297 156.031C67.1282 152.494 66.1591 149.043 62.7862 146.126C62.4841 145.867 62.1668 145.627 61.8361 145.406C61.1827 144.951 60.4931 144.551 59.7744 144.21C59.4846 144.071 59.1853 143.938 58.8812 143.809C54.5392 141.974 48.9383 141.268 44.2162 139.996C42.7772 139.63 41.3721 139.14 40.0167 138.532C39.1569 138.132 38.3018 137.712 37.4609 137.274L37.2376 137.15C30.0576 133.435 23.7432 128.237 18.7104 121.896C17.4593 120.294 16.3075 118.616 15.2615 116.872C14.9432 116.348 14.6344 115.809 14.3399 115.27C5.99311 100.16 5.13325 80.797 13.8173 65.9389C14.8723 64.1363 16.0467 62.4069 17.3327 60.7622C17.7508 60.2188 18.1831 59.6849 18.6296 59.1606C26.8956 49.3744 38.7721 42.7438 50.7625 37.834C66.8575 31.2463 83.7077 27.0849 100.881 24.344C104.365 23.7878 107.849 23.2889 111.332 22.8472C125.917 20.9786 140.672 19.9871 155.323 19.234C169.026 18.538 182.79 18.0883 196.615 17.885C201.299 17.8214 205.987 17.7944 210.681 17.8039C221.256 17.8039 231.831 18.0089 242.405 18.4188C245.889 18.5523 249.373 18.7112 252.857 18.8955C261.791 19.3595 270.708 19.9951 279.607 20.8022C283.883 21.1899 288.149 21.6174 292.405 22.0845C324.823 25.6405 356.771 31.6705 387.616 41.0468C391.116 42.1082 394.6 43.2204 398.067 44.3835C411.039 48.6688 423.785 53.612 436.257 59.1939C437.435 59.7246 438.61 60.2585 439.782 60.7956C447.57 64.3802 455.247 68.2429 462.813 72.3836C472.798 77.7755 482.415 83.8267 491.601 90.4974C495.187 93.1351 498.67 95.8871 502.053 98.7535C508.032 103.814 513.609 109.335 518.732 115.266C519.188 115.796 519.639 116.33 520.086 116.867C522.404 119.661 524.605 122.554 526.689 125.548C536.855 140.21 543.677 156.98 548.713 174.112C553.155 189.06 556.109 205.844 549.064 219.777Z" fill="#EF5B59"/>
<path opacity="0.1" d="M542.675 168.639H502.091V116.839H520.143C519.696 116.302 519.245 115.768 518.789 115.237H502.11V98.7249C498.734 95.8649 495.25 93.1128 491.658 90.4688V115.256H398.096V60.7622H439.811C438.636 60.2252 437.461 59.6913 436.286 59.1606H398.096V44.3502C394.612 43.1966 391.128 42.0844 387.645 41.0134V59.1272H254.116L253.797 58.8221L292.424 22.0321C288.168 21.5618 283.902 21.1343 279.626 20.7498L252.876 46.2235V18.8622C249.392 18.6779 245.908 18.519 242.424 18.3855V47.9825L210.7 17.7706C206.01 17.7706 201.321 17.7976 196.634 17.8516L239.655 58.8221L239.337 59.1272H111.342V22.8663C107.858 23.308 104.374 23.8069 100.891 24.363V59.1606H18.6296C18.1831 59.6849 17.7508 60.2188 17.3327 60.7622H100.881V115.237H14.3209C14.6154 115.776 14.9242 116.314 15.2425 116.839H100.881V168.639H58.7577C58.1877 169.192 57.6017 169.726 57 170.241H100.881V223.248C104.365 223.747 107.849 224.268 111.332 224.811V170.241H242.415V236.657C245.899 236.657 249.382 236.703 252.866 236.795V170.241H387.635V251.548L388.067 251.596C391.412 251.971 394.755 252.322 398.096 252.649V170.241H491.63V250.59C492.428 250.442 493.226 250.285 494.005 250.113C494.784 249.942 495.487 249.813 496.228 249.637C498.179 249.22 500.129 248.779 502.076 248.311V170.241H542.988C542.884 169.707 542.779 169.173 542.675 168.639ZM242.415 168.639H111.342V116.839H242.415V168.639ZM242.415 115.251H111.342V60.7622H240.557L242.401 62.2209L242.415 115.251ZM387.635 168.639H252.876V116.839H387.635V168.639ZM387.635 115.251H252.876V60.7622H387.635V115.251ZM491.63 168.639H398.096V116.839H491.63V168.639Z" fill="#EF5B59"/>
<path d="M141.456 241.776C141.456 241.829 141.418 241.881 141.403 241.933C141.403 241.881 141.437 241.829 141.46 241.776H141.456Z" fill="#EAECF0"/>
<path d="M143.936 239.493H142.629H142.586H141L138.795 239.522L138.553 237.009L138.33 234.626L137.294 223.753L137.261 223.419V223.272L136.971 220.211L141.408 218.543L141.95 222.981L141.988 223.31V223.348L143.085 232.357L143.422 235.122L143.617 236.728L143.784 238.106V238.153L143.936 239.493Z" fill="#EAECF0"/>
<path d="M159.865 241.771L159.917 241.929H159.565L159.513 241.771H159.865Z" fill="#3A3768"/>
<path d="M228.672 178.969C228.672 179.064 228.672 179.117 228.672 179.117V179.174C228.672 179.174 224.529 190.533 223.18 200.229C223.088 200.864 223.012 201.5 222.952 202.136C222.885 202.808 222.833 203.466 222.805 204.104C222.767 204.853 222.757 205.577 222.776 206.268C222.776 206.426 222.776 206.588 222.776 206.745C222.776 207.064 222.809 207.393 222.828 207.732C222.847 208.07 222.876 208.409 222.904 208.761C222.933 209.114 222.961 209.424 222.995 209.762C224.016 220.249 227.897 235.603 227.897 235.603C227.897 235.603 228.025 236.018 228.192 236.723H227.118C220.434 236.833 213.736 237.024 207.033 237.253L205.826 237.291H205.427C191.175 237.796 176.924 238.468 162.71 238.95L159.237 239.064H158.734C153.793 239.223 148.857 239.345 143.926 239.431H142.62C142.955 238.957 143.34 238.52 143.769 238.13C144.13 237.794 144.519 237.491 144.933 237.224C147.191 235.811 149.65 234.752 152.225 234.083C152.768 233.934 153.33 233.865 153.893 233.878L157.218 233.944H157.731L162.833 234.044L206.596 234.917H206.705L207.014 234.855C207.522 234.728 208.016 234.552 208.491 234.33C209.313 233.982 210.032 233.428 210.578 232.72C211.124 232.011 211.478 231.174 211.607 230.288C211.607 230.14 211.645 229.983 211.655 229.812C211.669 229.58 211.669 229.347 211.655 229.116C211.655 228.954 211.655 228.782 211.617 228.606C211.579 228.429 211.569 228.253 211.536 228.072C210.482 222.156 208.686 203.947 208.686 203.947V204.004C208.686 204.004 208.686 203.227 208.729 201.921C208.729 201.821 208.729 201.711 208.729 201.602V201.32C208.729 201.03 208.762 200.715 208.781 200.367C208.781 200.162 208.809 199.952 208.824 199.733C208.847 199.414 208.876 199.085 208.904 198.742C208.902 198.721 208.902 198.7 208.904 198.68C208.923 198.464 208.942 198.244 208.961 198.022C208.961 198.022 208.961 197.974 208.961 197.95C209.669 190.919 211.897 179.789 218.938 175.666C222.239 173.726 224.424 173.335 225.864 173.716C227.964 174.269 228.491 176.462 228.605 177.887C228.605 177.982 228.605 178.073 228.605 178.163C228.643 178.43 228.665 178.699 228.672 178.969Z" fill="#3A3768"/>
<path opacity="0.1" d="M141.456 241.776C141.456 241.829 141.418 241.881 141.403 241.933C141.403 241.881 141.437 241.829 141.46 241.776H141.456Z" fill="black"/>
<path opacity="0.1" d="M159.865 241.771L159.917 241.929H159.565L159.513 241.771H159.865Z" fill="black"/>
<path opacity="0.1" d="M228.671 178.969C228.671 179.064 228.671 179.117 228.671 179.117C228.671 179.117 225.256 188.484 223.626 197.464C223.512 198.1 223.408 198.715 223.313 199.309C223.265 199.614 223.223 199.919 223.18 200.224C223.088 200.86 223.012 201.495 222.952 202.131C222.885 202.803 222.833 203.461 222.805 204.1C222.767 204.848 222.757 205.573 222.776 206.264C222.776 206.421 222.776 206.583 222.776 206.74C222.776 207.06 222.809 207.389 222.828 207.727C222.847 208.066 222.876 208.409 222.904 208.757C222.933 209.105 222.961 209.419 222.995 209.758C223.028 210.096 223.061 210.42 223.099 210.754C223.251 212.103 223.441 213.519 223.66 214.958C225.147 224.668 227.897 235.546 227.897 235.546C227.897 235.546 228.035 235.985 228.201 236.719H227.128C220.443 236.828 213.745 237.019 207.042 237.248L205.835 237.286H205.436C191.185 237.791 176.933 238.463 162.719 238.945L159.247 239.059H158.743C153.802 239.218 148.867 239.34 143.935 239.426H142.629H142.586C142.932 238.934 143.33 238.482 143.774 238.077C144.134 237.736 144.525 237.429 144.943 237.162C147.202 235.753 149.661 234.694 152.235 234.021C152.778 233.876 153.34 233.808 153.902 233.82L157.228 233.887H157.741L162.857 233.987L206.653 234.855H206.729C206.729 234.855 206.857 234.855 207.071 234.783C207.583 234.656 208.082 234.475 208.558 234.245C209.361 233.898 210.065 233.354 210.602 232.661C211.14 231.968 211.494 231.15 211.631 230.284C211.631 230.136 211.669 229.978 211.679 229.807C211.693 229.575 211.693 229.343 211.679 229.111C211.679 228.949 211.679 228.777 211.641 228.601C211.603 228.424 211.593 228.215 211.56 228.015C210.505 222.099 208.71 203.89 208.71 203.89C208.71 203.89 208.71 203.113 208.752 201.807C208.752 201.707 208.752 201.597 208.752 201.487V201.206C208.752 200.915 208.786 200.601 208.805 200.253C208.805 200.048 208.833 199.838 208.847 199.619C208.871 199.299 208.9 198.971 208.928 198.627C208.926 198.607 208.926 198.586 208.928 198.565C208.947 198.349 208.966 198.13 208.985 197.908C208.985 197.908 208.985 197.86 208.985 197.836C209.071 196.959 209.185 196.015 209.327 195.028C210.315 188.126 212.786 179.112 218.942 175.485C222.158 173.578 224.31 173.177 225.755 173.506C227.978 174.016 228.505 176.314 228.605 177.763C228.605 177.858 228.605 177.949 228.605 178.04C228.648 178.348 228.67 178.658 228.671 178.969Z" fill="black"/>
<path d="M141.456 241.776C141.456 241.829 141.418 241.881 141.403 241.933C141.403 241.881 141.437 241.829 141.46 241.776H141.456Z" fill="#3A3768"/>
<path d="M159.865 241.771L159.917 241.929H159.565L159.513 241.771H159.865Z" fill="#3A3768"/>
<path d="M227.455 178.564C227.455 178.564 221.256 195.562 221.555 205.735C221.854 215.907 226.695 235.022 226.695 235.022C226.695 235.022 226.904 235.694 227.128 236.766C220.443 236.876 213.745 237.067 207.042 237.295L205.835 237.334H205.436C191.185 237.839 176.933 238.511 162.719 238.992L159.247 239.107H158.743C153.802 239.266 148.867 239.388 143.935 239.474H142.629H142.586H141C141.653 238.373 142.545 237.433 143.608 236.723L143.736 236.633C145.998 235.247 148.454 234.211 151.023 233.558C151.567 233.413 152.128 233.346 152.691 233.358L157.08 233.444H157.593L162.881 233.549L205.517 234.402C206.127 234.287 206.72 234.093 207.28 233.825C207.466 233.739 207.647 233.642 207.821 233.534C208.356 233.225 208.837 232.831 209.246 232.367C210.144 231.342 210.743 229.816 210.344 227.6C209.284 221.684 207.493 203.475 207.493 203.475C207.493 203.475 207.189 181.319 217.774 175.098C222.049 172.586 224.453 172.672 225.797 173.668C225.838 173.694 225.876 173.723 225.911 173.754C227.764 175.251 227.455 178.564 227.455 178.564Z" fill="#3A3768"/>
<path d="M56.8623 220.273L56.6913 222.051L55.6556 232.962C54.0373 232.622 52.4221 232.266 50.8101 231.895L52.0215 221.975L52.43 218.605L56.8623 220.273Z" fill="#EAECF0"/>
<path d="M26.4586 216.746L52.3302 161.494L156.544 169.65L166.149 216.746H26.4586Z" fill="#EFC6CD"/>
<path d="M26.4586 221.565V216.746H166.149V223.791L26.4586 221.565Z" fill="#D48A9B"/>
<path d="M65.8504 208.676L128.349 209.953C128.487 209.956 128.624 209.926 128.749 209.865C128.873 209.804 128.981 209.714 129.064 209.602C129.146 209.491 129.2 209.361 129.222 209.223C129.244 209.086 129.233 208.946 129.19 208.814L119.446 182.444L77.3515 181.638L64.9003 207.217C64.8306 207.375 64.8015 207.549 64.8156 207.721C64.8297 207.894 64.8865 208.06 64.9809 208.205C65.0753 208.35 65.2042 208.469 65.3561 208.551C65.5079 208.633 65.6778 208.676 65.8504 208.676Z" fill="#DFE6F5"/>
<path opacity="0.15" d="M65.8504 208.676L128.349 209.953C128.487 209.956 128.624 209.926 128.749 209.865C128.873 209.804 128.981 209.714 129.064 209.602C129.146 209.491 129.2 209.361 129.222 209.223C129.244 209.086 129.233 208.946 129.19 208.814L119.446 182.444L77.3515 181.638L64.9003 207.217C64.8306 207.375 64.8015 207.549 64.8156 207.721C64.8297 207.894 64.8865 208.06 64.9809 208.205C65.0753 208.35 65.2042 208.469 65.3561 208.551C65.5079 208.633 65.6778 208.676 65.8504 208.676Z" fill="black"/>
<path d="M65.3468 207.575L128.491 208.909L119.907 182.821C119.769 182.398 119.503 182.029 119.146 181.764C118.79 181.499 118.36 181.352 117.917 181.343L77.3372 180.571L65.3468 207.575Z" fill="#DFE6F5"/>
<path d="M70.5628 201.668L78.1305 184.961C78.2914 184.608 78.5497 184.31 78.8747 184.1C79.1998 183.891 79.5779 183.779 79.9642 183.779H98.7718C99.3047 183.779 99.8158 183.991 100.193 184.369C100.57 184.747 100.781 185.26 100.781 185.795V203.847C100.781 204.12 100.725 204.39 100.618 204.642C100.511 204.893 100.354 205.119 100.156 205.308C99.9592 205.496 99.726 205.643 99.4709 205.738C99.2158 205.834 98.944 205.876 98.672 205.863L72.292 204.514C71.965 204.498 71.647 204.401 71.3656 204.233C71.0842 204.065 70.848 203.831 70.6775 203.55C70.5071 203.27 70.4075 202.952 70.3875 202.624C70.3675 202.296 70.4277 201.968 70.5628 201.668Z" fill="#4C4C56"/>
<path d="M107.655 199.552L107.978 190.018C107.987 189.637 108.144 189.274 108.416 189.007C108.687 188.74 109.052 188.59 109.432 188.588H114.99C115.332 188.59 115.662 188.712 115.922 188.934C116.183 189.155 116.357 189.462 116.416 189.799L118.05 199.28C118.086 199.489 118.076 199.704 118.021 199.909C117.966 200.113 117.867 200.304 117.731 200.467C117.596 200.629 117.427 200.761 117.236 200.851C117.044 200.942 116.836 200.99 116.625 200.992L109.104 201.058C108.91 201.058 108.717 201.018 108.538 200.941C108.359 200.865 108.198 200.753 108.062 200.613C107.927 200.472 107.822 200.306 107.752 200.124C107.682 199.942 107.649 199.747 107.655 199.552Z" fill="#D1D9EC"/>
<path d="M34.0215 137.546L54.9763 135.791C55.2825 135.751 55.5935 135.811 55.8625 135.963C56.1315 136.116 56.344 136.351 56.468 136.635L76.2826 181.638L65.2233 206.55C65.5701 205.768 65.8266 211.85 63.323 206.578L31.8315 140.658C31.4087 139.776 33.0382 137.67 34.0215 137.546Z" fill="#4C4C56"/>
<path opacity="0.15" d="M34.0215 137.546L54.9763 135.791C55.2825 135.751 55.5935 135.811 55.8625 135.963C56.1315 136.116 56.344 136.351 56.468 136.635L76.2826 181.638L65.2233 206.55C65.5701 205.768 65.8266 211.85 63.323 206.578L31.8315 140.658C31.4087 139.776 33.0382 137.67 34.0215 137.546Z" fill="black"/>
<path d="M34.0215 137.546L56.0404 134.724C56.3466 134.683 56.6576 134.744 56.9266 134.896C57.1957 135.048 57.4081 135.284 57.5321 135.567L77.3515 180.571L65.361 207.575L32.8956 139.591C32.7961 139.385 32.7474 139.158 32.7535 138.929C32.7596 138.7 32.8204 138.476 32.9307 138.276C33.041 138.075 33.1977 137.904 33.3875 137.777C33.5773 137.65 33.7947 137.571 34.0215 137.546Z" fill="#4C4C56"/>
<path d="M39.5179 140.711L55.4371 138.223C55.7554 138.172 56.0813 138.231 56.3617 138.391C56.6421 138.55 56.8604 138.8 56.981 139.1L73.6556 180.027C73.7239 180.194 73.7566 180.374 73.7517 180.555C73.7468 180.735 73.7044 180.913 73.6271 181.076L65.9929 197.083C65.8892 197.305 65.7244 197.494 65.5178 197.626C65.3112 197.758 65.0715 197.828 64.8266 197.828C64.5818 197.828 64.342 197.758 64.1354 197.626C63.9288 197.494 63.764 197.305 63.6603 197.083L38.4396 142.741C38.3435 142.539 38.296 142.318 38.3009 142.094C38.3059 141.87 38.3631 141.651 38.468 141.453C38.5729 141.256 38.7226 141.085 38.9049 140.957C39.0873 140.828 39.2972 140.743 39.5179 140.711Z" fill="#EF5B59"/>
<path d="M209.375 232.929C209.375 232.929 209.047 233.472 208.567 234.359L208.524 234.44C208.097 235.203 207.574 236.204 207.042 237.3L205.835 237.338H205.436C191.185 237.844 176.933 238.516 162.719 238.997L159.247 239.112H158.743C153.802 239.27 148.867 239.393 143.936 239.479H142.629H142.586H141L138.795 239.507C136.506 239.529 134.221 239.542 131.94 239.545H129.223C120.852 239.522 112.515 239.336 104.23 238.902L103.309 238.849C104.938 235.293 107.85 229.464 110.216 227.6C112.045 226.17 125.18 224.582 137.261 223.419L138.534 223.295H138.563L141.936 222.981C146.558 222.557 150.753 222.213 153.745 221.98L154.021 221.956L152.463 216.712L150.206 209.086L150.848 202.679L150.9 202.164H150.829C150.185 202.233 149.535 202.151 148.928 201.926L126.368 201.144H125.959L117.294 200.834C112.648 200.667 109.347 200.543 109.218 200.52C109.082 200.497 108.948 200.46 108.819 200.41C108.617 200.333 108.43 200.22 108.268 200.076C108.079 199.914 107.918 199.721 107.793 199.504H107.698H107.489L106.263 199.585L105.641 199.628C105.617 199.562 105.598 199.495 105.575 199.433C105.518 199.247 105.461 199.071 105.408 198.889H105.081L100.805 198.799H100.729C100.729 198.799 89.6982 199.643 83.9358 197.536C81.8218 196.763 80.4156 195.596 80.5249 193.846C80.5488 193.448 80.6321 193.056 80.7719 192.683C78.9192 189.208 87.969 182.868 94.8668 184.618C96.7306 185.152 98.6945 185.234 100.596 184.856C101.628 184.632 102.6 184.188 103.446 183.555C103.532 183.493 103.608 183.431 103.679 183.369C103.565 183.297 103.446 183.235 103.337 183.178C102.864 182.928 102.357 182.752 101.831 182.654L103.703 182.106H103.731C103.731 182.106 110.382 181.495 114.71 181.252H114.738C116.026 181.186 117.114 181.143 117.76 181.162C120.61 181.243 126.164 179.198 126.401 178.569C126.639 177.939 129.175 178.569 129.175 178.569L131.394 177.701C133.613 176.838 134.881 175.661 134.881 174.793C134.881 173.926 136.862 172.987 136.862 172.987C137.755 171.48 139.508 169.864 141.346 168.434C142.938 167.2 144.591 166.099 145.817 165.331C146.292 162.243 146.926 159.182 147.717 156.16C148.558 153.343 151.166 151.255 152.102 150.578L152.444 150.349C152.181 149.162 151.832 147.996 151.399 146.86C151.367 146.765 151.329 146.669 151.285 146.574C151.19 146.35 151.09 146.131 150.99 145.926L150.843 145.64C150.601 145.687 150.368 145.73 150.111 145.764C149.325 145.879 148.531 145.938 147.736 145.94C144.174 145.953 140.706 144.795 137.861 142.643C135.017 140.491 132.954 137.463 131.988 134.023C131.988 134.023 131.988 134.023 131.988 133.994C131.607 132.597 131.415 131.154 131.418 129.704C131.416 128.313 131.598 126.928 131.959 125.586C132.031 125.3 132.116 125.019 132.206 124.737C132.215 124.705 132.226 124.673 132.24 124.642C132.282 124.513 132.325 124.38 132.373 124.251C131.669 124.358 130.96 124.42 130.249 124.437H129.774C128.418 124.488 127.065 124.262 125.798 123.774C125.491 123.643 125.197 123.484 124.919 123.298C124.904 123.291 124.891 123.281 124.881 123.269C124.52 123.057 124.191 122.796 123.902 122.492C124.431 122.086 124.874 121.578 125.206 120.999C125.538 120.42 125.752 119.78 125.836 119.117C125.964 118.088 125.793 116.939 126.406 116.1C126.72 115.721 127.096 115.399 127.518 115.147C130.045 113.416 132.05 111.042 134.335 108.997C136.62 106.952 139.384 105.184 142.458 105.089C146.582 104.96 150.211 107.839 154.297 108.382C155.551 108.549 156.838 108.492 158.064 108.807C159.437 109.238 160.73 109.895 161.888 110.752C162.934 111.349 163.859 112.138 164.615 113.078C165.139 113.893 165.516 114.795 165.726 115.742C166.256 117.739 166.574 119.785 166.677 121.849C166.786 124.008 166.677 126.182 166.905 128.327C167.066 130.19 167.693 131.982 168.729 133.537H168.791C168.971 133.791 169.168 134.033 169.38 134.261C168.976 134.39 168.572 134.504 168.159 134.605C167.472 134.781 166.775 134.92 166.073 135.019C165.751 135.072 165.426 135.1 165.099 135.1C164.873 135.106 164.646 135.085 164.425 135.038L164.843 135.32L166.002 136.101L166.439 136.392L167.318 136.978C167.517 136.392 167.793 136.235 168.111 136.273C168.757 135.663 169.722 136.983 169.722 136.983C170.287 138.07 171.807 139.152 173.152 139.953C173.942 140.42 174.755 140.846 175.589 141.23C193.341 151.846 192.216 167.729 193.261 168.987C194.306 170.246 194.372 174.803 194.372 174.803C194.372 174.803 196.99 190.29 198.173 191.63C199.356 192.969 198.249 193.436 199.28 194.933C200.311 196.43 200.073 200.434 200.073 200.434C200.073 200.434 200.786 209.867 203.322 211.912C205.598 213.748 208.638 229.187 209.242 232.343L209.375 232.929Z" fill="url(#paint0_linear_7_835)"/>
<path d="M105.323 183.24C105.323 183.24 102.857 187.135 95.8739 185.342C88.8906 183.55 79.6507 190.328 82.2873 193.675C84.9239 197.021 101.926 192.721 101.926 192.721L108.449 191.396L108.021 185.948L105.323 183.24Z" fill="#D38884"/>
<path opacity="0.1" d="M105.323 183.24C105.323 183.24 102.857 187.135 95.8739 185.342C88.8906 183.55 79.6507 190.328 82.2873 193.675C84.9239 197.021 101.926 192.721 101.926 192.721L108.449 191.396L108.021 185.948L105.323 183.24Z" fill="black"/>
<path d="M107.594 183.03L104.568 182.873L102.705 183.416C102.705 183.416 108.606 184.274 106.981 192.297L113.342 191.911L107.594 183.03Z" fill="#A36468"/>
<path opacity="0.1" d="M107.594 183.03L104.568 182.873L102.705 183.416C102.705 183.416 108.606 184.274 106.981 192.297L113.342 191.911L107.594 183.03Z" fill="black"/>
<path d="M147.65 165.088C147.65 165.088 139.346 169.855 137.014 173.816C137.014 173.816 135.076 174.769 135.076 175.608C135.076 176.447 133.831 177.63 131.66 178.469L129.484 179.327C129.484 179.327 127 178.702 126.767 179.327C126.534 179.951 121.104 181.972 118.306 181.896C115.508 181.82 104.568 182.849 104.568 182.849C106.571 183.762 108.207 185.329 109.208 187.296C110.209 189.262 110.516 191.511 110.078 193.675L135.931 192.588L145.707 190.405L151.456 184.642L147.65 165.088Z" fill="#444053"/>
<path opacity="0.1" d="M147.65 165.088C147.65 165.088 139.346 169.855 137.014 173.816C137.014 173.816 135.076 174.769 135.076 175.608C135.076 176.447 133.831 177.63 131.66 178.469L129.484 179.327C129.484 179.327 127 178.702 126.767 179.327C126.534 179.951 121.104 181.972 118.306 181.896C115.508 181.82 104.568 182.849 104.568 182.849C106.571 183.762 108.207 185.329 109.208 187.296C110.209 189.262 110.516 191.511 110.078 193.675L135.931 192.588L145.707 190.405L151.456 184.642L147.65 165.088Z" fill="black"/>
<path d="M109.556 199.552L105.898 199.481L101.622 199.39C101.622 199.39 81.4322 200.949 81.8265 194.471C82.2208 187.993 97.7504 185.719 99.9119 187.578C101.551 188.984 105.342 190.119 107.071 190.581C107.622 190.729 107.959 190.81 107.959 190.81L109.556 199.552Z" fill="#D38884"/>
<path opacity="0.1" d="M109.556 199.552L105.898 199.481C104.439 194.452 106.131 191.682 107.09 190.595C107.641 190.743 107.978 190.824 107.978 190.824L109.556 199.552Z" fill="black"/>
<path d="M112.021 199.828L108.221 200.095L106.416 200.219C103.931 192.898 107.945 190.014 107.945 190.014H109.133L111.076 190.247L112.021 199.828Z" fill="#A36468"/>
<path d="M158.054 151.226L153.551 159.807C153.551 159.807 152.862 151.117 150.857 147.022C150.344 145.973 149.745 145.23 149.047 145.006C147.147 144.405 158.073 132.388 158.073 132.388C158.439 132.464 160.529 133.818 163.09 135.567C165.907 137.474 169.299 139.8 171.579 141.288C175.907 144.057 158.054 151.226 158.054 151.226Z" fill="#D38884"/>
<path d="M152.278 151.388C152.278 151.388 148.658 153.719 147.651 157.147C146.643 160.574 145.708 166.728 145.708 166.728C145.708 166.728 147.342 181.448 148.192 182.149C149.042 182.849 152.278 197.569 152.278 197.569L155.413 195.467L151.299 176.929C151.299 176.929 154.035 153.109 152.278 151.388Z" fill="#444053"/>
<path opacity="0.1" d="M152.278 151.388C152.278 151.388 148.658 153.719 147.651 157.147C146.643 160.574 145.708 166.728 145.708 166.728C145.708 166.728 147.342 181.448 148.192 182.149C149.042 182.849 152.278 197.569 152.278 197.569L155.413 195.467L151.299 176.929C151.299 176.929 154.035 153.109 152.278 151.388Z" fill="black"/>
<path d="M168.03 184.227H149.936L152.867 155.583H168.03V184.227Z" fill="#A36468"/>
<path d="M126.107 241.776H126.326L125.917 241.934L126.107 241.776Z" fill="#67647E"/>
<path d="M160.149 228.73L156.61 230.093L156.135 230.269L143.394 235.184L138.534 237.057L131.921 239.607H129.223C120.852 239.583 112.515 239.398 104.23 238.964C105.836 235.432 108.644 229.778 110.933 227.953C112.719 226.522 125.499 224.978 137.294 223.815C138.767 223.672 140.221 223.534 141.636 223.405L141.974 223.372C146.658 222.943 150.895 222.595 153.85 222.356L154.325 222.318L158.04 222.032L158.43 221.641L158.905 223.681L159.299 225.312L160.149 228.73Z" fill="#67647E"/>
<path opacity="0.1" d="M126.107 241.776H126.326L125.917 241.934L126.107 241.776Z" fill="black"/>
<path opacity="0.1" d="M160.149 228.73L156.61 230.093L156.135 230.269L143.394 235.184L138.534 237.057L131.921 239.607H129.223C120.852 239.583 112.515 239.398 104.23 238.964C105.836 235.432 108.644 229.778 110.933 227.953C112.719 226.522 125.499 224.978 137.294 223.815C138.767 223.672 140.221 223.534 141.636 223.405L141.974 223.372C146.658 222.943 150.895 222.595 153.85 222.356L154.325 222.318L158.04 222.032L158.43 221.641L158.905 223.681L159.299 225.312L160.149 228.73Z" fill="black"/>
<path d="M126.107 241.776H126.326L125.917 241.934L126.107 241.776Z" fill="#67647E"/>
<path d="M141.456 241.776C141.456 241.829 141.418 241.881 141.403 241.933C141.403 241.881 141.437 241.829 141.46 241.776H141.456Z" fill="#67647E"/>
<path d="M159.917 241.929H159.565L159.513 241.771H159.865L159.917 241.929Z" fill="#67647E"/>
<path d="M163.175 223.748L162.881 233.558V234.087V234.14L162.734 238.997L159.261 239.112H158.757C153.817 239.271 148.881 239.393 143.95 239.479H142.643H142.601H141.014L138.81 239.507C136.52 239.529 134.235 239.542 131.955 239.545H129.223C131.693 238.01 134.89 236.318 138.33 234.626C139.874 233.863 141.475 233.105 143.08 232.357C147.356 230.365 151.684 228.482 155.213 226.98L155.665 226.789C157.033 226.208 158.273 225.688 159.332 225.25C161.622 224.296 163.076 223.724 163.175 223.686V223.748Z" fill="#67647E"/>
<path opacity="0.1" d="M131.446 183.431C132.335 185.29 133.252 187.187 134.719 188.636C134.952 188.865 135.356 189.075 135.565 188.822C135.631 188.717 135.662 188.593 135.655 188.469C135.61 187.593 135.313 186.749 134.8 186.038C134.325 185.304 133.765 184.637 133.342 183.874C132.919 183.111 132.434 181.643 131.484 181.443C130.263 181.186 131.176 182.868 131.446 183.431Z" fill="black"/>
<path opacity="0.1" d="M163.071 135.553C163.004 135.791 162.933 136.03 162.857 136.259C161.98 138.954 160.408 141.368 158.301 143.256C156.193 145.144 153.625 146.438 150.857 147.008C150.344 145.959 149.745 145.215 149.047 144.991C147.147 144.391 158.073 132.374 158.073 132.374C158.42 132.45 160.51 133.828 163.071 135.553Z" fill="black"/>
<path d="M163.641 130.972C163.641 134.146 162.703 137.248 160.946 139.886C159.189 142.525 156.692 144.581 153.77 145.796C150.848 147.01 147.633 147.328 144.531 146.709C141.429 146.09 138.58 144.562 136.344 142.318C134.107 140.074 132.584 137.215 131.967 134.102C131.35 130.99 131.667 127.764 132.877 124.832C134.088 121.9 136.137 119.394 138.767 117.631C141.396 115.868 144.488 114.927 147.65 114.927C149.752 114.923 151.833 115.335 153.775 116.14C155.717 116.944 157.481 118.126 158.967 119.617C160.453 121.108 161.631 122.878 162.433 124.827C163.235 126.776 163.645 128.864 163.641 130.972Z" fill="#D38884"/>
<path d="M153.783 154.806C153.783 154.806 150.458 158.858 150.99 161.508H155.023L157.973 158.172L153.783 154.806Z" fill="#67647E"/>
<path opacity="0.1" d="M165.612 137.698L152.928 155.197C152.928 155.197 156.187 159.873 157.741 160.107C159.294 160.34 168.154 139.409 168.154 139.409L165.612 137.698Z" fill="black"/>
<path d="M165.774 137.384L153.085 154.906C153.085 154.906 156.344 159.578 157.898 159.811C159.451 160.045 168.311 139.119 168.311 139.119L165.774 137.384Z" fill="#A36468"/>
<path d="M151.456 159.797C151.456 159.797 150.833 169.607 150.211 171.557C149.589 173.506 150.211 191.415 150.211 191.415L156.035 189.003L155.023 161.508L151.456 159.797Z" fill="#67647E"/>
<path opacity="0.1" d="M159.865 241.771L159.917 241.929H159.565L159.513 241.771H159.865Z" fill="black"/>
<path opacity="0.1" d="M207.579 233.325C207.579 233.325 207.47 233.506 207.289 233.801C207.109 234.097 206.914 234.464 206.662 234.931C206.649 234.949 206.638 234.968 206.629 234.988C206.277 235.641 205.859 236.442 205.437 237.314C191.185 237.82 176.933 238.492 162.719 238.973L159.247 239.088H158.743L157.251 234.035V233.983L157.095 233.449L156.145 230.274L155.194 227.047L154.211 223.605L153.85 222.356L153.755 222.042L152.206 216.751L150.107 209.567L150.786 202.712L150.833 202.193L151.446 196.053L151.532 194.232L151.579 193.279V193.007L151.684 190.795L151.997 184.217L152.159 180.852L152.187 180.342L152.51 173.587L153.427 170.827L153.902 169.455L154.957 166.266L155.185 165.479C155.517 164.283 156.187 161.918 156.814 159.644L156.871 159.449L156.914 159.301L157.361 157.685L157.917 155.612C158.126 154.816 158.263 154.248 158.297 154.053C158.349 153.715 159.247 152.218 160.425 150.24C162.8 146.297 166.373 140.496 166.781 138.551C166.783 138.536 166.783 138.52 166.781 138.504C166.806 138.385 166.839 138.269 166.881 138.156C167.076 137.574 167.356 137.417 167.65 137.455C167.785 137.477 167.913 137.527 168.026 137.603C168.312 137.796 168.563 138.038 168.767 138.318C169.323 139.39 170.81 140.463 172.125 141.259L172.382 141.407L172.534 141.497C173.627 142.122 174.51 142.522 174.51 142.522C191.897 153.038 190.814 168.773 191.821 170.017C192.828 171.261 192.909 175.785 192.909 175.785C192.909 175.785 195.47 191.129 196.634 192.469C197.798 193.808 196.714 194.261 197.722 195.743C198.729 197.226 198.496 201.144 198.496 201.144C198.496 201.144 199.194 210.487 201.679 212.513C204.163 214.539 207.579 233.325 207.579 233.325Z" fill="black"/>
<path d="M208.044 233.172L207.835 233.534C207.669 233.83 207.403 234.297 207.085 234.883L207.052 234.95C206.691 235.622 206.263 236.437 205.84 237.334H205.441C191.189 237.839 176.938 238.511 162.724 238.992L159.251 239.107L157.764 234.035V233.982L157.608 233.449L156.624 230.112L155.674 226.87L154.724 223.634L154.349 222.337L152.724 216.77L150.577 209.434L151.171 203.47L151.251 202.674L151.907 195.901L152.159 190.619L152.468 184.236L152.548 182.563L152.639 180.628L152.677 179.813L152.985 173.435L153.902 170.68L154.296 169.493L155.218 166.704L155.413 166.113C155.413 166.113 156.301 162.981 157.161 159.878C157.194 159.764 157.228 159.649 157.256 159.535C157.332 159.268 157.403 159.001 157.479 158.739C157.555 158.472 157.627 158.21 157.693 157.947C157.935 157.08 158.168 156.27 158.33 155.602C158.563 154.73 158.719 154.096 158.753 153.891C158.805 153.553 159.703 152.013 160.924 150.011C163.171 146.283 166.448 140.954 167.142 138.742C167.18 138.628 167.211 138.512 167.237 138.394C167.279 138.043 167.423 137.711 167.65 137.441C168.287 136.826 169.232 138.146 169.232 138.146C169.788 139.219 171.275 140.296 172.591 141.087C173.36 141.551 174.153 141.972 174.966 142.351C192.353 152.866 191.27 168.601 192.277 169.85C193.284 171.099 193.365 175.613 193.365 175.613C193.365 175.613 195.926 190.957 197.09 192.297C198.254 193.636 197.17 194.089 198.178 195.567C199.185 197.045 198.952 201.02 198.952 201.02C198.952 201.02 199.65 210.368 202.135 212.394C204.619 214.42 208.044 233.172 208.044 233.172Z" fill="#444053"/>
<path opacity="0.1" d="M172.591 141.392C170.886 143.881 168.106 148.257 167.365 151.403C167.365 151.403 164.648 154.21 163.636 154.053C162.624 153.896 164.586 156.155 164.586 156.155L153.912 170.999L155.427 166.437C155.427 166.437 158.61 155.221 158.753 154.21C158.895 153.2 166.624 141.621 167.237 138.709C167.712 136.378 169.232 138.475 169.232 138.475C169.783 139.524 171.27 140.606 172.591 141.392Z" fill="black"/>
<path d="M172.591 141.083C170.886 143.566 168.106 147.947 167.365 151.069C167.365 151.069 164.648 153.872 163.636 153.719C162.624 153.567 164.586 155.821 164.586 155.821L153.912 170.665L155.427 166.103C155.427 166.103 158.61 154.887 158.753 153.872C158.895 152.857 166.624 141.288 167.237 138.375C167.712 136.039 169.232 138.141 169.232 138.141C169.783 139.214 171.27 140.287 172.591 141.083Z" fill="#444053"/>
<path opacity="0.1" d="M186.928 171.838C187.009 175.241 182.04 179.889 181.807 180.161C181.574 180.432 166.358 193.031 166.358 193.031L155.432 201.44C154.2 202.459 152.728 203.142 151.156 203.423L151.902 195.901L152.639 180.647C154.344 178.74 155.997 176.738 156.035 176.099C156.111 174.779 158.886 173.373 158.886 173.373C158.886 173.373 160.829 171.738 160.515 170.804C160.201 169.869 161.546 165.393 161.546 165.393C162.244 152.695 175.285 151.45 175.285 151.45C175.285 151.45 181.574 153.943 185.997 156.589C190.42 159.235 186.852 168.439 186.928 171.838Z" fill="black"/>
<path opacity="0.1" d="M112.021 199.828L108.221 200.095C106.615 197.355 108.824 190.014 108.824 190.014H109.133L111.076 190.247L112.021 199.828Z" fill="black"/>
<path d="M175.285 150.678C175.285 150.678 162.244 151.927 161.546 164.621C161.546 164.621 160.225 169.064 160.534 169.998C160.843 170.932 158.905 172.567 158.905 172.567C158.905 172.567 156.111 173.969 156.054 175.294C155.997 176.619 148.928 183.845 148.928 183.845C148.928 183.845 145.983 187.211 139.152 187.564C132.32 187.916 129.137 190.014 129.137 190.014C129.137 190.014 125.812 187.678 123.389 188.379C120.966 189.079 109.185 190.014 109.185 190.014C109.185 190.014 106.054 200.424 109.959 201.077C110.434 201.154 148.867 202.479 148.867 202.479C148.867 202.479 151.494 203.723 155.451 200.687C159.408 197.65 166.377 192.273 166.377 192.273C166.377 192.273 181.579 179.655 181.826 179.403C182.073 179.15 187.052 174.479 186.947 171.08C186.843 167.681 190.444 158.486 185.997 155.826C181.551 153.166 175.285 150.678 175.285 150.678Z" fill="#444053"/>
<path opacity="0.1" d="M163.641 130.972C163.643 132.661 163.378 134.339 162.857 135.944C162.641 135.687 162.444 135.415 162.268 135.129C161.527 133.985 160.784 132.841 160.04 131.697C159.462 130.667 158.693 129.758 157.774 129.018C156.824 128.341 155.475 128.064 154.449 128.665C153.546 129.199 153.104 130.291 153.023 131.339C152.996 132.392 153.023 133.445 153.104 134.495C153.142 134.897 153.04 135.3 152.814 135.634C152.477 135.937 152.041 136.107 151.589 136.111L150.164 136.306C150.035 136.352 149.898 136.371 149.762 136.362C149.626 136.354 149.493 136.318 149.371 136.257C149.248 136.197 149.14 136.112 149.051 136.008C148.962 135.904 148.894 135.784 148.852 135.653C147.67 133.503 146.852 130.834 144.634 129.8C143.266 129.161 141.461 129.204 140.582 127.974C139.983 127.135 140.064 125.996 140.24 124.976C140.433 123.825 140.711 122.691 141.071 121.582C141.323 120.8 141.883 119.241 140.639 119.084C139.793 118.974 138.624 119.875 138.197 120.514C137.769 121.153 137.665 122.006 137.361 122.735C136.778 123.99 135.73 124.967 134.439 125.457C133.793 125.723 133.117 125.908 132.425 126.005C133.593 122.364 136.019 119.262 139.266 117.258C142.513 115.253 146.366 114.478 150.132 115.073C153.897 115.668 157.327 117.593 159.803 120.501C162.28 123.409 163.639 127.109 163.636 130.934L163.641 130.972Z" fill="black"/>
<path d="M138.202 120.109C137.769 120.771 137.67 121.596 137.366 122.325C136.784 123.579 135.737 124.556 134.449 125.047C133.168 125.528 131.811 125.771 130.444 125.762C128.23 125.829 125.76 125.49 124.335 123.789C124.854 123.385 125.29 122.883 125.616 122.31C125.942 121.738 126.152 121.106 126.235 120.452C126.358 119.432 126.192 118.293 126.796 117.458C127.103 117.093 127.469 116.782 127.879 116.538C130.358 114.822 132.316 112.468 134.558 110.446C136.8 108.425 139.503 106.666 142.515 106.571C146.548 106.447 150.116 109.298 154.107 109.836C155.332 110.003 156.596 109.946 157.793 110.256C159.14 110.676 160.407 111.32 161.541 112.162C162.567 112.759 163.474 113.541 164.216 114.47C164.728 115.28 165.096 116.174 165.304 117.11C165.829 119.088 166.147 121.116 166.254 123.159C166.363 125.295 166.254 127.45 166.482 129.576C166.71 131.702 167.384 133.866 168.833 135.439C167.776 135.774 166.695 136.024 165.598 136.187C164.913 136.35 164.193 136.294 163.541 136.025C163.013 135.688 162.581 135.22 162.287 134.667L160.059 131.234C159.481 130.205 158.712 129.295 157.793 128.555C156.843 127.879 155.494 127.602 154.468 128.203C153.565 128.737 153.128 129.828 153.042 130.877C153.015 131.929 153.042 132.983 153.123 134.033C153.161 134.435 153.059 134.837 152.833 135.172C152.495 135.476 152.057 135.645 151.603 135.648L150.178 135.844C150.049 135.889 149.913 135.908 149.776 135.9C149.64 135.892 149.507 135.856 149.385 135.795C149.263 135.734 149.154 135.649 149.065 135.546C148.976 135.442 148.908 135.321 148.867 135.191C147.684 133.036 146.867 130.372 144.648 129.337C143.28 128.698 141.475 128.741 140.596 127.512C139.997 126.673 140.078 125.533 140.254 124.513C140.447 123.363 140.725 122.229 141.085 121.119C141.337 120.338 141.898 118.779 140.653 118.617C139.798 118.526 138.629 119.427 138.202 120.109Z" fill="#444053"/>
<path opacity="0.1" d="M174.372 157.8C175.574 157.633 176.838 157.523 177.964 157.986C175.033 156.78 170.263 157.242 167.593 158.901C167.836 159.459 173.441 157.928 174.372 157.8Z" fill="black"/>
<path opacity="0.1" d="M175.774 161.708C178.695 161.904 181.712 162.314 184.482 161.361C182.163 160.56 179.612 161.065 177.171 160.822C175.223 160.626 173.242 159.95 171.342 160.445C170.548 160.65 167.627 161.999 167.826 162.986C170.321 161.878 173.059 161.438 175.774 161.708Z" fill="black"/>
<path opacity="0.1" d="M168.035 168.115C168.647 168.05 169.265 168.115 169.85 168.306C172.041 168.823 174.287 169.071 176.539 169.045C178.258 169.045 180.111 168.782 181.365 167.615L168.035 168.115Z" fill="black"/>
<path opacity="0.1" d="M158.624 183.03C160.667 183.972 162.914 184.381 165.156 184.222C167.39 184.057 169.596 183.631 171.731 182.954C172.681 182.673 173.717 182.32 174.273 181.491L158.624 183.03Z" fill="black"/>
<path opacity="0.1" d="M179.655 185.128C184.1 187.678 189.05 189.216 194.154 189.632C191.579 188.596 188.985 187.616 186.372 186.691C183.7 185.752 180.961 185.015 178.178 184.489C178.707 184.604 179.209 184.821 179.655 185.128Z" fill="black"/>
<path opacity="0.1" d="M186.833 182.396C187.726 182.546 188.633 182.595 189.536 182.544C190.011 182.544 190.577 182.477 190.857 182.067C188.819 182.153 186.809 181.629 184.819 181.176C184.254 181.043 183.237 180.728 182.762 181.066C183.665 181.715 185.693 182.168 186.833 182.396Z" fill="black"/>
<path opacity="0.1" d="M199.085 224.978C200.154 226.818 201.237 228.677 202.714 230.222C203.568 231.064 204.478 231.847 205.436 232.567C203.674 228.057 201.883 223.51 199.061 219.568C198.349 218.576 197.284 217.156 195.988 216.975C195.617 218.076 196.553 220.025 197.004 221.06C197.624 222.404 198.318 223.712 199.085 224.978Z" fill="black"/>
<path opacity="0.1" d="M147.147 191.258C147.066 192.02 147.004 192.864 147.446 193.489C147.665 193.797 147.984 194.018 148.349 194.113C148.121 194.056 147.874 191.815 147.817 191.51C147.712 190.886 147.817 189.718 147.375 189.256C147.261 189.914 147.218 190.59 147.147 191.258Z" fill="black"/>
<path opacity="0.1" d="M149.617 190.381C149.774 191.052 150.066 191.685 150.474 192.239C150.882 192.794 151.399 193.26 151.992 193.608C151.161 192.578 150.89 191.224 150.168 190.095C149.935 189.732 149.665 189.213 149.218 189.141C149.331 189.561 149.464 189.974 149.617 190.381Z" fill="black"/>
<path opacity="0.1" d="M147.527 176.652C146.826 177.071 146.047 177.339 145.237 177.442C144.428 177.545 143.607 177.479 142.824 177.248C142.468 177.143 141.636 176.772 141.836 176.247C142.035 175.723 143 176.085 143.394 176.133L145.46 176.395C145.84 176.443 147.218 176.833 147.527 176.652Z" fill="black"/>
<path opacity="0.1" d="M140.534 180.046C141.508 179.922 142.382 180.599 143.294 180.966C144.304 181.304 145.367 181.446 146.43 181.386C146.962 181.386 147.565 181.343 147.893 180.909C145.418 180.342 143.104 179.717 140.534 180.046Z" fill="black"/>
<path d="M152.278 151.384H152.434L153.598 155.583L152.278 156.994V151.384Z" fill="#A36468"/>
<g opacity="0.1">
<path opacity="0.1" d="M126.539 118.088C126.395 118.769 126.323 119.464 126.325 120.161C126.384 119.942 126.427 119.719 126.454 119.494C126.511 119.036 126.506 118.555 126.539 118.088Z" fill="black"/>
<path opacity="0.1" d="M140.71 118.631C140.825 118.638 140.938 118.668 141.04 118.721C141.143 118.774 141.234 118.847 141.307 118.937C141.381 119.026 141.434 119.13 141.466 119.241C141.497 119.353 141.505 119.47 141.489 119.584C141.712 118.793 141.836 117.821 140.867 117.678C140.021 117.573 138.852 118.474 138.425 119.132C137.997 119.789 137.893 120.624 137.589 121.353C137.008 122.608 135.961 123.584 134.672 124.075C133.391 124.556 132.034 124.798 130.667 124.79C128.653 124.852 126.425 124.57 124.966 123.236C124.792 123.422 124.603 123.594 124.401 123.751C125.826 125.452 128.297 125.791 130.515 125.724C131.881 125.732 133.236 125.49 134.515 125.009C135.805 124.518 136.853 123.541 137.437 122.287C137.741 121.558 137.836 120.733 138.268 120.071C138.7 119.408 139.864 118.526 140.71 118.631Z" fill="black"/>
<path opacity="0.1" d="M165.802 135.248C165.117 135.411 164.397 135.355 163.745 135.086C163.219 134.748 162.787 134.28 162.491 133.727C161.75 132.583 161.008 131.439 160.263 130.295C159.688 129.265 158.92 128.355 158.002 127.616C157.052 126.935 155.698 126.663 154.677 127.264C153.769 127.798 153.332 128.889 153.228 129.938C153.228 129.981 153.228 130.024 153.228 130.067C153.4 129.297 153.865 128.627 154.525 128.198C155.536 127.597 156.9 127.874 157.85 128.551C158.767 129.292 159.536 130.201 160.116 131.23C160.857 132.374 161.6 133.518 162.344 134.662C162.637 135.217 163.069 135.685 163.598 136.02C164.248 136.289 164.966 136.346 165.65 136.182C166.748 136.019 167.832 135.769 168.89 135.434C168.681 135.207 168.488 134.967 168.311 134.714C167.487 134.945 166.649 135.123 165.802 135.248Z" fill="black"/>
<path opacity="0.1" d="M153.028 134.233C152.689 134.533 152.254 134.702 151.802 134.709L150.377 134.905C150.249 134.95 150.112 134.969 149.976 134.961C149.84 134.953 149.707 134.917 149.584 134.856C149.462 134.795 149.353 134.71 149.264 134.606C149.175 134.503 149.108 134.382 149.066 134.252C147.883 132.097 147.066 129.433 144.848 128.398C143.479 127.759 141.679 127.802 140.8 126.572C140.354 125.822 140.203 124.931 140.377 124.075C140.354 124.222 140.32 124.365 140.297 124.508C140.126 125.529 140.04 126.668 140.643 127.507C141.522 128.737 143.327 128.694 144.691 129.332C146.914 130.367 147.731 133.031 148.914 135.186C149.022 135.457 149.213 135.686 149.46 135.839C149.707 135.922 149.972 135.933 150.225 135.872L151.65 135.677C152.103 135.673 152.539 135.503 152.876 135.2C153.104 134.867 153.206 134.463 153.166 134.061C153.124 134.122 153.078 134.179 153.028 134.233Z" fill="black"/>
</g>
<path d="M349.65 246.634L346.604 246.209V201.101L347.227 201.292L349.127 201.878V203.38V204.509V206.221L349.151 208.18L349.194 212.213V212.618V213.156V214.3V214.992V216.665V217.713L349.422 238.025V238.568L349.502 245.718V245.828L349.65 246.634Z" fill="#EAECF0"/>
<path d="M351.36 246.872L349.664 246.634V245.818V245.709L349.583 238.559V238.015L349.355 217.704V216.655V214.982V214.291V213.147V212.608V212.203L349.312 208.17L349.289 206.211V204.5V203.37V201.869H351.118V203.528V204.662V205.968V207.698L351.156 212.055V213.009V214.005V214.701V215.554V216.665L351.331 237.982V238.53L351.388 245.618V245.733L351.36 246.872Z" fill="#D3DAE1"/>
<path d="M536.157 195.51V234.445C535.255 235.08 534.33 235.705 533.383 236.318L533.345 203.904V200.462L536.157 195.51Z" fill="#EAECF0"/>
<path d="M538.133 194.947V232.939C537.487 233.458 536.827 233.959 536.157 234.45V195.51L538.133 194.947Z" fill="#D3DAE1"/>
<path d="M494.02 250.123C492.851 250.361 491.678 250.6 490.504 250.805L490.461 215.573V214.048L493.849 212.618V215.85L494.02 250.123Z" fill="#EAECF0"/>
<path d="M496.252 211.502V249.637C495.511 249.799 494.77 249.951 494.029 250.113L493.872 215.854V212.623L494.096 212.518L496.252 211.502Z" fill="#D3DAE1"/>
<path d="M294.899 239.569L291.74 239.25L291.336 199.523V198.389V197.631H294.438V198.656V199.79L294.899 239.569Z" fill="#EAECF0"/>
<path d="M297.251 239.822L294.875 239.569L294.4 199.79V198.656V197.631H296.799V198.866V200L297.251 239.822Z" fill="#D3DAE1"/>
<path opacity="0.1" d="M494.072 212.522L496.243 211.498V216.307L494.129 217.017L494.072 212.522Z" fill="black"/>
<path opacity="0.1" d="M538.129 194.938V202.298L536.157 202.96L533.34 203.899L533.335 200.458L536.157 195.505L538.129 194.938Z" fill="black"/>
<path d="M538.129 180.79V201.168L494.129 215.883L493.844 194.089L538.129 180.79Z" fill="#D48A9B"/>
<path d="M290.752 179.374L348.576 168.334L538.129 180.79L493.844 194.089L290.752 179.374Z" fill="#EFC6CD"/>
<path opacity="0.1" d="M296.819 197.631L296.838 199.995L294.443 199.786L291.332 199.519L291.317 197.631H296.819Z" fill="black"/>
<path opacity="0.1" d="M350.999 204.667L349.17 204.505L346.604 204.285V201.101L349.141 201.873H350.975L350.999 204.667Z" fill="black"/>
<path d="M290.752 179.374V198.336L494.129 215.883L493.844 194.089L290.752 179.374Z" fill="#D48A9B"/>
<path d="M452.006 201.921H425.44V192.249L452.006 194.127V201.921Z" fill="#D48A9B"/>
<path opacity="0.1" d="M452.006 201.921H425.44V192.249L452.006 194.127V201.921Z" fill="black"/>
<path opacity="0.1" d="M389.759 190.128V205.41L491.73 213.195V196.921L451.958 194.657L448.005 198.193L431.787 197.064L426.006 192.817L389.759 190.128Z" fill="black"/>
<path d="M389.193 189.561V204.848L491.164 212.627V196.354L451.393 194.089L447.445 197.631L431.222 196.497L425.44 192.249L389.193 189.561Z" fill="white"/>
<path d="M326.291 185.457L350.41 187.158L350.129 194.847H334.381L323.849 190.695L326.291 185.457Z" fill="#D48A9B"/>
<path opacity="0.1" d="M326.291 185.457L350.41 187.158L350.129 194.847H334.381L323.849 190.695L326.291 185.457Z" fill="black"/>
<path opacity="0.1" d="M294.139 183.335V197.064L386.657 204.424V189.847L350.975 187.721L347.165 190.552L332.78 189.704L326.856 186.024L294.139 183.335Z" fill="black"/>
<path d="M293.574 182.768V196.496L386.091 203.856V189.28L350.41 187.158L346.604 189.985L332.215 189.137L326.291 185.457L293.574 182.768Z" fill="white"/>
<path opacity="0.1" d="M491.739 182.821L504.708 183.674L483.221 190.128L472.276 189.337L491.739 182.821Z" fill="black"/>
<path d="M491.739 182.258L504.708 183.107L483.221 189.561L472.276 188.77L491.739 182.258Z" fill="white"/>
<path d="M490.191 183.722C490.704 183.498 491.25 183.912 491.796 184.017C492.105 184.079 492.428 184.017 492.746 184.079C493.383 184.165 494.01 184.589 494.618 184.375L490.191 183.722Z" fill="#D3DAE1"/>
<path d="M489.521 184.108C490.029 183.888 490.575 184.303 491.122 184.408C491.435 184.465 491.758 184.408 492.072 184.465C492.704 184.551 493.336 184.98 493.944 184.765L489.521 184.108Z" fill="#D3DAE1"/>
<path d="M487.981 184.889C488.49 184.67 489.036 185.08 489.582 185.185C489.896 185.247 490.214 185.185 490.532 185.247C491.169 185.333 491.801 185.762 492.404 185.542L487.981 184.889Z" fill="#D3DAE1"/>
<path opacity="0.1" d="M404.238 175.68L433.155 177.582L426.994 186.462L395.203 183.054L404.238 175.68Z" fill="black"/>
<path d="M403.673 175.113L432.59 177.01L426.428 185.895L394.633 182.487L403.673 175.113Z" fill="#3A3768"/>
<path d="M404.946 175.766L430.167 177.315L424.794 184.551L397.065 181.772L404.946 175.766Z" fill="#D5E1F4"/>
<path d="M388.034 248.335C388.034 248.469 388.034 248.607 388.01 248.74C387.987 248.874 388.01 248.979 387.972 249.098C387.871 249.938 387.639 250.757 387.284 251.524C375.336 250.175 363.36 248.555 351.369 246.891L349.673 246.653L346.628 246.228L344.063 245.871C341.255 245.8 338.455 245.537 335.683 245.084C333.936 244.825 332.207 244.459 330.505 243.988C322.904 242.944 315.26 241.938 307.64 241.023L306.647 240.904C306.828 240.093 306.98 239.603 306.98 239.603C306.98 239.603 308.614 233.158 309.973 225.955C310.272 224.392 310.557 222.8 310.804 221.222C311.004 219.959 311.184 218.71 311.336 217.508C311.422 216.846 311.493 216.198 311.555 215.564C311.588 215.249 311.616 214.934 311.64 214.61C311.664 214.286 311.692 213.933 311.716 213.604C311.74 213.276 311.75 212.985 311.764 212.684V212.236C311.764 211.593 311.764 210.921 311.74 210.23C311.5 206.787 310.959 203.372 310.125 200.024C309.992 199.452 309.854 198.88 309.712 198.322C309.669 198.141 309.621 197.965 309.574 197.788C308.039 191.825 306.248 186.953 306.248 186.953C306.246 186.926 306.246 186.899 306.248 186.872C306.25 186.853 306.25 186.834 306.248 186.815C306.25 186.775 306.25 186.736 306.248 186.696C306.248 186.543 306.248 186.31 306.248 186.029C306.248 185.971 306.248 185.909 306.248 185.847C306.283 185.347 306.369 184.852 306.505 184.37C306.557 184.198 306.617 184.03 306.685 183.865C306.855 183.385 307.138 182.954 307.511 182.609C307.883 182.263 308.333 182.014 308.823 181.882C310.168 181.534 312.201 181.882 315.27 183.707C315.769 183.997 316.246 184.325 316.695 184.689C316.923 184.87 317.17 185.061 317.36 185.266C320.875 188.55 322.747 193.97 323.745 198.918C323.783 199.094 323.816 199.271 323.849 199.447C323.968 200.057 324.068 200.653 324.158 201.239C324.32 202.269 324.448 203.261 324.543 204.181C324.543 204.428 324.595 204.657 324.619 204.91C324.643 205.163 324.666 205.387 324.681 205.615C324.742 206.359 324.785 207.045 324.814 207.627C324.894 209.171 324.88 210.12 324.88 210.12V210.168C324.88 210.168 324.88 210.239 324.856 210.373C324.854 210.385 324.854 210.398 324.856 210.411C324.856 210.468 324.856 210.539 324.856 210.62C324.856 210.702 324.856 210.759 324.856 210.84C324.837 211.04 324.814 211.274 324.785 211.54C324.742 211.95 324.695 212.432 324.638 212.97C324.6 213.371 324.552 213.805 324.505 214.262C324.4 215.216 324.286 216.322 324.163 217.485C324.134 217.704 324.111 217.923 324.087 218.142C323.977 219.139 323.863 220.178 323.745 221.227C323.616 222.418 323.474 223.61 323.336 224.787C323.303 225.045 323.27 225.302 323.241 225.555C322.89 228.415 322.538 231.013 322.253 232.629C322.208 232.868 322.177 233.11 322.158 233.353C322.153 233.436 322.153 233.519 322.158 233.601C322.144 233.817 322.144 234.034 322.158 234.249C322.391 238.32 326.776 239.016 326.776 239.016L346.685 238.621L349.64 238.563L351.36 238.53L366.88 238.22L368.305 238.192L376.025 238.039C376.549 238.027 377.072 238.089 377.578 238.225C379.962 238.867 382.236 239.865 384.324 241.185C384.976 241.605 385.564 242.119 386.067 242.71C386.092 242.734 386.114 242.759 386.134 242.787C387.187 244.053 387.837 245.607 388.001 247.248C388.001 247.358 388.001 247.468 388.001 247.577C388.039 247.806 388.039 248.064 388.034 248.335Z" fill="#3A3768"/>
<path opacity="0.1" d="M388.034 248.335C388.034 248.469 388.034 248.607 388.01 248.74C387.987 248.874 388.01 248.979 387.972 249.098C387.859 249.938 387.619 250.757 387.26 251.524C375.312 250.175 363.336 248.555 351.345 246.891L349.65 246.653L346.604 246.228L344.039 245.871C341.231 245.8 338.431 245.537 335.659 245.084C333.912 244.825 332.183 244.459 330.481 243.988C322.88 242.944 315.236 241.938 307.616 241.023L306.624 240.904C306.804 240.065 306.966 239.555 306.966 239.555C306.966 239.555 308.301 234.311 309.569 227.957C309.659 227.519 309.745 227.08 309.83 226.637L309.958 225.965C310.253 224.406 310.538 222.804 310.79 221.231C310.989 219.968 311.17 218.719 311.322 217.518C311.407 216.855 311.479 216.207 311.54 215.573C311.574 215.259 311.602 214.944 311.626 214.62C311.65 214.296 311.678 213.943 311.702 213.614C311.726 213.285 311.735 212.994 311.749 212.694V212.246C311.749 211.602 311.749 210.93 311.726 210.239C311.492 206.797 310.957 203.381 310.125 200.033C309.992 199.455 309.854 198.888 309.711 198.332C309.664 198.151 309.621 197.974 309.574 197.798C308.035 191.815 306.248 186.915 306.248 186.915C306.25 186.904 306.25 186.893 306.248 186.882C306.25 186.863 306.25 186.844 306.248 186.825C306.25 186.785 306.25 186.745 306.248 186.706C306.248 186.553 306.248 186.319 306.248 186.038C306.248 185.981 306.248 185.919 306.248 185.857C306.278 185.357 306.36 184.862 306.491 184.379C306.543 184.212 306.6 184.041 306.666 183.874C306.837 183.368 307.134 182.914 307.528 182.555C307.922 182.195 308.4 181.942 308.918 181.82C310.263 181.505 312.272 181.896 315.274 183.66C315.795 183.966 316.29 184.314 316.757 184.699C316.98 184.885 317.194 185.071 317.403 185.271C320.89 188.574 322.747 193.984 323.735 198.918C323.773 199.094 323.806 199.276 323.84 199.452C323.958 200.057 324.058 200.658 324.148 201.239C324.31 202.269 324.434 203.256 324.529 204.171C324.552 204.424 324.581 204.672 324.6 204.91C324.619 205.148 324.647 205.387 324.662 205.615C324.723 206.359 324.766 207.045 324.795 207.627C324.875 209.171 324.861 210.12 324.861 210.12V210.282C324.861 210.311 324.861 210.339 324.861 210.373C324.858 210.385 324.858 210.398 324.861 210.411C324.861 210.468 324.861 210.539 324.861 210.62C324.861 210.702 324.861 210.759 324.861 210.84C324.842 211.04 324.818 211.274 324.79 211.54C324.747 211.95 324.7 212.432 324.643 212.971C324.595 213.366 324.552 213.8 324.505 214.262C324.4 215.216 324.286 216.322 324.163 217.485C324.134 217.704 324.11 217.923 324.087 218.142C323.977 219.139 323.859 220.187 323.745 221.236C323.607 222.428 323.469 223.619 323.327 224.792C323.293 225.05 323.265 225.307 323.232 225.56C322.885 228.42 322.538 230.979 322.253 232.586C322.206 232.843 322.174 233.102 322.158 233.363C322.153 233.445 322.153 233.528 322.158 233.611C322.144 233.827 322.144 234.043 322.158 234.259C322.429 238.282 326.776 238.954 326.776 238.954L346.685 238.563L349.635 238.501L351.36 238.468L366.908 238.163L368.362 238.134L376.053 237.982C376.577 237.965 377.101 238.027 377.607 238.168C380.008 238.792 382.301 239.781 384.405 241.099C385.068 241.525 385.664 242.049 386.172 242.653C386.197 242.676 386.219 242.702 386.238 242.73C387.291 244.001 387.933 245.564 388.082 247.21C388.082 247.32 388.082 247.43 388.082 247.539C388.039 247.806 388.039 248.064 388.034 248.335Z" fill="black"/>
<path d="M388.068 251.596L387.284 251.505C375.336 250.156 363.36 248.535 351.369 246.872L349.673 246.634L346.628 246.209L344.063 245.852C341.255 245.781 338.455 245.518 335.683 245.065C333.936 244.806 332.207 244.44 330.505 243.969C322.904 242.925 315.26 241.919 307.64 241.004C307.764 240.335 307.923 239.673 308.115 239.021C308.115 239.021 312.628 221.188 312.909 211.707C313.009 208.318 312.339 204.123 311.431 200.124C311.298 199.547 311.165 198.975 311.023 198.413L310.895 197.879C309.284 191.611 307.37 186.367 307.37 186.367C307.325 185.718 307.361 185.066 307.479 184.427C307.508 184.255 307.546 184.085 307.593 183.917C307.775 183.118 308.204 182.397 308.819 181.858C308.847 181.833 308.877 181.81 308.909 181.791C310.158 180.838 312.4 180.771 316.391 183.116C317.199 183.595 317.947 184.169 318.619 184.827C318.809 185.009 318.999 185.199 319.18 185.395C322.386 188.879 324.087 194.218 324.98 198.994L325.08 199.523C325.184 200.119 325.274 200.706 325.36 201.273C325.36 201.273 325.36 201.306 325.36 201.32C325.469 202.074 325.56 202.793 325.636 203.48C325.858 205.501 325.972 207.533 325.978 209.567C325.978 209.567 325.792 211.45 325.503 214.162C325.393 215.225 325.265 216.417 325.127 217.675C325.127 217.737 325.127 217.799 325.127 217.866L325.056 218.533C324.814 220.731 324.548 223.076 324.277 225.25C324.248 225.517 324.215 225.779 324.182 226.036C323.878 228.482 323.574 230.655 323.322 232.071C322.334 237.591 327.835 238.439 327.835 238.439L346.619 238.068L349.564 238.01L351.289 237.972H352.011H352.243L367.141 237.677H368.566L377.117 237.505C377.642 237.492 378.165 237.556 378.671 237.696C381.073 238.32 383.367 239.307 385.474 240.623C386.064 241.005 386.602 241.464 387.075 241.986C387.104 242.015 387.131 242.047 387.155 242.081C388.272 243.376 388.96 244.988 389.123 246.693C389.287 248.397 388.918 250.111 388.068 251.596Z" fill="#3A3768"/>
<path d="M455.222 165.431L461.032 177.92H460.058L453.245 165.579L455.222 165.431Z" fill="#4C4C56"/>
<path opacity="0.1" d="M455.222 165.431L461.032 177.92H460.058L453.245 165.579L455.222 165.431Z" fill="black"/>
<path d="M455.222 177.92H461.032V179.226L455.222 179.374V177.92Z" fill="#4C4C56"/>
<path opacity="0.1" d="M455.222 177.92H461.032V179.226L455.222 179.374V177.92Z" fill="black"/>
<path d="M410.029 119.475V163.086C410.029 163.944 410.369 164.768 410.974 165.375C411.579 165.982 412.399 166.323 413.255 166.323H485.701C486.128 166.323 486.55 166.238 486.943 166.072C487.336 165.906 487.692 165.664 487.991 165.359C488.289 165.053 488.524 164.691 488.682 164.294C488.839 163.896 488.916 163.471 488.908 163.043L488.086 119.394C488.07 118.551 487.725 117.749 487.125 117.158C486.526 116.568 485.719 116.238 484.879 116.238H413.255C412.831 116.238 412.412 116.322 412.021 116.484C411.629 116.647 411.274 116.886 410.974 117.186C410.675 117.487 410.437 117.843 410.275 118.236C410.113 118.629 410.029 119.05 410.029 119.475Z" fill="#4C4C56"/>
<path opacity="0.1" d="M410.029 119.475V163.086C410.029 163.944 410.369 164.768 410.974 165.375C411.579 165.982 412.399 166.323 413.255 166.323H485.701C486.128 166.323 486.55 166.238 486.943 166.072C487.336 165.906 487.692 165.664 487.991 165.359C488.289 165.053 488.524 164.691 488.682 164.294C488.839 163.896 488.916 163.471 488.908 163.043L488.086 119.394C488.07 118.551 487.725 117.749 487.125 117.158C486.526 116.568 485.719 116.238 484.879 116.238H413.255C412.831 116.238 412.412 116.322 412.021 116.484C411.629 116.647 411.274 116.886 410.974 117.186C410.675 117.487 410.437 117.843 410.275 118.236C410.113 118.629 410.029 119.05 410.029 119.475Z" fill="black"/>
<path d="M407.417 119.475V163.086C407.417 163.944 407.756 164.768 408.361 165.375C408.966 165.982 409.787 166.323 410.642 166.323H483.089C483.515 166.323 483.937 166.238 484.329 166.072C484.722 165.906 485.078 165.664 485.376 165.358C485.675 165.053 485.909 164.691 486.066 164.293C486.223 163.896 486.299 163.471 486.29 163.043L485.469 119.394C485.452 118.552 485.108 117.75 484.51 117.16C483.911 116.57 483.106 116.239 482.267 116.238H410.661C410.236 116.236 409.815 116.317 409.421 116.479C409.027 116.641 408.67 116.879 408.368 117.179C408.067 117.48 407.827 117.838 407.664 118.232C407.501 118.626 407.417 119.048 407.417 119.475Z" fill="#4C4C56"/>
<path d="M410.267 122.201V160.598C410.267 161.456 410.607 162.28 411.212 162.887C411.817 163.493 412.637 163.834 413.493 163.834H480.575C481.426 163.834 482.242 163.496 482.843 162.892C483.444 162.289 483.782 161.47 483.782 160.617V122.178C483.781 121.325 483.442 120.508 482.841 119.905C482.24 119.303 481.425 118.965 480.575 118.965H413.493C412.637 118.965 411.817 119.306 411.212 119.913C410.607 120.52 410.267 121.343 410.267 122.201Z" fill="#EF5B59"/>
<path d="M439.293 165.608L445.663 177.92H460.058L452.861 163.834L439.293 165.608Z" fill="#4C4C56"/>
<path d="M434.219 177.92L433.155 179.226H455.222V177.92H434.219Z" fill="#4C4C56"/>
<path d="M339.681 126.474C340.071 128.585 340.461 130.698 341.175 132.712C341.179 132.726 341.183 132.74 341.189 132.754C341.196 132.774 341.204 132.796 341.213 132.827C341.123 132.794 341.04 132.744 340.97 132.679C340.83 132.529 340.727 132.347 340.671 132.15C339.945 130.12 339.55 127.996 339.155 125.877C338.673 123.292 338.193 120.715 337.118 118.326C336.806 117.709 336.535 117.072 336.305 116.419C336.262 116.281 336.225 116.141 336.196 116L336.305 115.933L336.424 115.885L336.543 115.852L336.661 115.823C336.687 116.245 336.761 116.662 336.88 117.068C337.108 117.719 337.376 118.356 337.683 118.974C338.736 121.346 339.208 123.908 339.681 126.474Z" fill="url(#paint1_linear_7_835)"/>
<path d="M357.061 135.219C356.313 136.065 355.697 137.02 355.236 138.051C355.165 138.208 355.094 138.361 355.027 138.528C352.928 143.294 352.215 150.039 352.215 150.039C352.215 150.039 350.913 149.453 349.07 148.538C345.635 146.831 340.334 143.99 338.191 141.726C337.241 140.701 336.899 139.796 337.688 139.162C337.859 139.023 338.034 138.866 338.21 138.685C338.818 138.076 339.372 137.415 339.868 136.711C340.552 135.758 341.227 134.695 341.863 133.604C342.239 132.965 342.595 132.321 342.928 131.697L343.061 131.449C344.486 128.737 345.526 126.42 345.526 126.42C345.526 126.42 346.001 126.573 346.771 126.844C350.319 128.117 360.091 131.983 357.061 135.219Z" fill="#EFB7B9"/>
<path d="M422.086 245.661C422.086 245.661 422.666 249.98 423.402 254.537L421.716 254.451C417.206 254.216 412.691 253.916 408.172 253.55C405.607 247.587 402.946 240.508 402.946 240.399C402.946 240.289 402.866 237.958 402.775 235.355C402.747 234.44 402.714 233.496 402.685 232.61C402.638 231.265 402.595 230.055 402.571 229.302C402.571 228.787 402.543 228.482 402.543 228.482C402.543 228.482 400.101 228.911 397.906 229.211L396.932 229.34C396.429 229.402 395.982 229.449 395.578 229.478C395.23 229.531 394.876 229.531 394.528 229.478C393.778 229.187 395.336 221.851 395.336 221.851L399.212 212.437L400.296 209.815L400.771 209.696C401.003 209.639 401.317 209.572 401.692 209.5C405.393 208.819 415.279 207.951 416.956 217.742C419.032 229.835 419.331 232.553 419.331 232.553L422.086 245.661Z" fill="#EFB7B9"/>
<path opacity="0.05" d="M422.086 245.661C422.086 245.661 422.666 249.98 423.402 254.537L421.716 254.451C417.206 254.216 412.691 253.916 408.172 253.55C405.607 247.587 402.946 240.508 402.946 240.399C402.946 240.289 402.866 237.958 402.775 235.355C402.747 234.44 402.714 233.496 402.685 232.61C402.638 231.265 402.595 230.055 402.571 229.302C402.571 228.787 402.543 228.482 402.543 228.482C402.543 228.482 400.101 228.911 397.906 229.211L396.932 229.34C396.429 229.402 395.982 229.449 395.578 229.478C395.23 229.531 394.876 229.531 394.528 229.478C393.778 229.187 395.336 221.851 395.336 221.851L399.212 212.437L400.296 209.815L400.771 209.696C401.003 209.639 401.317 209.572 401.692 209.5C405.393 208.819 415.279 207.951 416.956 217.742C419.032 229.835 419.331 232.553 419.331 232.553L422.086 245.661Z" fill="black"/>
<path d="M421.716 254.451C417.206 254.216 412.691 253.916 408.172 253.55L406.462 253.412L405.706 253.35C403.578 248.197 401.687 243.159 401.687 243.068C401.687 242.977 401.607 240.627 401.516 238.025C401.407 234.774 401.284 231.151 401.284 231.151L400.965 231.203L400.832 231.227H400.775H400.661L399.896 231.356L399.478 231.423C398.723 231.547 397.811 231.685 396.918 231.814L396.718 231.842L396.196 231.909L395.721 231.966C395.355 232.014 395.008 232.052 394.695 232.081L394.31 232.114C393.962 232.17 393.608 232.17 393.26 232.114C392.509 231.823 394.068 224.487 394.068 224.487L399.027 212.451L399.198 212.403C399.459 212.337 400.01 212.208 400.756 212.079C401.037 212.031 401.345 211.984 401.678 211.941C405.982 211.388 414.172 211.545 415.687 220.378C417.763 232.471 418.063 235.189 418.063 235.189L420.832 248.335C420.832 248.335 421.193 251.052 421.716 254.451Z" fill="#EFB7B9"/>
<path opacity="0.1" d="M401.516 238.025C401.407 234.774 401.284 231.146 401.284 231.146C401.284 231.146 396.533 231.98 394.319 232.143L394.766 230.627C394.766 230.627 402.899 228.372 403.07 229.645C403.193 230.536 402.148 235.274 401.516 238.025Z" fill="black"/>
<path opacity="0.1" d="M401.687 209.476V212.923C401.687 212.923 401.284 219.12 398.11 228.601C398.044 228.806 397.972 229.006 397.896 229.206C397.564 230.118 397.17 231.007 396.718 231.866C395.825 231.99 394.961 232.095 394.319 232.143C393.971 232.196 393.617 232.196 393.269 232.143C392.519 231.852 394.072 224.516 394.072 224.516L399.032 212.484L399.208 212.437L400.286 209.81C400.286 209.81 400.818 209.639 401.687 209.476Z" fill="black"/>
<path d="M400.766 208.933V212.923C400.766 212.923 400.362 219.12 397.189 228.606C397.108 228.853 397.018 229.082 396.927 229.335C396.837 229.588 396.718 229.888 396.6 230.155C396.338 230.789 396.044 231.404 395.735 231.995C393.25 236.719 389.464 240.098 387.06 241.957C386.709 242.229 386.381 242.467 386.11 242.668H386.087C385.611 242.992 385.269 243.225 385.051 243.364C384.832 243.502 384.813 243.511 384.813 243.511C382.562 242.124 376.163 241.891 376.163 241.891L361.227 244.612C357.962 245.177 354.668 245.552 351.36 245.737L349.664 245.818C348.685 245.857 347.669 245.88 346.628 245.885C345.787 245.885 344.932 245.885 344.063 245.852C341.255 245.781 338.455 245.518 335.683 245.065C334.158 244.814 332.648 244.478 331.16 244.06C330.099 243.765 329.055 243.414 328.03 243.011C317.578 238.892 320.301 229.125 322.063 224.897C322.158 224.673 322.248 224.468 322.334 224.277C322.723 223.415 323.013 222.909 323.013 222.909L323.707 221.227L324.842 218.467L325.094 217.861L325.165 217.685L326.006 215.64L337.882 214.095L346.609 212.961L349.265 212.618L351.065 212.384L354.5 211.936L355.792 211.769C356.589 211.645 357.394 211.581 358.201 211.579C358.637 211.558 359.072 211.623 359.483 211.769C360.433 212.203 367.673 211.016 367.673 211.016C367.673 211.016 373.322 209.281 378.281 209.858C380.734 210.028 383.195 210.044 385.649 209.905L386.258 209.877L387.046 209.843H387.217C393.64 209.543 400.766 208.933 400.766 208.933Z" fill="#444053"/>
<path opacity="0.1" d="M358.034 220.907C358.034 220.907 352.334 233.925 352.096 234.154C351.859 234.383 351.868 238.444 352.096 238.206C352.324 237.968 360.229 220.388 360.229 220.388L358.034 220.907Z" fill="black"/>
<path opacity="0.1" d="M385.654 209.896C385.654 209.896 382.771 211.765 381.906 213.271C381.041 214.777 373.141 229.759 371.184 231.957C369.559 233.923 368.093 236.015 366.799 238.215C366.571 238.611 366.571 241.099 367.954 238.725C369.336 236.352 368.994 235.951 371.702 233.005C374.41 230.059 377.403 223.4 378.562 222.07C379.721 220.74 381.331 216.746 383.35 214.372L387.217 209.839L385.654 209.896Z" fill="black"/>
<path opacity="0.1" d="M386.348 235.603C386.348 235.603 384.329 234.216 382.429 236.585C380.528 238.954 386.348 235.603 386.348 235.603Z" fill="black"/>
<path opacity="0.1" d="M388.828 236.318C388.828 236.318 387.155 239.245 386.348 239.479C385.54 239.712 388.828 236.318 388.828 236.318Z" fill="black"/>
<path opacity="0.1" d="M386.348 237.048C386.348 237.048 385.022 239.364 383.868 239.131L386.348 237.048Z" fill="black"/>
<path d="M377.013 174.503C377.013 174.503 389.236 173.983 390.448 173.578C391.659 173.173 402.381 171.785 402.381 171.785C402.381 171.785 434.153 174.04 425.103 176.762C416.053 179.484 403.768 178.321 403.768 178.321C403.768 178.321 391.773 181.448 389.93 183.088C388.086 184.727 374.476 184.765 374.476 184.765L377.013 174.503Z" fill="#EFB7B9"/>
<path opacity="0.05" d="M377.013 174.503C377.013 174.503 389.236 173.983 390.448 173.578C391.659 173.173 402.381 171.785 402.381 171.785C402.381 171.785 434.153 174.04 425.103 176.762C416.053 179.484 403.768 178.321 403.768 178.321C403.768 178.321 391.773 181.448 389.93 183.088C388.086 184.727 374.476 184.765 374.476 184.765L377.013 174.503Z" fill="black"/>
<path d="M333.531 146.56C333.531 146.56 322.343 150.373 327.764 160.097C333.184 169.822 340.163 174.398 340.163 174.398L358.153 186.896C358.153 186.896 365.707 191.234 369.165 189.442L374.813 188.965L375.763 174.093C375.763 174.093 371.013 177.796 365.844 172.663C360.676 167.529 354.31 164.039 353.792 161.265C353.274 158.491 340.044 144.186 333.531 146.56Z" fill="#A36468"/>
<path d="M368.875 178.035C368.875 178.035 374.699 180.118 374.471 180.232C374.243 180.347 368.875 182.372 368.875 182.372L369.279 190.3L377.179 189.866C377.179 189.866 380.063 175.432 377.583 173.983L368.875 173.578V178.035Z" fill="#67647E"/>
<path opacity="0.1" d="M368.875 178.035C368.875 178.035 374.699 180.118 374.471 180.232C374.243 180.347 368.875 182.372 368.875 182.372L369.279 190.3L377.179 189.866C377.179 189.866 380.063 175.432 377.583 173.983L368.875 173.578V178.035Z" fill="black"/>
<path opacity="0.1" d="M357.06 135.219C356.312 136.065 355.697 137.02 355.236 138.051C355.165 138.208 355.094 138.361 355.027 138.528C350.785 138.528 347.735 135.219 345.132 132.259C344.657 131.711 343.455 132.541 343.061 131.926C343.018 131.854 342.975 131.783 342.927 131.711L343.061 131.463C344.486 128.751 345.526 126.434 345.526 126.434C345.526 126.434 346.001 126.587 346.771 126.859C350.319 128.117 360.091 131.983 357.06 135.219Z" fill="black"/>
<path d="M369.412 123.708C369.411 127.489 367.922 131.117 365.269 133.803C362.616 136.489 359.014 138.016 355.246 138.051H355.108C353.078 138.052 351.072 137.619 349.222 136.781C347.372 135.942 345.722 134.718 344.381 133.189C343.902 132.642 343.463 132.061 343.07 131.449C341.869 129.572 341.121 127.44 340.885 125.222C340.649 123.004 340.931 120.761 341.709 118.672C342.487 116.583 343.74 114.704 345.368 113.185C346.996 111.666 348.954 110.549 351.088 109.922C353.221 109.295 355.47 109.176 357.658 109.574C359.845 109.971 361.91 110.875 363.688 112.213C365.467 113.551 366.91 115.286 367.904 117.282C368.897 119.277 369.414 121.477 369.412 123.708Z" fill="#EFB7B9"/>
<path opacity="0.1" d="M354.866 212.689C354.866 212.689 353.778 214.024 352.576 215.268C351.669 216.221 350.699 217.094 350.077 217.318C348.652 217.842 342.12 222.814 342.12 222.814C342.12 222.814 336.932 226.346 335.607 227.385C334.282 228.424 329.493 227.791 329.493 227.791C329.493 227.791 324.885 226.78 322.03 224.93C322.307 224.251 322.625 223.589 322.98 222.947L325.978 215.654L337.854 214.115L354.866 212.689Z" fill="black"/>
<path d="M354.633 211.765C354.633 211.765 353.55 213.099 352.348 214.343C351.441 215.297 350.448 216.169 349.849 216.393C348.424 216.913 341.892 221.889 341.892 221.889C341.892 221.889 336.7 225.421 335.374 226.46C334.049 227.5 329.265 226.866 329.265 226.866C329.265 226.866 322.69 225.436 320.381 222.814C318.766 220.988 320.438 217.604 321.578 215.74C322.054 214.944 322.457 214.424 322.457 214.424L354.633 211.765Z" fill="#67647E"/>
<path d="M363.17 166.923C359.246 166.575 346.329 150.716 346.329 150.716L346.624 150.311L349.331 146.55H355.664L356.362 150.02C361.179 156.799 364.015 161.513 364.785 164.211C365.341 166.175 364.813 167.071 363.17 166.923Z" fill="#67647E"/>
<path opacity="0.1" d="M363.17 166.923C359.246 166.575 346.329 150.716 346.329 150.716L346.624 150.311C348.939 152.443 351.114 154.723 353.137 157.137C362.59 168.301 364.462 165.183 364.785 164.211C365.341 166.175 364.813 167.071 363.17 166.923Z" fill="black"/>
<path opacity="0.1" d="M354.633 211.765C354.633 211.765 353.55 213.099 352.348 214.343C351.714 214.59 351.046 214.735 350.367 214.772C348.866 214.715 345.407 217.089 345.407 217.089C345.407 217.089 339.298 216.741 338.144 217.375C336.989 218.009 332.547 218.128 332.547 218.128C324.419 220.454 322.172 216.922 321.578 215.745C322.053 214.949 322.457 214.429 322.457 214.429L354.633 211.765Z" fill="black"/>
<path d="M368.752 177.31C368.752 177.534 368.709 177.758 368.68 177.973C368.652 178.187 368.623 178.407 368.59 178.612C368.437 179.789 368.085 180.932 367.55 181.991C366.514 183.726 363.341 190.495 363.341 190.495L363.127 191.744L363.018 192.397L362.904 193.041L362.129 197.602L361.783 202.87C361.783 202.87 359.882 205.53 359.075 206.683C358.267 207.837 358.381 209.519 358.671 210.735C358.961 211.95 356.02 212.122 356.02 212.122C356.02 212.122 351.868 214.148 350.367 214.091C348.866 214.034 345.407 216.398 345.407 216.398C345.407 216.398 339.298 216.05 338.144 216.689C336.989 217.327 332.548 217.442 332.548 217.442C323.845 219.925 321.883 215.702 321.479 214.834C321.075 213.967 323.208 210.439 323.208 210.439C323.208 210.439 323.683 205.982 324.59 205.634C325.498 205.287 326.609 199.39 326.609 199.39C326.609 199.39 326.263 197.593 327.013 196.611C327.764 195.629 327.707 192.85 328.685 191.52C329.664 190.19 327.65 185.733 327.997 184.575C328.343 183.416 326.899 178.731 327.013 177.515C327.127 176.3 326.728 175.318 325.802 172.887C325.013 170.813 325.236 161.599 325.327 158.958C325.327 158.51 325.35 158.253 325.35 158.253C325.35 158.253 326.158 155.645 328.291 150.44C329.906 146.498 333.54 145.006 335.208 144.519C335.494 144.433 335.784 144.361 336.077 144.305C336.495 144.365 336.906 144.469 337.303 144.615C338.985 145.182 342.348 146.788 347.146 151.288C349.269 153.284 351.273 155.404 353.146 157.638C363.963 170.394 364.847 164.44 364.847 164.44C364.847 164.44 365.322 165.527 367.55 169.865C368.742 172.172 368.961 174.927 368.752 177.31Z" fill="#A36468"/>
<path opacity="0.1" d="M350.942 145.849L340.091 137.164C340.091 137.164 336.182 137.641 334.567 144.229L345.735 154.043L350.942 145.849Z" fill="black"/>
<path d="M350.942 145.849L349.042 148.514L347.113 151.245L345.659 153.386L336.742 145.849L335.208 144.515L334.348 143.781C335.217 140.22 336.761 138.442 337.992 137.584C338.55 137.155 339.201 136.863 339.892 136.731L350.942 145.849Z" fill="#67647E"/>
<path d="M425.559 180.232C416.504 182.949 404.224 181.796 404.224 181.796C404.224 181.796 392.229 184.918 390.386 186.562C389.198 187.606 383.132 187.993 378.984 188.15C376.68 188.236 374.956 188.24 374.956 188.24L377.488 177.978L378.951 177.911C382.234 177.758 389.973 177.367 390.923 177.048C392.134 176.643 402.856 175.256 402.856 175.256C402.856 175.256 434.609 177.51 425.559 180.232Z" fill="#EFB7B9"/>
<path opacity="0.1" d="M368.59 178.588C368.437 179.765 368.085 180.908 367.55 181.967C366.514 183.702 363.341 190.471 363.341 190.471L362.904 193.041C361.431 192.492 360.002 191.832 358.628 191.067L340.624 178.554C340.624 178.554 333.645 173.983 328.225 164.254C322.804 154.525 333.992 150.716 333.992 150.716C340.505 148.333 353.711 162.633 354.229 165.412C354.747 168.191 361.094 171.662 366.281 176.81C366.965 177.507 367.742 178.105 368.59 178.588Z" fill="black"/>
<path opacity="0.1" d="M368.752 177.31C368.709 177.763 368.657 178.197 368.59 178.611C368.437 179.789 368.085 180.932 367.55 181.991C366.514 183.726 363.341 190.495 363.341 190.495L363.127 191.744C361.57 191.18 360.061 190.492 358.614 189.685L340.624 177.167C340.624 177.167 333.645 172.596 328.225 162.867C322.804 153.138 333.992 149.324 333.992 149.324C340.505 146.941 353.711 161.241 354.229 164.02C354.747 166.799 361.094 170.27 366.281 175.423C367.006 176.172 367.839 176.809 368.752 177.31Z" fill="black"/>
<path d="M376.201 177.572L375.279 192.44L369.626 192.917C369.502 192.982 369.373 193.038 369.241 193.083C365.64 194.409 358.614 190.371 358.614 190.371L340.624 177.858C340.624 177.858 333.645 173.287 328.225 163.558C322.804 153.829 333.992 150.02 333.992 150.02C340.505 147.637 353.711 161.937 354.229 164.716C354.747 167.495 361.094 170.966 366.281 176.114C367.042 176.881 367.917 177.524 368.875 178.02C370.021 178.624 371.309 178.902 372.6 178.823C373.892 178.744 375.137 178.311 376.201 177.572Z" fill="#A36468"/>
<path opacity="0.1" d="M376.201 177.572L375.279 192.44L369.626 192.917C369.502 192.982 369.373 193.038 369.241 193.084L368.875 185.857C368.875 185.857 374.239 183.831 374.471 183.717C374.704 183.602 368.875 181.519 368.875 181.519V178.063C370.024 178.661 371.315 178.931 372.606 178.845C373.898 178.758 375.141 178.318 376.201 177.572Z" fill="black"/>
<path opacity="0.1" d="M378.961 188.126C376.657 188.212 374.932 188.217 374.932 188.217L377.488 177.978L378.951 177.911C379.892 179.536 379.488 184.313 378.961 188.126Z" fill="black"/>
<path d="M369.336 181.505C369.336 181.505 375.16 183.588 374.932 183.702C374.704 183.817 369.336 185.843 369.336 185.843L369.74 193.77L377.64 193.336C377.64 193.336 380.524 178.902 378.044 177.453L369.336 177.048V181.505Z" fill="#67647E"/>
<path opacity="0.1" d="M334.799 190.996C334.799 190.996 332.837 192.845 331.222 193.336L334.799 190.996Z" fill="black"/>
<path opacity="0.1" d="M330.13 196.492C330.13 196.492 334.913 196.315 335.488 195.333C336.063 194.351 330.13 196.492 330.13 196.492Z" fill="black"/>
<path opacity="0.1" d="M327.764 203.375C328.053 203.375 333.816 202.565 334.049 201.812L327.764 203.375Z" fill="black"/>
<path opacity="0.1" d="M325.978 207.775C328.054 207.713 331.569 205.458 331.569 205.458L325.978 207.775Z" fill="black"/>
<path opacity="0.1" d="M339.412 208.928C339.412 208.928 351.925 208.928 352.5 206.616C353.075 204.305 339.412 208.928 339.412 208.928Z" fill="black"/>
<path opacity="0.1" d="M348.809 176.586C349.041 176.586 358.671 176.586 359.593 175.256C360.514 173.926 348.809 176.586 348.809 176.586Z" fill="black"/>
<path opacity="0.1" d="M338.206 138.699C338.284 139.172 338.325 139.65 338.329 140.129C338.329 140.662 338.282 141.193 338.187 141.717C337.996 142.711 337.696 143.682 337.293 144.61L337.194 144.844C337.051 145.177 336.899 145.501 336.742 145.826C336.037 147.27 335.203 148.648 334.253 149.944C332.085 152.833 329.577 155.45 326.785 157.738C326.301 158.148 325.811 158.553 325.317 158.953C325.317 158.505 325.341 158.248 325.341 158.248C325.341 158.248 326.149 155.64 328.282 150.435C329.897 146.493 333.531 145.001 335.198 144.515L334.339 143.781C335.208 140.22 336.752 138.442 337.982 137.584C338.058 137.937 338.149 138.308 338.206 138.699Z" fill="black"/>
<path opacity="0.1" d="M367.322 116.257C367.176 116.294 367.035 116.35 366.904 116.424C366.001 116.924 365.74 118.111 365.003 118.86C364.153 119.742 362.823 119.875 361.612 120.028C360.4 120.18 359.046 120.481 358.405 121.524C357.93 122.301 357.973 123.279 357.802 124.175C357.783 124.336 357.719 124.488 357.616 124.613C357.453 124.746 357.247 124.814 357.037 124.804C354.661 124.971 352.932 124.151 350.709 123.574C349.664 123.307 348.448 123.341 347.65 124.051C346.928 124.704 346.728 125.772 346.747 126.749V126.835C346.849 127.784 346.878 128.741 346.833 129.695C346.723 130.433 346.441 131.134 346.009 131.742C345.577 132.349 345.008 132.845 344.348 133.189C343.793 133.487 343.181 133.663 342.552 133.704C342.31 133.729 342.065 133.693 341.84 133.599C342.263 132.874 342.666 132.169 343.037 131.449C342.006 129.85 341.303 128.061 340.968 126.187C340.633 124.312 340.673 122.389 341.086 120.531C341.499 118.672 342.277 116.914 343.373 115.36C344.47 113.806 345.864 112.486 347.474 111.478C349.084 110.47 350.878 109.793 352.751 109.487C354.624 109.181 356.54 109.253 358.385 109.697C360.231 110.142 361.97 110.95 363.501 112.075C365.032 113.201 366.324 114.621 367.303 116.252L367.322 116.257Z" fill="black"/>
<path d="M371.236 114.427C371.062 114.817 370.789 115.154 370.443 115.404C369.36 116.109 367.806 115.332 366.676 115.962C365.768 116.462 365.512 117.649 364.775 118.397C363.93 119.279 362.6 119.413 361.383 119.565C360.167 119.718 358.823 120.018 358.177 121.062C357.702 121.839 357.749 122.812 357.574 123.712C357.557 123.874 357.493 124.027 357.388 124.151C357.224 124.283 357.018 124.35 356.809 124.342C354.433 124.509 352.704 123.684 350.481 123.112C349.441 122.845 348.224 122.878 347.426 123.589C346.628 124.299 346.505 125.314 346.519 126.291C346.618 127.267 346.648 128.248 346.609 129.228C346.445 130.279 345.934 131.245 345.16 131.971C344.385 132.697 343.39 133.143 342.334 133.236C342.18 133.26 342.023 133.252 341.872 133.213C341.721 133.175 341.579 133.107 341.455 133.012C341.318 132.864 341.218 132.684 341.165 132.488C339.583 128.026 339.597 123.074 337.678 118.745C337.369 118.129 337.1 117.492 336.875 116.839C336.837 116.705 336.799 116.567 336.771 116.429C336.714 116.154 336.676 115.875 336.657 115.595C336.46 115.623 336.274 115.7 336.115 115.819C336.059 115.867 336.008 115.921 335.963 115.981C335.691 116.437 335.553 116.96 335.564 117.492C335.209 123.451 335.786 129.43 337.274 135.21C337.728 136.653 338.004 138.147 338.096 139.657C338.043 141.291 337.655 142.896 336.956 144.372C333.977 151.264 327.992 156.313 322.039 160.874C322.651 160.216 323.123 159.441 323.427 158.594C323.731 157.748 323.86 156.848 323.806 155.95C323.704 156.293 323.509 156.601 323.243 156.84C322.978 157.079 322.651 157.239 322.301 157.304C321.597 157.424 320.877 157.413 320.177 157.271C321.089 156.97 321.445 155.893 321.673 154.959C322.139 153.052 322.571 151.128 322.97 149.186C323.395 147.333 323.675 145.449 323.806 143.552C323.878 141.941 323.754 140.325 323.688 138.709C323.547 134.278 323.705 129.843 324.163 125.433C324.514 121.62 325.151 117.497 327.939 114.894C329.143 113.873 330.487 113.032 331.93 112.396C331.93 111.919 335.412 110.966 335.873 110.899C336.064 110.862 336.258 110.84 336.452 110.833C336.701 110.796 336.955 110.84 337.178 110.957C337.401 111.075 337.581 111.259 337.692 111.486C337.863 111.176 338.053 110.871 338.253 110.58C338.527 110.18 338.829 109.799 339.156 109.441C340.966 107.439 343.312 106.028 345.407 104.331C346.176 103.639 347.01 103.022 347.897 102.491C349.056 101.906 350.329 101.58 351.626 101.537C353.77 101.416 355.916 101.754 357.92 102.529C360.809 103.644 363.331 105.646 366.319 106.457C367.057 106.617 367.785 106.819 368.5 107.062C369.185 107.334 369.806 107.747 370.323 108.275C370.84 108.802 371.241 109.432 371.5 110.125C371.76 110.817 371.872 111.556 371.83 112.295C371.788 113.033 371.592 113.754 371.255 114.412L371.236 114.427Z" fill="#444053"/>
<g opacity="0.1">
<path opacity="0.1" d="M323.127 157.123C323.474 156.228 323.621 155.268 323.559 154.31C323.456 154.653 323.26 154.961 322.993 155.2C322.727 155.439 322.4 155.599 322.049 155.664C321.868 155.708 321.683 155.735 321.498 155.745C321.26 156.508 320.885 157.242 320.158 157.48C320.858 157.624 321.577 157.637 322.282 157.519C322.587 157.444 322.874 157.31 323.127 157.123Z" fill="black"/>
<path opacity="0.1" d="M371.578 110.628C371.543 111.381 371.349 112.119 371.008 112.792C370.828 113.173 370.553 113.501 370.21 113.745C369.132 114.451 367.574 113.678 366.443 114.303C365.54 114.803 365.279 115.995 364.543 116.739C363.692 117.621 362.362 117.759 361.151 117.907C359.939 118.054 358.585 118.383 357.944 119.403C357.469 120.18 357.512 121.157 357.341 122.054C357.337 122.148 357.314 122.24 357.272 122.324C357.231 122.408 357.172 122.483 357.1 122.542C357.028 122.602 356.944 122.646 356.853 122.671C356.763 122.696 356.669 122.702 356.576 122.688C354.201 122.854 352.471 122.03 350.248 121.453C349.203 121.186 347.987 121.219 347.189 121.93C346.467 122.587 346.267 123.65 346.286 124.632C346.386 125.606 346.414 126.586 346.372 127.564C346.213 128.618 345.705 129.588 344.929 130.316C344.153 131.044 343.155 131.489 342.096 131.578C341.942 131.6 341.785 131.592 341.635 131.553C341.484 131.515 341.342 131.447 341.217 131.354C341.08 131.203 340.981 131.022 340.928 130.825C339.346 126.363 339.355 121.41 337.436 117.087C337.131 116.468 336.864 115.831 336.638 115.18C336.517 114.775 336.442 114.358 336.415 113.936C336.142 113.968 335.893 114.107 335.721 114.322C335.454 114.78 335.316 115.302 335.322 115.833C335.101 119.653 335.26 123.485 335.797 127.273C335.454 124.085 335.376 120.874 335.564 117.673C335.553 117.142 335.691 116.618 335.963 116.162C336.046 116.053 336.151 115.963 336.27 115.897C336.389 115.83 336.521 115.789 336.657 115.776C336.683 116.197 336.756 116.615 336.875 117.02C337.102 117.672 337.371 118.309 337.678 118.927C339.578 123.255 339.578 128.203 341.165 132.664C341.221 132.861 341.322 133.043 341.46 133.194C341.58 133.295 341.719 133.37 341.87 133.415C342.02 133.461 342.178 133.474 342.334 133.456C343.39 133.362 344.385 132.917 345.16 132.19C345.934 131.464 346.445 130.498 346.609 129.447C346.648 128.467 346.618 127.486 346.519 126.511C346.519 125.529 346.704 124.466 347.426 123.808C348.224 123.083 349.441 123.055 350.481 123.331C352.704 123.903 354.424 124.728 356.809 124.561C357.019 124.57 357.224 124.502 357.388 124.37C357.493 124.244 357.557 124.09 357.574 123.927C357.749 123.031 357.697 122.054 358.177 121.281C358.823 120.237 360.172 119.932 361.384 119.78C362.595 119.627 363.93 119.499 364.78 118.617C365.498 117.868 365.754 116.681 366.68 116.176C367.806 115.552 369.365 116.329 370.448 115.623C370.793 115.373 371.067 115.036 371.241 114.646C371.866 113.4 371.987 111.961 371.578 110.628Z" fill="black"/>
<path opacity="0.1" d="M337.868 138.032C337.816 139.665 337.429 141.269 336.733 142.746C334.068 148.91 328.994 153.6 323.697 157.781C323.473 159.028 322.9 160.185 322.044 161.117C327.992 156.56 333.987 151.512 336.961 144.62C337.66 143.144 338.048 141.539 338.101 139.905C338.09 139.208 338.008 138.513 337.859 137.832C337.864 137.879 337.868 137.956 337.868 138.032Z" fill="black"/>
</g>
<path opacity="0.1" d="M338.462 110.575C338.035 112.549 337.445 115.113 337.004 116.434C336.949 116.158 336.911 115.879 336.89 115.599C336.695 115.628 336.51 115.705 336.353 115.823C336.353 114.436 336.519 112.372 336.662 110.828C336.911 110.791 337.166 110.835 337.389 110.952C337.613 111.069 337.794 111.254 337.906 111.481C338.058 111.176 338.263 110.871 338.462 110.575Z" fill="black"/>
<path d="M338.234 110.575C337.806 112.549 337.217 115.113 336.776 116.434C336.719 116.158 336.681 115.88 336.662 115.599C336.465 115.628 336.279 115.705 336.12 115.823C336.12 114.436 336.286 112.372 336.434 110.828C336.682 110.792 336.936 110.835 337.159 110.952C337.382 111.07 337.562 111.255 337.673 111.481C337.844 111.176 338.058 110.871 338.234 110.575Z" fill="#67647E"/>
<g opacity="0.7">
<path opacity="0.7" d="M434.97 3.59418H513.673V80.4062H434.97V3.59418Z" fill="#2E001E"/>
<path opacity="0.7" d="M431.412 -0.0142822V83.9956H517.269V-0.0142822H431.412ZM434.989 3.57987H513.692V80.4062H434.97L434.989 3.57987Z" fill="#FF2BC2"/>
<path opacity="0.7" d="M493.763 35.2885C493.105 35.0178 492.397 34.8941 491.687 34.9263C487.183 34.9263 484.176 38.4108 484.176 44.1881C484.176 50.7949 487.255 53.45 491.259 53.45C492.1 53.4754 492.938 53.3412 493.73 53.0543V35.2885H493.763ZM477.725 44.4789C477.725 36.1132 483.088 29.5779 491.891 29.5779C492.511 29.5645 493.132 29.5899 493.749 29.6542V20.3208C493.749 20.2247 493.787 20.1326 493.854 20.0647C493.922 19.9967 494.014 19.9585 494.11 19.9585H499.867C500.152 19.9585 500.224 20.0682 500.224 20.2493V53.0543C500.202 54.2298 500.263 55.4052 500.404 56.5722C500.404 56.8249 500.404 56.863 500.191 56.9679C497.329 58.336 494.201 59.0475 491.031 59.051C483.269 59.051 477.73 54.2413 477.73 44.4789H477.725ZM465.526 38.6634L475.554 58.1405C475.735 58.4265 475.625 58.7125 475.34 58.7125H469.117C468.956 58.7328 468.793 58.6964 468.656 58.6094C468.52 58.5224 468.417 58.3904 468.366 58.2359C466.077 53.4977 463.739 48.5799 461.355 43.4826H461.283C459.136 48.2923 456.775 53.5358 454.485 58.2597C454.428 58.3817 454.336 58.4842 454.221 58.5545C454.106 58.6248 453.974 58.6599 453.839 58.6553H447.901C447.545 58.6553 447.511 58.3645 447.687 58.15L457.488 39.2354L448.01 20.4829C447.966 20.4363 447.937 20.3774 447.927 20.314C447.917 20.2506 447.926 20.1855 447.953 20.1273C447.98 20.0691 448.024 20.0205 448.079 19.9879C448.134 19.9552 448.198 19.94 448.262 19.9442H454.414C454.77 19.9442 454.951 20.0157 455.055 20.3399C457.312 25.1067 459.602 29.8163 461.749 34.6402H461.82C463.891 29.9021 466.181 25.1067 468.366 20.4257C468.542 20.1349 468.651 19.949 469.008 19.949H474.77C475.055 19.949 475.16 20.1635 474.984 20.4877L465.54 38.6873L465.526 38.6634Z" fill="#FF2BC2"/>
</g>
<g opacity="0.7">
<path opacity="0.7" d="M108.753 34.5258L135.651 87.3466L90.4441 34.5258H108.753Z" fill="#EA6C00"/>
<path opacity="0.7" d="M162.553 34.5258L135.655 87.3466L180.862 34.5258H162.553Z" fill="#EA6C00"/>
<path opacity="0.7" d="M108.753 34.5258H162.544L135.651 87.3466L108.753 34.5258Z" fill="#FDAD00"/>
<path opacity="0.7" d="M135.651 5.25299L110.168 7.95576L108.743 34.5258L135.651 5.25299Z" fill="#FDD231"/>
<path opacity="0.7" d="M135.651 5.25299L161.128 7.95576L162.553 34.5258L135.651 5.25299Z" fill="#FDD231"/>
<path opacity="0.7" d="M180.862 34.5258L161.137 7.95575L162.563 34.5258H180.862Z" fill="#FDAD00"/>
<path opacity="0.7" d="M90.4441 34.5258L110.168 7.95575L108.743 34.5258H90.4441Z" fill="#FDAD00"/>
<path opacity="0.7" d="M135.651 5.25299L108.753 34.5258H162.544L135.651 5.25299Z" fill="#FEEEB7"/>
</g>
</g>
<defs>
<linearGradient id="paint0_linear_7_835" x1="24153.3" y1="71856.1" x2="59111.9" y2="71856.1" gradientUnits="userSpaceOnUse">
<stop stop-color="#808080" stop-opacity="0.25"/>
<stop offset="0.54" stop-color="#808080" stop-opacity="0.12"/>
<stop offset="1" stop-color="#808080" stop-opacity="0.1"/>
</linearGradient>
<linearGradient id="paint1_linear_7_835" x1="-108045" y1="45714.1" x2="-108045" y2="24880.4" gradientUnits="userSpaceOnUse">
<stop stop-color="#808080" stop-opacity="0.25"/>
<stop offset="0.54" stop-color="#808080" stop-opacity="0.12"/>
<stop offset="1" stop-color="#808080" stop-opacity="0.1"/>
</linearGradient>
<clipPath id="clip0_7_835">
<rect width="553" height="265" fill="white" transform="translate(0.273438)"/>
</clipPath>
</defs>
</svg>
