<svg width="553" height="358" viewBox="0 0 553 358" fill="none" xmlns="http://www.w3.org/2000/svg">
<g clip-path="url(#clip0_6_2395)">
<path opacity="0.2" d="M78.0587 19.7833C73.9576 19.679 69.7547 19.7833 65.908 20.8355C55.4415 23.7019 50.4805 33.081 52.0934 41.1857C53.7064 49.2905 60.3415 56.3521 67.2259 62.8059C74.1103 69.2597 81.5696 75.641 85.3451 83.3557C87.2277 87.2062 88.108 91.5194 86.1948 95.3654C83.2437 101.293 74.3443 104.604 65.8012 105.293C57.258 105.983 48.6792 104.64 40.1055 104.191C36.5082 104.005 32.809 103.983 29.4202 104.849C25.7007 105.792 22.602 107.72 19.7526 109.729C8.61443 117.602 -0.300173 128.356 1.15506 139.635C2.7833 152.439 17.3051 162.557 33.211 167.986C38.4773 169.8 44.0489 171.242 48.6843 173.809C60.8961 180.581 63.6387 193.28 62.4226 204.487C61.2065 215.693 57.0647 226.914 59.3696 238.021C62.0817 250.942 74.0848 262.617 90.2756 268.068C104.701 272.925 122.754 272.603 135.561 265.75C141.804 262.403 146.526 257.755 150.632 252.947C156.729 245.848 161.766 238.072 165.617 229.817C167.403 225.966 169.082 221.825 173.25 219.149C175.794 217.503 179.091 216.582 182.352 215.866C192.183 213.707 202.537 213.117 212.46 211.194C222.382 209.271 232.339 205.684 237.733 199.275C245.365 190.205 241.803 178.585 241.839 167.918C241.9 143.581 261.739 121.798 269.061 98.073C271.453 90.322 272.343 81.7456 267 74.8292C263.372 70.1351 257.251 66.7471 250.82 64.1302C236.669 58.3748 220.585 55.8123 204.766 53.3179C182.78 49.8528 156.082 49.4039 139.041 38.1924C122.713 27.4526 100.34 19.7833 78.0587 19.7833Z" fill="#EF5B59"/>
<g opacity="0.5">
<path opacity="0.5" d="M13.9112 158.443C12.8224 159.877 11.9268 161.958 13.3515 164.385C16.1501 169.147 23.0701 168.167 26.4334 172.725C27.3321 173.988 27.833 175.444 27.8835 176.939C28.0108 179.519 27.1152 181.551 26.6522 183.823C26.0466 186.503 26.5186 189.287 27.9853 191.688C29.6363 194.194 32.1278 196.175 35.1088 197.352C37.714 198.377 40.1971 198.64 42.6903 199.139C45.7833 199.772 48.7959 200.683 51.6812 201.861C53.0526 202.373 54.3425 203.044 55.5178 203.856C56.9512 204.977 58.2521 206.227 59.4001 207.584L70.2228 219.494C71.5979 221.1 73.1304 222.593 74.8022 223.957C76.6261 225.268 78.6301 226.367 80.7656 227.227C85.0855 229.145 89.6039 231.109 93.3539 230.887C97.104 230.665 99.7091 227.44 97.9333 222.932C96.2542 218.641 91.5222 215.027 89.3749 210.745C85.9912 203.997 90.4231 198.953 87.589 192.196C84.8718 185.701 77.2547 181.347 72.3904 175.415C68.8998 171.197 66.9561 166.29 63.8116 161.859C59.2322 155.509 52.4139 150.652 46.0028 148.193C40.3644 146.057 34.1902 145.295 28.1125 145.985C25.7923 146.212 23.5077 146.597 21.8591 147.835C20.1087 149.15 20.3326 151.609 19.1928 153.355C17.8852 155.364 15.3919 156.502 13.9112 158.443Z" fill="#EF5B59"/>
<path opacity="0.5" d="M20.704 149.309C20.704 149.309 74.8836 194.459 96.7325 229.613" stroke="#535461" stroke-width="2" stroke-miterlimit="10"/>
<path opacity="0.5" d="M13.5601 164.661C13.5601 164.661 35.2106 160.911 50.1954 175.954" stroke="#535461" stroke-width="2" stroke-miterlimit="10"/>
<path opacity="0.5" d="M28.947 193.012C28.947 193.012 52.8617 178.104 61.1352 186.776" stroke="#535461" stroke-width="2" stroke-miterlimit="10"/>
<path opacity="0.5" d="M45.901 148.085C45.901 148.085 43.3823 159.496 52.4444 178.136" stroke="#535461" stroke-width="2" stroke-miterlimit="10"/>
<path opacity="0.5" d="M87.5636 192.373C87.5636 192.373 85.4469 199.856 68.4318 194.355" stroke="#535461" stroke-width="2" stroke-miterlimit="10"/>
<path opacity="0.5" d="M70.2889 218.551C70.2889 218.551 80.674 207.852 75.9521 202.6" stroke="#535461" stroke-width="2" stroke-miterlimit="10"/>
</g>
<path d="M3.72913 106.073C1.18501 108.754 -1.19629 112.464 0.676187 116.124C4.27866 123.308 17.6149 119.793 22.3724 126.483C23.7971 128.483 23.9905 130.927 23.6598 133.109C23.0186 137.377 20.6475 141 19.0091 144.901C17.3707 148.801 16.521 153.518 18.831 157.636C21.0546 161.623 25.7409 164.14 30.2796 165.142C34.8183 166.144 39.3672 165.918 43.9008 166.049C49.2867 166.237 54.6345 166.94 59.8524 168.145C62.1457 168.607 64.341 169.394 66.3552 170.476C68.6703 171.796 70.5428 173.732 72.3746 175.637L88.6569 192.549C90.8195 194.817 93.0277 197.085 95.7093 198.749C98.8029 200.668 102.324 201.643 105.789 202.582C113.243 204.614 121.054 206.664 128.177 205.271C135.301 203.879 141.28 197.81 139.499 190.785C137.804 184.095 130.162 179.351 127.587 172.798C123.516 162.471 133.566 152.892 130.548 142.384C127.658 132.306 114.846 127.108 107.723 118.577C102.634 112.464 100.63 104.817 96.1824 98.3133C89.7611 88.9251 78.567 82.7071 67.4237 80.3442C56.2805 77.9812 45.0711 79.0833 34.6198 81.4463C30.1931 82.4486 25.7663 83.714 22.2554 86.2175C18.5257 88.8798 18.0983 92.9208 15.3812 96.1318C12.2316 99.8644 7.1586 102.445 3.72913 106.073Z" fill="#EF5B59"/>
<path d="M19.5795 89.0204C19.5795 89.0204 105.912 149.568 134.96 202.223" stroke="#535461" stroke-width="2" stroke-miterlimit="10"/>
<path d="M0.951477 116.505C0.951477 116.505 42.8633 104.418 65.8469 125.421" stroke="#535461" stroke-width="2" stroke-miterlimit="10"/>
<path d="M20.1851 159.591C20.1851 159.591 70.1058 128.297 82.7246 140.501" stroke="#535461" stroke-width="2" stroke-miterlimit="10"/>
<path d="M67.297 80.1673C67.297 80.1673 58.6928 99.8463 69.3323 128.451" stroke="#535461" stroke-width="2" stroke-miterlimit="10"/>
<path d="M130.417 142.669C130.417 142.669 123.899 155.699 93.8323 151.141" stroke="#535461" stroke-width="2" stroke-miterlimit="10"/>
<path d="M89.0951 190.93C89.0951 190.93 112.231 170.303 105.159 162.811" stroke="#535461" stroke-width="2" stroke-miterlimit="10"/>
<path opacity="0.1" d="M314.438 349.986C445.11 349.986 551.041 324.701 551.041 293.511C551.041 262.321 445.11 237.037 314.438 237.037C183.766 237.037 77.8348 262.321 77.8348 293.511C77.8348 324.701 183.766 349.986 314.438 349.986Z" fill="#EF5B59"/>
<path d="M498.724 0.185944C498.724 0.185944 480.493 16.4362 490.786 40.5508C501.08 64.6654 473.14 104.767 473.14 104.767C473.14 104.767 473.44 104.726 473.995 104.64C511.439 98.7442 530.047 60.5745 509.226 32.2148C501.487 21.6746 495.131 9.31112 498.724 0.185944Z" fill="#EF5B59"/>
<path d="M498.724 0.185944C498.724 0.185944 488.43 20.1053 498.724 36.3556C509.017 52.6058 500.489 98.2136 473.14 104.767" stroke="#535461" stroke-width="2" stroke-miterlimit="10"/>
<path d="M531.197 65.9172C531.197 65.9172 510.391 62.9647 508.498 79.5823C506.605 96.1999 468.495 98.5039 468.495 98.5039L469.207 98.9257C500.672 117.335 530.775 110.654 526.195 86.2266C524.531 77.1196 524.669 67.9763 531.197 65.9172Z" fill="#EF5B59"/>
<path opacity="0.2" d="M531.197 65.9172C531.197 65.9172 510.391 62.9647 508.498 79.5823C506.605 96.1999 468.495 98.5039 468.495 98.5039L469.207 98.9257C500.672 117.335 530.775 110.654 526.195 86.2266C524.531 77.1196 524.669 67.9763 531.197 65.9172Z" fill="#F5F5F5"/>
<path d="M531.197 65.9172C531.197 65.9172 515.047 69.0919 516.375 82.1629C517.703 95.2339 492.394 110.94 468.495 98.4903" stroke="#535461" stroke-width="2" stroke-miterlimit="10"/>
<path d="M125.527 126.9C125.527 126.9 118.78 106.491 126.794 91.4604C130.199 85.1777 131.226 78.0798 129.72 71.2327C128.977 67.9877 127.902 64.8103 126.509 61.7401" stroke="#535461" stroke-width="2" stroke-miterlimit="10"/>
<path d="M131.485 52.2385C131.485 54.742 126.397 61.9941 126.397 61.9941C126.397 61.9941 121.309 54.7375 121.309 52.2385C121.309 51.0356 121.845 49.882 122.799 49.0315C123.753 48.181 125.047 47.7031 126.397 47.7031C127.746 47.7031 129.041 48.181 129.995 49.0315C130.949 49.882 131.485 51.0356 131.485 52.2385Z" fill="#EF5B59"/>
<path d="M139.891 66.0986C138.365 68.1985 129.674 71.8268 129.674 71.8268C129.674 71.8268 129.832 63.273 131.358 61.1732C131.705 60.644 132.169 60.1831 132.722 59.8183C133.274 59.4534 133.904 59.1922 134.573 59.0504C135.242 58.9086 135.936 58.8891 136.614 58.9932C137.292 59.0972 137.939 59.3227 138.516 59.6559C139.093 59.989 139.589 60.4231 139.973 60.9317C140.356 61.4403 140.62 62.013 140.749 62.6152C140.877 63.2174 140.868 63.8365 140.72 64.4352C140.573 65.0339 140.291 65.5998 139.891 66.0986Z" fill="#EF5B59"/>
<path d="M139.525 89.7823C137.016 90.9071 127.46 90.1316 127.46 90.1316C127.46 90.1316 132.442 82.8205 134.945 81.6958C135.544 81.397 136.205 81.2093 136.888 81.1442C137.57 81.079 138.261 81.1377 138.917 81.3166C139.574 81.4956 140.183 81.7911 140.708 82.1854C141.233 82.5797 141.663 83.0646 141.972 83.611C142.282 84.1574 142.464 84.7538 142.507 85.3646C142.551 85.9753 142.456 86.5876 142.227 87.1646C141.998 87.7416 141.641 88.2713 141.177 88.722C140.712 89.1727 140.15 89.5349 139.525 89.7869V89.7823Z" fill="#EF5B59"/>
<path d="M134.721 107.643C132.462 109.13 122.896 109.801 122.896 109.801C122.896 109.801 126.417 101.846 128.676 100.359C129.21 99.9701 129.826 99.6819 130.488 99.5119C131.15 99.3418 131.844 99.2933 132.528 99.3694C133.212 99.4455 133.871 99.6446 134.466 99.9545C135.06 100.265 135.578 100.679 135.988 101.173C136.398 101.666 136.691 102.229 136.849 102.827C137.008 103.424 137.028 104.045 136.91 104.65C136.791 105.255 136.536 105.832 136.16 106.346C135.784 106.861 135.294 107.302 134.721 107.643Z" fill="#EF5B59"/>
<path d="M119.004 72.3121C121.039 74.0536 130.396 75.8633 130.396 75.8633C130.396 75.8633 128.102 67.559 126.087 65.8174C125.616 65.3697 125.048 65.0117 124.418 64.7652C123.788 64.5187 123.108 64.3887 122.419 64.3832C121.731 64.3777 121.049 64.4967 120.413 64.733C119.778 64.9694 119.203 65.3182 118.724 65.7583C118.244 66.1984 117.87 66.7206 117.623 67.2934C117.376 67.8663 117.263 68.4777 117.289 69.0908C117.315 69.704 117.481 70.306 117.775 70.8604C118.07 71.4149 118.488 71.9103 119.004 72.3166V72.3121Z" fill="#EF5B59"/>
<path d="M113.676 93.2655C116.185 94.3903 125.741 93.6147 125.741 93.6147C125.741 93.6147 120.759 86.3037 118.256 85.1789C117.06 84.6975 115.703 84.6462 114.466 85.0356C113.229 85.4251 112.209 86.2253 111.618 87.2692C111.027 88.3131 110.911 89.52 111.295 90.6382C111.678 91.7563 112.532 92.6991 113.676 93.27V93.2655Z" fill="#EF5B59"/>
<path d="M111.641 114.264C113.9 115.752 123.466 116.423 123.466 116.423C123.466 116.423 119.945 108.468 117.686 106.98C116.599 106.334 115.274 106.085 113.987 106.285C112.7 106.486 111.548 107.12 110.771 108.056C109.994 108.992 109.651 110.159 109.813 111.315C109.975 112.471 110.629 113.527 111.641 114.264Z" fill="#EF5B59"/>
<path d="M545.668 245.591H502.372C503.374 243.807 503.897 241.839 503.899 239.844V64.1076C503.896 60.6822 502.367 57.3979 499.649 54.9767C496.931 52.5554 493.245 51.1953 489.402 51.1953H154.255C150.41 51.1953 146.723 52.5567 144.005 54.9799C141.286 57.4031 139.759 60.6897 139.759 64.1166V239.844C139.761 241.839 140.283 243.807 141.285 245.591H96.4578C95.4416 245.591 94.4671 245.951 93.7485 246.591C93.03 247.231 92.6263 248.1 92.6263 249.006V251.759C92.6263 256.828 94.8854 261.689 98.9065 265.273C102.928 268.857 108.381 270.871 114.068 270.871H528.088C533.775 270.871 539.229 268.857 543.25 265.273C547.271 261.689 549.53 256.828 549.53 251.759V249.006C549.53 248.555 549.43 248.109 549.235 247.693C549.041 247.276 548.756 246.899 548.397 246.581C548.038 246.264 547.612 246.013 547.144 245.843C546.675 245.673 546.174 245.587 545.668 245.591ZM278.897 256.521L275.182 252.761H367.335L363.224 256.521H278.897Z" fill="url(#paint0_linear_6_2395)"/>
<path d="M487.922 53.6762H155.7C149.164 53.6762 143.865 58.3993 143.865 64.2255V240.139C143.865 245.965 149.164 250.688 155.7 250.688H487.922C494.458 250.688 499.757 245.965 499.757 240.139V64.2255C499.757 58.3993 494.458 53.6762 487.922 53.6762Z" fill="#535461"/>
<path d="M491.519 82.3942H151.36V243.341H491.519V82.3942Z" fill="#F1F1F4"/>
<path d="M321.439 71.0376C323.094 71.0376 324.436 69.8416 324.436 68.3663C324.436 66.8909 323.094 65.6949 321.439 65.6949C319.784 65.6949 318.442 66.8909 318.442 68.3663C318.442 69.8416 319.784 71.0376 321.439 71.0376Z" fill="white"/>
<path d="M373.96 243.672L362.257 254.358H279.828L269.264 243.672H101.531C100.537 243.672 99.5849 244.024 98.8826 244.65C98.1803 245.276 97.7858 246.125 97.7858 247.01V249.704C97.7858 252.159 98.3286 254.589 99.3832 256.857C100.438 259.124 101.983 261.184 103.932 262.919C105.88 264.653 108.193 266.028 110.738 266.966C113.283 267.903 116.011 268.384 118.765 268.381H523.381C528.938 268.381 534.268 266.413 538.198 262.911C542.127 259.408 544.335 254.658 544.335 249.704V247.01C544.335 246.125 543.94 245.276 543.238 244.65C542.535 244.024 541.583 243.672 540.59 243.672H373.96Z" fill="#535461"/>
<path d="M265.133 94.6579H172.135V157.128H265.133V94.6579Z" fill="white"/>
<path opacity="0.2" d="M212.23 100.064H181.233V115.679H212.23V100.064Z" fill="#EF5B59"/>
<path d="M256.035 100.064H219.644V103.67H256.035V100.064Z" fill="#E6E8EC"/>
<path d="M245.253 106.069H219.644V109.674H245.253V106.069Z" fill="#E6E8EC"/>
<path d="M256.035 112.074H219.644V115.679H256.035V112.074Z" fill="#E6E8EC"/>
<path d="M256.035 118.083H181.233V121.689H256.035V118.083Z" fill="#E6E8EC"/>
<path d="M256.035 124.088H181.233V127.694H256.035V124.088Z" fill="#E6E8EC"/>
<path d="M256.035 130.097H181.233V133.703H256.035V130.097Z" fill="#E6E8EC"/>
<path d="M249.97 136.102H181.233V139.708H249.97V136.102Z" fill="#E6E8EC"/>
<path d="M256.035 142.107H181.233V145.713H256.035V142.107Z" fill="#E6E8EC"/>
<path d="M256.035 148.116H181.233V151.722H256.035V148.116Z" fill="#E6E8EC"/>
<path d="M367.564 94.6579H274.567V157.128H367.564V94.6579Z" fill="white"/>
<path opacity="0.2" d="M314.657 100.064H283.659V115.679H314.657V100.064Z" fill="#EF5B59"/>
<path d="M358.466 100.064H322.075V103.67H358.466V100.064Z" fill="#E6E8EC"/>
<path d="M347.684 106.069H322.075V109.674H347.684V106.069Z" fill="#E6E8EC"/>
<path d="M358.466 112.074H322.075V115.679H358.466V112.074Z" fill="#E6E8EC"/>
<path d="M358.461 118.083H283.659V121.689H358.461V118.083Z" fill="#E6E8EC"/>
<path d="M358.461 124.088H283.659V127.694H358.461V124.088Z" fill="#E6E8EC"/>
<path d="M358.461 130.097H283.659V133.703H358.461V130.097Z" fill="#E6E8EC"/>
<path d="M352.396 136.102H283.659V139.708H352.396V136.102Z" fill="#E6E8EC"/>
<path d="M358.461 142.107H283.659V145.713H358.461V142.107Z" fill="#E6E8EC"/>
<path d="M358.461 148.116H283.659V151.722H358.461V148.116Z" fill="#E6E8EC"/>
<path d="M469.991 94.6579H376.993V157.128H469.991V94.6579Z" fill="white"/>
<path opacity="0.2" d="M417.088 100.064H386.09V115.679H417.088V100.064Z" fill="#EF5B59"/>
<path d="M460.893 100.064H424.502V103.67H460.893V100.064Z" fill="#E6E8EC"/>
<path d="M450.111 106.069H424.502V109.674H450.111V106.069Z" fill="#E6E8EC"/>
<path d="M460.893 112.074H424.502V115.679H460.893V112.074Z" fill="#E6E8EC"/>
<path d="M460.893 118.083H386.09V121.689H460.893V118.083Z" fill="#E6E8EC"/>
<path d="M460.893 124.088H386.09V127.694H460.893V124.088Z" fill="#E6E8EC"/>
<path d="M460.893 130.097H386.09V133.703H460.893V130.097Z" fill="#E6E8EC"/>
<path d="M454.828 136.102H386.09V139.708H454.828V136.102Z" fill="#E6E8EC"/>
<path d="M460.893 142.107H386.09V145.713H460.893V142.107Z" fill="#E6E8EC"/>
<path d="M460.893 148.116H386.09V151.722H460.893V148.116Z" fill="#E6E8EC"/>
<path d="M265.133 164.934H172.135V227.404H265.133V164.934Z" fill="white"/>
<path opacity="0.2" d="M212.23 170.34H181.233V185.955H212.23V170.34Z" fill="#EF5B59"/>
<path d="M256.035 170.34H219.644V173.945H256.035V170.34Z" fill="#E6E8EC"/>
<path d="M245.253 176.349H219.644V179.955H245.253V176.349Z" fill="#E6E8EC"/>
<path d="M256.035 182.354H219.644V185.96H256.035V182.354Z" fill="#E6E8EC"/>
<path d="M256.035 188.359H181.233V191.964H256.035V188.359Z" fill="#E6E8EC"/>
<path d="M256.035 194.368H181.233V197.974H256.035V194.368Z" fill="#E6E8EC"/>
<path d="M256.035 200.373H181.233V203.979H256.035V200.373Z" fill="#E6E8EC"/>
<path d="M249.97 206.382H181.233V209.988H249.97V206.382Z" fill="#E6E8EC"/>
<path d="M256.035 212.387H181.233V215.993H256.035V212.387Z" fill="#E6E8EC"/>
<path d="M256.035 218.392H181.233V221.998H256.035V218.392Z" fill="#E6E8EC"/>
<path d="M367.564 164.934H274.567V227.404H367.564V164.934Z" fill="white"/>
<path opacity="0.2" d="M314.657 170.34H283.659V185.955H314.657V170.34Z" fill="#EF5B59"/>
<path d="M358.466 170.34H322.075V173.945H358.466V170.34Z" fill="#E6E8EC"/>
<path d="M347.684 176.349H322.075V179.955H347.684V176.349Z" fill="#E6E8EC"/>
<path d="M358.466 182.354H322.075V185.96H358.466V182.354Z" fill="#E6E8EC"/>
<path d="M358.461 188.359H283.659V191.964H358.461V188.359Z" fill="#E6E8EC"/>
<path d="M358.461 194.368H283.659V197.974H358.461V194.368Z" fill="#E6E8EC"/>
<path d="M358.461 200.373H283.659V203.979H358.461V200.373Z" fill="#E6E8EC"/>
<path d="M352.396 206.382H283.659V209.988H352.396V206.382Z" fill="#E6E8EC"/>
<path d="M358.461 212.387H283.659V215.993H358.461V212.387Z" fill="#E6E8EC"/>
<path d="M358.461 218.392H283.659V221.998H358.461V218.392Z" fill="#E6E8EC"/>
<path opacity="0.1" d="M469.991 164.934H376.993V227.404H469.991V164.934Z" fill="black"/>
<path d="M224.936 115.679H81.4474C79.7198 115.676 78.0084 115.977 76.4112 116.564C74.814 117.151 73.3624 118.013 72.1393 119.101C70.9163 120.189 69.9458 121.48 69.2834 122.903C68.621 124.325 68.2797 125.85 68.2791 127.39V304.605C68.2811 306.144 68.6232 307.667 69.2858 309.088C69.9485 310.509 70.9187 311.8 72.1411 312.886C73.3635 313.973 74.8141 314.834 76.41 315.421C78.006 316.008 79.7159 316.309 81.4423 316.306H224.931C226.657 316.309 228.367 316.008 229.963 315.421C231.559 314.834 233.009 313.973 234.232 312.886C235.454 311.8 236.424 310.509 237.087 309.088C237.75 307.667 238.092 306.144 238.094 304.605V127.39C238.093 125.851 237.752 124.327 237.091 122.905C236.429 121.483 235.459 120.192 234.237 119.104C233.015 118.017 231.565 117.154 229.969 116.567C228.373 115.979 226.663 115.678 224.936 115.679Z" fill="url(#paint1_linear_6_2395)"/>
<path d="M225.902 118.083H80.4807C74.8604 118.083 70.3042 122.144 70.3042 127.154V305.43C70.3042 310.44 74.8604 314.501 80.4807 314.501H225.902C231.523 314.501 236.079 310.44 236.079 305.43V127.154C236.079 122.144 231.523 118.083 225.902 118.083Z" fill="#535461"/>
<path d="M227.653 136.665H78.7252V295.924H227.653V136.665Z" fill="#F1F1F4"/>
<path d="M152.515 128.895C153.631 128.895 154.535 128.089 154.535 127.095C154.535 126.1 153.631 125.294 152.515 125.294C151.399 125.294 150.495 126.1 150.495 127.095C150.495 128.089 151.399 128.895 152.515 128.895Z" fill="white"/>
<path d="M152.515 310.297C155.865 310.297 158.58 307.877 158.58 304.891C158.58 301.905 155.865 299.485 152.515 299.485C149.165 299.485 146.45 301.905 146.45 304.891C146.45 307.877 149.165 310.297 152.515 310.297Z" fill="white"/>
<path d="M127.638 152.937H85.1619V181.474H127.638V152.937Z" fill="white"/>
<path opacity="0.2" d="M103.479 155.409H89.3188V162.543H103.479V155.409Z" fill="#EF5B59"/>
<path d="M123.486 155.409H106.863V157.056H123.486V155.409Z" fill="#E6E8EC"/>
<path d="M118.561 158.153H106.863V159.8H118.561V158.153Z" fill="#E6E8EC"/>
<path d="M123.486 160.897H106.863V162.543H123.486V160.897Z" fill="#E6E8EC"/>
<path d="M123.486 163.641H89.3188V165.287H123.486V163.641Z" fill="#E6E8EC"/>
<path d="M123.486 166.385H89.3188V168.031H123.486V166.385Z" fill="#E6E8EC"/>
<path d="M123.486 169.129H89.3188V170.775H123.486V169.129Z" fill="#E6E8EC"/>
<path d="M120.718 171.873H89.3188V173.519H120.718V171.873Z" fill="#E6E8EC"/>
<path d="M123.486 174.617H89.3188V176.263H123.486V174.617Z" fill="#E6E8EC"/>
<path d="M123.486 177.36H89.3188V179.007H123.486V177.36Z" fill="#E6E8EC"/>
<path d="M174.43 152.937H131.953V181.474H174.43V152.937Z" fill="white"/>
<path opacity="0.2" d="M150.266 155.409H136.105V162.543H150.266V155.409Z" fill="#EF5B59"/>
<path d="M170.278 155.409H153.655V157.056H170.278V155.409Z" fill="#E6E8EC"/>
<path d="M165.353 158.153H153.655V159.8H165.353V158.153Z" fill="#E6E8EC"/>
<path d="M170.278 160.897H153.655V162.543H170.278V160.897Z" fill="#E6E8EC"/>
<path d="M170.273 163.641H136.105V165.287H170.273V163.641Z" fill="#E6E8EC"/>
<path d="M170.273 166.385H136.105V168.031H170.273V166.385Z" fill="#E6E8EC"/>
<path d="M170.273 169.129H136.105V170.775H170.273V169.129Z" fill="#E6E8EC"/>
<path d="M167.505 171.873H136.105V173.519H167.505V171.873Z" fill="#E6E8EC"/>
<path d="M170.273 174.617H136.105V176.263H170.273V174.617Z" fill="#E6E8EC"/>
<path d="M170.273 177.36H136.105V179.007H170.273V177.36Z" fill="#E6E8EC"/>
<path d="M221.216 152.937H178.74V181.474H221.216V152.937Z" fill="white"/>
<path opacity="0.2" d="M197.057 155.409H182.897V162.543H197.057V155.409Z" fill="#EF5B59"/>
<path d="M217.064 155.409H200.441V157.056H217.064V155.409Z" fill="#E6E8EC"/>
<path d="M212.139 158.153H200.441V159.8H212.139V158.153Z" fill="#E6E8EC"/>
<path d="M217.064 160.897H200.441V162.543H217.064V160.897Z" fill="#E6E8EC"/>
<path d="M217.064 163.641H182.897V165.287H217.064V163.641Z" fill="#E6E8EC"/>
<path d="M217.064 166.385H182.897V168.031H217.064V166.385Z" fill="#E6E8EC"/>
<path d="M217.064 169.129H182.897V170.775H217.064V169.129Z" fill="#E6E8EC"/>
<path d="M214.296 171.873H182.897V173.519H214.296V171.873Z" fill="#E6E8EC"/>
<path d="M217.064 174.617H182.897V176.263H217.064V174.617Z" fill="#E6E8EC"/>
<path d="M217.064 177.36H182.897V179.007H217.064V177.36Z" fill="#E6E8EC"/>
<path d="M127.638 185.039H85.1619V213.575H127.638V185.039Z" fill="white"/>
<path opacity="0.2" d="M103.479 187.511H89.3188V194.645H103.479V187.511Z" fill="#EF5B59"/>
<path d="M123.486 187.511H106.863V189.157H123.486V187.511Z" fill="#E6E8EC"/>
<path d="M118.561 190.255H106.863V191.901H118.561V190.255Z" fill="#E6E8EC"/>
<path d="M123.486 192.998H106.863V194.645H123.486V192.998Z" fill="#E6E8EC"/>
<path d="M123.486 195.742H89.3188V197.389H123.486V195.742Z" fill="#E6E8EC"/>
<path d="M123.486 198.486H89.3188V200.133H123.486V198.486Z" fill="#E6E8EC"/>
<path d="M123.486 201.23H89.3188V202.876H123.486V201.23Z" fill="#E6E8EC"/>
<path d="M120.718 203.974H89.3188V205.62H120.718V203.974Z" fill="#E6E8EC"/>
<path d="M123.486 206.718H89.3188V208.364H123.486V206.718Z" fill="#E6E8EC"/>
<path d="M123.486 209.462H89.3188V211.108H123.486V209.462Z" fill="#E6E8EC"/>
<path d="M174.43 185.039H131.953V213.575H174.43V185.039Z" fill="white"/>
<path opacity="0.2" d="M150.266 187.511H136.105V194.645H150.266V187.511Z" fill="#EF5B59"/>
<path d="M170.278 187.511H153.655V189.157H170.278V187.511Z" fill="#E6E8EC"/>
<path d="M165.353 190.255H153.655V191.901H165.353V190.255Z" fill="#E6E8EC"/>
<path d="M170.278 192.998H153.655V194.645H170.278V192.998Z" fill="#E6E8EC"/>
<path d="M170.273 195.742H136.105V197.389H170.273V195.742Z" fill="#E6E8EC"/>
<path d="M170.273 198.486H136.105V200.133H170.273V198.486Z" fill="#E6E8EC"/>
<path d="M170.273 201.23H136.105V202.876H170.273V201.23Z" fill="#E6E8EC"/>
<path d="M167.505 203.974H136.105V205.62H167.505V203.974Z" fill="#E6E8EC"/>
<path d="M170.273 206.718H136.105V208.364H170.273V206.718Z" fill="#E6E8EC"/>
<path d="M170.273 209.462H136.105V211.108H170.273V209.462Z" fill="#E6E8EC"/>
<path d="M221.216 185.039H178.74V213.575H221.216V185.039Z" fill="white"/>
<path opacity="0.2" d="M197.057 187.511H182.897V194.645H197.057V187.511Z" fill="#EF5B59"/>
<path d="M217.064 187.511H200.441V189.157H217.064V187.511Z" fill="#E6E8EC"/>
<path d="M212.139 190.255H200.441V191.901H212.139V190.255Z" fill="#E6E8EC"/>
<path d="M217.064 192.998H200.441V194.645H217.064V192.998Z" fill="#E6E8EC"/>
<path d="M217.064 195.742H182.897V197.389H217.064V195.742Z" fill="#E6E8EC"/>
<path d="M217.064 198.486H182.897V200.133H217.064V198.486Z" fill="#E6E8EC"/>
<path d="M217.064 201.23H182.897V202.876H217.064V201.23Z" fill="#E6E8EC"/>
<path d="M214.296 203.974H182.897V205.62H214.296V203.974Z" fill="#E6E8EC"/>
<path d="M217.064 206.718H182.897V208.364H217.064V206.718Z" fill="#E6E8EC"/>
<path d="M217.064 209.462H182.897V211.108H217.064V209.462Z" fill="#E6E8EC"/>
<path d="M127.638 218.41H85.1619V246.947H127.638V218.41Z" fill="white"/>
<path opacity="0.2" d="M103.479 220.882H89.3188V228.016H103.479V220.882Z" fill="#EF5B59"/>
<path d="M123.486 220.882H106.863V222.528H123.486V220.882Z" fill="#E6E8EC"/>
<path d="M118.561 223.626H106.863V225.272H118.561V223.626Z" fill="#E6E8EC"/>
<path d="M123.486 226.37H106.863V228.016H123.486V226.37Z" fill="#E6E8EC"/>
<path d="M123.486 229.114H89.3188V230.76H123.486V229.114Z" fill="#E6E8EC"/>
<path d="M123.486 231.858H89.3188V233.504H123.486V231.858Z" fill="#E6E8EC"/>
<path d="M123.486 234.601H89.3188V236.248H123.486V234.601Z" fill="#E6E8EC"/>
<path d="M120.718 237.345H89.3188V238.992H120.718V237.345Z" fill="#E6E8EC"/>
<path d="M123.486 240.089H89.3188V241.736H123.486V240.089Z" fill="#E6E8EC"/>
<path d="M123.486 242.833H89.3188V244.48H123.486V242.833Z" fill="#E6E8EC"/>
<path d="M174.43 218.41H131.953V246.947H174.43V218.41Z" fill="white"/>
<path opacity="0.2" d="M150.266 220.882H136.105V228.016H150.266V220.882Z" fill="#EF5B59"/>
<path d="M170.278 220.882H153.655V222.528H170.278V220.882Z" fill="#E6E8EC"/>
<path d="M165.353 223.626H153.655V225.272H165.353V223.626Z" fill="#E6E8EC"/>
<path d="M170.278 226.37H153.655V228.016H170.278V226.37Z" fill="#E6E8EC"/>
<path d="M170.273 229.114H136.105V230.76H170.273V229.114Z" fill="#E6E8EC"/>
<path d="M170.273 231.858H136.105V233.504H170.273V231.858Z" fill="#E6E8EC"/>
<path d="M170.273 234.601H136.105V236.248H170.273V234.601Z" fill="#E6E8EC"/>
<path d="M167.505 237.345H136.105V238.992H167.505V237.345Z" fill="#E6E8EC"/>
<path d="M170.273 240.089H136.105V241.736H170.273V240.089Z" fill="#E6E8EC"/>
<path d="M170.273 242.833H136.105V244.48H170.273V242.833Z" fill="#E6E8EC"/>
<path d="M221.216 218.41H178.74V246.947H221.216V218.41Z" fill="white"/>
<path opacity="0.2" d="M197.057 220.882H182.897V228.016H197.057V220.882Z" fill="#EF5B59"/>
<path d="M217.064 220.882H200.441V222.528H217.064V220.882Z" fill="#E6E8EC"/>
<path d="M212.139 223.626H200.441V225.272H212.139V223.626Z" fill="#E6E8EC"/>
<path d="M217.064 226.37H200.441V228.016H217.064V226.37Z" fill="#E6E8EC"/>
<path d="M217.064 229.114H182.897V230.76H217.064V229.114Z" fill="#E6E8EC"/>
<path d="M217.064 231.858H182.897V233.504H217.064V231.858Z" fill="#E6E8EC"/>
<path d="M217.064 234.601H182.897V236.248H217.064V234.601Z" fill="#E6E8EC"/>
<path d="M214.296 237.345H182.897V238.992H214.296V237.345Z" fill="#E6E8EC"/>
<path d="M217.064 240.089H182.897V241.736H217.064V240.089Z" fill="#E6E8EC"/>
<path d="M217.064 242.833H182.897V244.48H217.064V242.833Z" fill="#E6E8EC"/>
<path d="M127.638 250.512H85.1619V279.048H127.638V250.512Z" fill="white"/>
<path opacity="0.2" d="M103.479 252.983H89.3188V260.117H103.479V252.983Z" fill="#EF5B59"/>
<path d="M123.486 252.983H106.863V254.63H123.486V252.983Z" fill="#E6E8EC"/>
<path d="M118.561 255.727H106.863V257.374H118.561V255.727Z" fill="#E6E8EC"/>
<path d="M123.486 258.471H106.863V260.117H123.486V258.471Z" fill="#E6E8EC"/>
<path d="M123.486 261.215H89.3188V262.861H123.486V261.215Z" fill="#E6E8EC"/>
<path d="M123.486 263.959H89.3188V265.605H123.486V263.959Z" fill="#E6E8EC"/>
<path d="M123.486 266.703H89.3188V268.349H123.486V266.703Z" fill="#E6E8EC"/>
<path d="M120.718 269.447H89.3188V271.093H120.718V269.447Z" fill="#E6E8EC"/>
<path d="M123.486 272.191H89.3188V273.837H123.486V272.191Z" fill="#E6E8EC"/>
<path d="M123.486 274.935H89.3188V276.581H123.486V274.935Z" fill="#E6E8EC"/>
<path d="M174.43 250.512H131.953V279.048H174.43V250.512Z" fill="white"/>
<path opacity="0.2" d="M150.266 252.983H136.105V260.117H150.266V252.983Z" fill="#EF5B59"/>
<path d="M170.278 252.983H153.655V254.63H170.278V252.983Z" fill="#E6E8EC"/>
<path d="M165.353 255.727H153.655V257.374H165.353V255.727Z" fill="#E6E8EC"/>
<path d="M170.278 258.471H153.655V260.117H170.278V258.471Z" fill="#E6E8EC"/>
<path d="M170.273 261.215H136.105V262.861H170.273V261.215Z" fill="#E6E8EC"/>
<path d="M170.273 263.959H136.105V265.605H170.273V263.959Z" fill="#E6E8EC"/>
<path d="M170.273 266.703H136.105V268.349H170.273V266.703Z" fill="#E6E8EC"/>
<path d="M167.505 269.447H136.105V271.093H167.505V269.447Z" fill="#E6E8EC"/>
<path d="M170.273 272.191H136.105V273.837H170.273V272.191Z" fill="#E6E8EC"/>
<path d="M170.273 274.935H136.105V276.581H170.273V274.935Z" fill="#E6E8EC"/>
<path opacity="0.1" d="M221.216 250.512H178.74V279.048H221.216V250.512Z" fill="black"/>
<path d="M115.564 175.746H41.8864C40.9295 175.744 39.9817 175.91 39.0969 176.235C38.2121 176.56 37.4077 177.037 36.7297 177.638C36.0517 178.24 35.5133 178.955 35.1453 179.743C34.7772 180.53 34.5868 181.374 34.5848 182.227V326.039C34.5868 326.892 34.7772 327.736 35.1453 328.523C35.5133 329.311 36.0517 330.026 36.7297 330.628C37.4077 331.229 38.2121 331.706 39.0969 332.031C39.9817 332.356 40.9295 332.522 41.8864 332.52H115.564C116.521 332.522 117.469 332.356 118.354 332.031C119.238 331.706 120.043 331.229 120.721 330.628C121.399 330.026 121.937 329.311 122.305 328.523C122.673 327.736 122.864 326.892 122.866 326.039V182.231C122.864 181.378 122.674 180.534 122.307 179.746C121.939 178.958 121.401 178.242 120.723 177.64C120.045 177.038 119.24 176.56 118.355 176.235C117.47 175.91 116.521 175.744 115.564 175.746Z" fill="url(#paint2_linear_6_2395)"/>
<path d="M116.597 176.952H40.8585C37.7674 176.952 35.2615 179.186 35.2615 181.941V326.937C35.2615 329.693 37.7674 331.926 40.8585 331.926H116.597C119.688 331.926 122.194 329.693 122.194 326.937V181.941C122.194 179.186 119.688 176.952 116.597 176.952Z" fill="#535461"/>
<path d="M115.788 191.366H41.6625V317.504H115.788V191.366Z" fill="#F1F1F4"/>
<path d="M69.9634 184.758C70.3343 184.758 70.635 184.49 70.635 184.159C70.635 183.828 70.3343 183.56 69.9634 183.56C69.5925 183.56 69.2917 183.828 69.2917 184.159C69.2917 184.49 69.5925 184.758 69.9634 184.758Z" fill="white"/>
<path d="M87.6551 183.556H73.8456C73.5646 183.556 73.3368 183.759 73.3368 184.009V184.304C73.3368 184.555 73.5646 184.758 73.8456 184.758H87.6551C87.9361 184.758 88.1639 184.555 88.1639 184.304V184.009C88.1639 183.759 87.9361 183.556 87.6551 183.556Z" fill="white"/>
<path d="M78.3894 327.717C80.9944 327.717 83.1062 325.835 83.1062 323.513C83.1062 321.191 80.9944 319.309 78.3894 319.309C75.7844 319.309 73.6726 321.191 73.6726 323.513C73.6726 325.835 75.7844 327.717 78.3894 327.717Z" fill="white"/>
<path opacity="0.1" d="M103.998 198.917H53.4519V232.874H103.998V198.917Z" fill="black"/>
<path d="M103.998 237.119H53.4519V271.075H103.998V237.119Z" fill="white"/>
<path opacity="0.2" d="M75.2449 240.058H58.3977V248.548H75.2449V240.058Z" fill="#EF5B59"/>
<path d="M99.0528 240.058H79.2748V242.017H99.0528V240.058Z" fill="#E6E8EC"/>
<path d="M93.1962 243.323H79.2748V245.282H93.1962V243.323Z" fill="#E6E8EC"/>
<path d="M99.0528 246.584H79.2748V248.543H99.0528V246.584Z" fill="#E6E8EC"/>
<path d="M99.0578 249.849H58.3977V251.809H99.0578V249.849Z" fill="#E6E8EC"/>
<path d="M99.0578 253.115H58.3977V255.074H99.0578V253.115Z" fill="#E6E8EC"/>
<path d="M99.0578 256.38H58.3977V258.34H99.0578V256.38Z" fill="#E6E8EC"/>
<path d="M95.7607 259.646H58.3977V261.605H95.7607V259.646Z" fill="#E6E8EC"/>
<path d="M99.0578 262.911H58.3977V264.871H99.0578V262.911Z" fill="#E6E8EC"/>
<path d="M99.0578 266.177H58.3977V268.136H99.0578V266.177Z" fill="#E6E8EC"/>
<path d="M103.998 275.397H53.4519V309.354H103.998V275.397Z" fill="white"/>
<path opacity="0.2" d="M75.2449 278.336H58.3977V286.826H75.2449V278.336Z" fill="#EF5B59"/>
<path d="M99.0528 278.336H79.2748V280.295H99.0528V278.336Z" fill="#E6E8EC"/>
<path d="M93.1962 281.602H79.2748V283.561H93.1962V281.602Z" fill="#E6E8EC"/>
<path d="M99.0528 284.867H79.2748V286.826H99.0528V284.867Z" fill="#E6E8EC"/>
<path d="M99.0578 288.133H58.3977V290.092H99.0578V288.133Z" fill="#E6E8EC"/>
<path d="M99.0578 291.398H58.3977V293.357H99.0578V291.398Z" fill="#E6E8EC"/>
<path d="M99.0578 294.663H58.3977V296.623H99.0578V294.663Z" fill="#E6E8EC"/>
<path d="M95.7607 297.929H58.3977V299.888H95.7607V297.929Z" fill="#E6E8EC"/>
<path d="M99.0578 301.19H58.3977V303.149H99.0578V301.19Z" fill="#E6E8EC"/>
<path d="M99.0578 304.455H58.3977V306.415H99.0578V304.455Z" fill="#E6E8EC"/>
<path d="M276.627 291.439C273.208 287.742 269.066 283.493 269.646 278.572C270.114 274.585 268.99 270.903 269.214 266.907C269.529 261.229 268.242 256.779 263.652 253.138C260.971 251.01 256.488 249.337 255.155 249.763C252.509 250.607 249.624 250.285 246.902 250.852C244.836 251.305 243.457 251.945 242.607 252.775C240.892 254.135 240.862 256.067 241.646 258.131C240.961 259.246 240.548 260.476 240.434 261.743C240.319 263.009 240.504 264.283 240.979 265.481C241.453 266.679 242.205 267.775 243.186 268.696C244.167 269.618 245.355 270.345 246.673 270.83C244.765 271.538 243.111 273.175 242.475 276.495C242.022 278.776 241.341 281.016 240.44 283.189C240.035 283.36 239.621 283.512 239.198 283.642C239.29 283.674 239.386 283.697 239.483 283.729C239.285 283.797 239.081 283.865 238.883 283.928C239.249 284.055 239.627 284.152 240.012 284.218C238.624 287.43 236.759 290.461 234.466 293.23C234.466 293.23 228.706 294.364 226.467 292.382C226.467 292.382 226.834 292.763 227.327 293.335C225.134 292.523 221.542 291.203 218.469 290.114C216.24 289.325 215.665 290.114 215.696 291.212C215.148 291.269 214.618 291.423 214.139 291.666C213.48 291.289 212.789 290.958 212.073 290.677C210.79 290.396 206.633 288.409 202.471 295.212C200.049 299.172 193.821 306.392 189.064 311.739C179.778 315.544 167.693 320.356 163.205 321.576H160.335C159.959 321.028 159.694 320.669 159.694 320.669L159.47 320.801L159.374 320.669C159.374 320.669 153.721 324.157 147.981 324.184C147.165 324.172 146.352 324.078 145.559 323.903C142.918 323.309 141.061 323.046 139.733 323.068C138.161 323.046 137.27 323.377 136.716 324.003C136.644 324.085 136.577 324.171 136.517 324.261C136.456 324.354 136.4 324.449 136.35 324.547C136.299 324.647 136.253 324.751 136.207 324.86C136.189 324.955 136.196 325.053 136.227 325.146C136.258 325.238 136.312 325.324 136.385 325.395C136.462 325.493 136.545 325.587 136.634 325.676L136.792 325.83C137.929 326.774 139.16 327.623 140.471 328.366C140.944 328.652 141.443 328.942 141.967 329.241L142.959 329.803L143.845 330.298L144.201 330.493L144.598 330.711L145.305 331.096L145.727 331.323L146.521 331.745L147.162 332.085C148.841 332.992 150.52 333.826 152.026 334.584L153.085 335.114L153.187 335.164L153.863 335.5L155.039 336.08L155.848 336.475L156.224 336.661L156.631 336.856L156.713 336.897L157.415 337.237C157.559 337.258 157.708 337.251 157.849 337.217C157.99 337.183 158.122 337.121 158.234 337.037C158.438 336.266 158.936 334.616 159.465 334.489C159.995 334.362 162.305 330.751 162.961 328.348H169.204C170.431 328.256 171.65 328.091 172.853 327.853C171.24 328.878 169.642 329.522 168.4 329.246C165.775 328.665 163.287 330.089 163.037 331.513L163.007 331.599C163.007 331.627 163.007 331.658 163.007 331.686C163.007 331.713 163.007 331.754 163.007 331.79C163.007 331.826 163.007 331.849 163.007 331.876C163.007 331.903 163.007 331.944 163.007 331.98C163.007 332.017 163.007 332.039 163.007 332.067C163.007 332.094 163.007 332.139 163.007 332.171C163.007 332.203 163.007 332.225 163.007 332.253C163.007 332.28 163.007 332.33 163.037 332.366C163.068 332.402 163.037 332.416 163.037 332.439C163.056 332.488 163.078 332.536 163.103 332.584V332.62C163.138 332.68 163.177 332.737 163.221 332.792L163.271 332.851L163.373 332.965L163.444 333.028L163.561 333.128L163.648 333.191L163.785 333.282L163.887 333.341L164.055 333.427L164.167 333.482L164.376 333.568L164.482 333.609C164.594 333.649 164.711 333.69 164.839 333.727C164.966 333.763 165.276 333.845 165.546 333.903L165.816 333.962L166.207 334.044L166.416 334.085L167.271 334.239L167.688 334.307L168.029 334.362L168.812 334.484L170.339 334.706L171.687 334.888L173.443 335.11L173.829 335.155L174.46 335.232L175.366 335.341L175.987 335.414L177.59 335.595L178.099 335.65L179.116 335.758C180.444 335.899 181.732 336.035 182.912 336.153L184.281 336.289L184.973 336.357L185.268 336.384L186.097 336.466L186.56 336.511L187.125 336.566L187.924 336.638H188.01L188.519 336.684C188.583 336.689 188.647 336.683 188.708 336.665C188.769 336.648 188.825 336.619 188.873 336.581C188.921 336.543 188.959 336.497 188.986 336.445C189.013 336.393 189.027 336.337 189.028 336.28C189.028 336.28 189.028 336.248 189.028 336.235C189.076 336.17 189.103 336.095 189.104 336.017C189.117 335.338 189.213 334.663 189.389 334.003C189.425 333.89 189.466 333.772 189.506 333.659L189.557 333.527C189.613 333.386 189.669 333.246 189.735 333.101C189.781 332.998 189.82 332.894 189.852 332.788L189.883 332.688C189.883 332.634 189.913 332.575 189.929 332.516C190.575 330.556 189.796 326.905 189.573 325.472C189.502 325.01 189.385 324.555 189.221 324.112C189.262 324.115 189.303 324.115 189.344 324.112C189.675 324.001 189.987 323.849 190.27 323.658C194.986 322.157 198.97 320.442 200.227 318.724C202.272 318.238 204.445 318.44 206.333 319.29C208.776 320.374 227.261 325.749 235.87 328.234C237.397 329.423 238.628 330.116 239.295 330.048C239.295 330.048 250.25 331.627 254.656 328.543C255.048 328.783 255.292 328.915 255.292 328.915C255.292 328.915 261.693 326.08 262.655 322.397C262.965 321.204 263.245 319.44 263.53 317.49C265.016 316.156 265.852 314.354 265.855 312.474C266.054 306.283 268.746 299.212 270.74 292.913C273.162 293.081 274.098 292.677 276.337 291.697L276.24 291.584L276.627 291.439ZM239.931 300.709L238.71 300.342C239.123 299.849 239.48 299.32 239.773 298.763L239.931 300.709ZM233.041 303.312L240.46 307.281L240.526 308.088C240.436 308.702 240.456 309.326 240.587 309.934C237.321 307.344 233.494 304.201 233.046 303.312H233.041ZM230.014 297.534C229.205 297.235 228.533 296.967 228.075 296.745L229.795 296.84C229.897 297.064 229.972 297.297 230.019 297.534H230.014ZM210.17 303.997C210.17 303.997 211.452 301.448 214.332 305.698C214.78 306.36 215.604 307.408 216.693 308.714L208.318 307.712C209.188 306.588 209.812 305.327 210.16 303.997H210.17Z" fill="url(#paint3_linear_6_2395)"/>
<path d="M228.594 293.752C228.594 293.752 222.722 291.548 218.092 289.897C213.462 288.246 216.24 293.752 216.24 293.752C216.24 293.752 223.964 295.679 223.964 295.956C223.964 296.233 230.451 296.505 230.451 296.505L228.594 293.752Z" fill="#F7C4A7"/>
<path opacity="0.05" d="M228.594 293.752C228.594 293.752 222.722 291.548 218.092 289.897C213.462 288.246 216.24 293.752 216.24 293.752C216.24 293.752 223.964 295.679 223.964 295.956C223.964 296.233 230.451 296.505 230.451 296.505L228.594 293.752Z" fill="black"/>
<path d="M253.603 272C253.603 272 243.101 267.043 241.244 276.681C240.087 282.548 237.452 288.104 233.535 292.931C233.535 292.931 227.974 294.033 225.811 292.106C225.811 292.106 231.062 297.611 228.589 298.165C228.589 298.165 234.151 301.743 236.624 300.641C239.096 299.539 240.949 292.106 241.875 290.178C242.801 288.25 246.2 271.447 253.603 272Z" fill="#575988"/>
<path opacity="0.1" d="M253.603 272C253.603 272 243.101 267.043 241.244 276.681C240.087 282.548 237.452 288.104 233.535 292.931C233.535 292.931 227.974 294.033 225.811 292.106C225.811 292.106 231.062 297.611 228.589 298.165C228.589 298.165 234.151 301.743 236.624 300.641C239.096 299.539 240.949 292.106 241.875 290.178C242.801 288.25 246.2 271.447 253.603 272Z" fill="black"/>
<path d="M247.746 268.694C247.746 268.694 254.234 275.302 254.544 280.808C254.855 286.314 261.958 275.025 262.579 274.749C263.199 274.472 256.396 265.116 255.776 262.09C255.155 259.065 247.746 268.694 247.746 268.694Z" fill="#F7C4A7"/>
<path d="M252.224 271.519L248.133 274.821L250.062 281.774L255.313 277.37L254.697 272.966L252.224 271.519Z" fill="#F7C4A7"/>
<path d="M166.808 320.465H159.705L162.483 326.52L169.281 324.869L166.808 320.465Z" fill="#F7C4A7"/>
<path opacity="0.1" d="M161.343 319.59C161.343 319.59 153.996 324.157 147.701 322.733C141.407 321.309 139.708 321.826 138.975 323.681C138.298 325.368 156.535 334.298 159.44 335.709C159.486 335.736 159.539 335.752 159.593 335.757C159.648 335.761 159.703 335.753 159.754 335.734C159.804 335.715 159.849 335.684 159.883 335.646C159.917 335.607 159.939 335.562 159.949 335.514C160.147 334.765 160.626 333.16 161.134 333.037C161.801 332.879 164.849 327.813 164.696 325.812C164.544 323.812 161.343 319.59 161.343 319.59Z" fill="black"/>
<path d="M161.038 319.59C161.038 319.59 153.69 324.157 147.396 322.733C141.102 321.309 139.402 321.826 138.67 323.681C137.993 325.368 156.229 334.298 159.135 335.709C159.18 335.736 159.233 335.752 159.288 335.757C159.343 335.761 159.398 335.753 159.448 335.734C159.499 335.715 159.543 335.684 159.577 335.646C159.611 335.607 159.634 335.562 159.643 335.514C159.842 334.765 160.32 333.16 160.829 333.037C161.496 332.879 164.543 327.813 164.391 325.812C164.238 323.812 161.038 319.59 161.038 319.59Z" fill="#F3B5B7"/>
<path d="M221.796 308.623L201.097 306.147C201.097 306.147 167.423 320.465 163.409 320.742L164.335 327.091H170.512C172.985 327.091 197.078 322.411 200.477 317.73C202.443 317.263 204.534 317.459 206.348 318.279C209.437 319.64 239.096 328.194 239.096 328.194L221.796 308.623Z" fill="#575988"/>
<path opacity="0.1" d="M221.796 308.623L201.097 306.147C201.097 306.147 167.423 320.465 163.409 320.742L164.335 327.091H170.512C172.985 327.091 197.078 322.411 200.477 317.73C202.443 317.263 204.534 317.459 206.348 318.279C209.437 319.64 239.096 328.194 239.096 328.194L221.796 308.623Z" fill="black"/>
<path d="M185.034 317.159L181.635 321.014L185.034 322.665L189.98 319.363L185.034 317.159Z" fill="#F7C4A7"/>
<path d="M244.037 312.751C244.037 312.751 232.924 304.269 232.146 302.727C231.367 301.185 213.146 290.727 211.91 290.45C210.673 290.173 206.659 288.246 202.644 294.854C198.63 301.462 183.818 317.431 183.818 317.431C183.818 317.431 188.453 323.214 189.995 322.937C191.537 322.66 208.821 309.721 210.073 303.385C210.073 303.385 211.309 300.909 214.088 305.036C216.866 309.163 234.787 328.992 238.186 328.715C238.186 328.715 251.471 330.643 254.249 325.962C257.027 321.282 244.037 312.751 244.037 312.751Z" fill="#575988"/>
<path d="M240.918 268.295H194.661V299.367H240.918V268.295Z" fill="url(#paint4_linear_6_2395)"/>
<path d="M239.025 269.56H196.548V298.097H239.025V269.56Z" fill="white"/>
<path opacity="0.2" d="M214.866 272.032H200.706V279.166H214.866V272.032Z" fill="#EF5B59"/>
<path d="M234.873 272.032H218.25V273.678H234.873V272.032Z" fill="#E6E8EC"/>
<path d="M229.948 274.776H218.25V276.422H229.948V274.776Z" fill="#E6E8EC"/>
<path d="M234.873 277.52H218.25V279.166H234.873V277.52Z" fill="#E6E8EC"/>
<path d="M234.873 280.264H200.706V281.91H234.873V280.264Z" fill="#E6E8EC"/>
<path d="M234.873 283.008H200.706V284.654H234.873V283.008Z" fill="#E6E8EC"/>
<path d="M234.873 285.751H200.706V287.398H234.873V285.751Z" fill="#E6E8EC"/>
<path d="M232.105 288.495H200.706V290.142H232.105V288.495Z" fill="#E6E8EC"/>
<path d="M234.873 291.239H200.706V292.886H234.873V291.239Z" fill="#E6E8EC"/>
<path d="M234.873 293.983H200.706V295.63H234.873V293.983Z" fill="#E6E8EC"/>
<path d="M250.372 272.413C250.372 272.413 246.51 273.928 246.2 280.259C245.889 286.591 239.076 297.33 239.076 297.33L239.692 309.998C239.692 309.998 247.105 316.606 247.726 320.737C248.347 324.869 253.603 327.622 253.603 327.622C253.603 327.622 259.78 324.869 260.727 321.273C261.673 317.676 262.253 308.882 263.815 305.576C265.377 302.269 264.431 281.62 264.431 281.62L259.795 274.458L257.322 271.982L250.835 278.59C250.835 278.59 247.283 274.336 250.372 272.413Z" fill="#F3B5B7"/>
<path opacity="0.1" d="M241.259 305.866C241.259 305.866 240.333 295.952 243.111 293.752L248.672 279.692C248.672 279.692 250.682 272.948 250.372 272.395C250.062 271.841 243.111 277.765 243.111 277.765L238.476 292.36L239.712 307.78L241.259 305.866Z" fill="black"/>
<path d="M240.949 305.866C240.949 305.866 240.023 295.952 242.801 293.752L248.362 279.692C248.362 279.692 250.525 272.807 250.214 272.259C249.904 271.71 242.801 277.765 242.801 277.765L238.165 292.359L239.402 307.78L240.949 305.866Z" fill="#575988"/>
<path d="M243.111 301.462C243.111 301.462 227.653 297.058 226.737 295.956C225.821 294.854 215.925 287.697 212.526 292.65C209.127 297.602 225.19 298.999 225.19 298.999L241.564 307.812L243.111 301.462Z" fill="#F7C4A7"/>
<path opacity="0.1" d="M185.7 320.987L181.121 320.252C181.121 320.252 173.631 328.801 169.733 327.935C165.836 327.069 162.244 330.81 166.365 332.017C170.09 333.101 186.163 334.62 189.237 334.901C189.3 334.909 189.364 334.905 189.424 334.889C189.485 334.873 189.542 334.845 189.59 334.809C189.638 334.772 189.677 334.726 189.704 334.675C189.73 334.624 189.745 334.568 189.746 334.511C189.76 333.449 189.991 332.398 190.427 331.409C191.252 329.595 190.427 325.731 190.198 324.261C190.071 323.395 189.766 322.557 189.298 321.79L185.7 320.987Z" fill="black"/>
<path d="M185.629 321.254L181.05 320.52C181.05 320.52 173.57 329.073 169.647 328.203C165.724 327.332 162.157 331.078 166.279 332.284C170.003 333.368 186.077 334.888 189.15 335.169C189.213 335.177 189.277 335.172 189.338 335.156C189.399 335.14 189.455 335.113 189.503 335.076C189.551 335.039 189.59 334.994 189.617 334.942C189.644 334.891 189.658 334.835 189.659 334.779C189.674 333.717 189.905 332.665 190.341 331.677C191.165 329.863 190.341 325.998 190.112 324.529C189.985 323.663 189.679 322.825 189.211 322.057L185.629 321.254Z" fill="#F3B5B7"/>
<path opacity="0.1" d="M250.062 271.864C255.522 271.864 259.948 267.919 259.948 263.052C259.948 258.185 255.522 254.24 250.062 254.24C244.601 254.24 240.175 258.185 240.175 263.052C240.175 267.919 244.601 271.864 250.062 271.864Z" fill="black"/>
<path d="M249.135 271.864C254.596 271.864 259.022 267.919 259.022 263.052C259.022 258.185 254.596 254.24 249.135 254.24C243.675 254.24 239.249 258.185 239.249 263.052C239.249 267.919 243.675 271.864 249.135 271.864Z" fill="#F7C4A7"/>
<path d="M258.864 271.723C258.864 271.723 270.603 275.302 270.603 282.74C270.603 290.178 264.115 302.015 263.805 311.653C263.494 321.291 246.505 319.912 246.505 319.912C246.505 319.912 244.032 287.42 246.505 284.94C248.978 282.459 260.101 272.826 258.864 271.723Z" fill="#575988"/>
<path opacity="0.1" d="M256.702 287.144C256.702 287.144 252.377 304.215 242.18 301.204C242.18 301.204 236.929 308.088 240.653 311.118C240.653 311.118 249.614 313.045 255.48 307.812C261.347 302.578 265.662 300.641 266.588 294.292C267.514 287.942 268.115 279.148 265.062 279.973C262.009 280.799 256.702 287.144 256.702 287.144Z" fill="black"/>
<path d="M257.012 286.867C257.012 286.867 252.687 303.938 242.49 300.927C242.49 300.927 237.239 307.812 240.964 310.841C240.964 310.841 249.924 312.769 255.791 307.535C261.658 302.301 265.967 300.374 266.914 294.042C267.86 287.711 268.44 278.899 265.387 279.724C262.334 280.549 257.012 286.867 257.012 286.867Z" fill="#575988"/>
<path d="M190.605 330.792C190.605 330.819 190.605 330.847 190.575 330.869C190.354 331.339 190.184 331.827 190.066 332.325C190.137 332.108 190.224 331.872 190.326 331.668C190.456 331.386 190.55 331.093 190.605 330.792Z" fill="#DDDBE2"/>
<path d="M166.528 331.482C165.256 331.11 164.722 330.497 164.701 329.853C164.192 330.761 164.508 331.758 166.304 332.284C170.029 333.368 186.108 334.888 189.176 335.169C189.239 335.177 189.303 335.172 189.365 335.156C189.426 335.14 189.482 335.112 189.531 335.075C189.579 335.037 189.618 334.991 189.644 334.939C189.671 334.888 189.684 334.831 189.685 334.774C189.687 334.674 189.646 334.577 189.572 334.501C189.498 334.426 189.395 334.377 189.283 334.366C185.899 334.04 170.202 332.548 166.528 331.482Z" fill="#DDDBE2"/>
<path d="M139.092 323.195C139.171 322.992 139.272 322.797 139.392 322.61C139.059 322.911 138.809 323.278 138.665 323.681C137.988 325.368 156.224 334.294 159.13 335.709C159.176 335.735 159.228 335.75 159.283 335.754C159.337 335.758 159.392 335.75 159.442 335.731C159.492 335.711 159.536 335.682 159.57 335.644C159.604 335.606 159.628 335.561 159.638 335.514C159.656 335.45 159.649 335.383 159.619 335.324C159.59 335.264 159.54 335.214 159.476 335.182C156.25 333.613 138.421 324.864 139.092 323.195Z" fill="#DDDBE2"/>
<path d="M161.231 332.552C161.068 332.593 160.905 332.783 160.758 333.055H160.809C160.941 333.024 161.175 332.788 161.46 332.421C161.396 332.479 161.318 332.524 161.231 332.552Z" fill="#DDDBE2"/>
<path opacity="0.1" d="M247.762 270.807C246.892 272.517 246.708 274.436 246.067 276.25C245.443 278.006 244.372 279.61 242.937 280.936C241.503 282.262 239.745 283.276 237.799 283.896C241.01 285.039 244.795 283.642 247.278 281.329C249.761 279.016 251.211 275.937 252.606 272.944C256.208 275.102 255.77 280.064 256.976 283.928C257.496 285.609 258.415 287.171 259.67 288.508C260.925 289.845 262.488 290.927 264.253 291.679C266.011 292.383 267.922 292.73 269.849 292.695C271.776 292.661 273.671 292.246 275.396 291.48C272.094 287.888 267.392 282.962 267.952 278.182C268.405 274.309 265.285 271.352 265.504 267.469C265.81 261.954 263.469 259.165 259.017 255.627C256.427 253.559 260.503 250.639 257.165 251.496C255.852 251.831 254.468 250.589 253.181 250.992C250.636 251.809 247.843 251.5 245.217 252.049C231.566 254.897 249.023 268.308 247.762 270.807Z" fill="black"/>
<path d="M248.072 270.531C247.202 272.241 247.019 274.159 246.378 275.973C245.753 277.729 244.682 279.333 243.248 280.659C241.814 281.986 240.055 282.999 238.109 283.62C241.32 284.763 245.106 283.366 247.589 281.053C250.072 278.74 251.522 275.66 252.916 272.667C256.519 274.826 256.081 279.787 257.287 283.652C257.807 285.332 258.725 286.894 259.981 288.231C261.236 289.569 262.799 290.65 264.563 291.403C266.321 292.106 268.233 292.453 270.16 292.419C272.087 292.384 273.981 291.969 275.706 291.203C272.404 287.611 268.013 283.493 268.583 278.731C269.036 274.857 268.359 270.88 268.583 266.998C268.888 261.483 265.861 256.172 261.429 252.634C258.839 250.566 254.814 250.303 253.506 250.716C250.962 251.532 248.169 251.224 245.543 251.772C231.876 254.625 249.344 268.032 248.072 270.531Z" fill="#B96B6B"/>
<path d="M83.3606 354.381C101.169 349.496 111.682 349.9 111.682 349.9L110.221 342.521C110.678 342.248 111.092 341.924 111.453 341.555C111.453 341.555 109.626 332.597 111.453 330.357C113.279 328.116 118.307 307.762 118.307 307.762V300.836C127.465 297.988 138.176 281.497 138.176 281.497L151.655 312.433C151.655 312.433 165.129 336.253 166.955 337.065C168.416 337.713 169.143 343.042 169.382 345.16L169.27 345.192C169.326 345.705 169.352 346.022 169.352 346.022L169.459 345.959V346.022C169.685 345.882 169.923 345.757 170.171 345.65C167.54 348.344 163.602 352.217 160.325 354.775C158.519 356.186 161.76 357.274 163.277 357.252C164.139 357.227 165 357.336 165.821 357.574C173.499 359.937 186.123 351.31 186.123 351.31L182.963 343.455C183.787 343.396 184.296 343.369 184.296 343.369C184.296 343.369 174.018 311.204 169.22 308.147C167.703 307.162 166.335 306.006 165.149 304.709C162.867 302.237 161.717 299.088 161.928 295.893L163.612 269.501C166.319 269.147 168.065 268.853 168.065 268.853C168.065 268.853 168.696 261.641 168.675 256.108C168.675 253.228 168.543 250.702 168.065 249.713C167.5 248.543 167.322 246.203 167.312 243.854C167.312 240.679 167.607 237.704 167.607 237.704C167.607 237.704 171.26 233.427 176.287 223.644C178.501 219.34 179.076 215.934 179.025 213.494C179.059 212.357 178.936 211.221 178.658 210.11C178.516 209.561 178.252 209.043 177.883 208.586C177.513 208.129 177.045 207.742 176.506 207.448C173.616 205.87 167.037 201.974 165.098 198.201C162.635 193.411 159.079 192.731 158.936 192.704L158.717 191.86C160.081 190.855 161.077 189.509 161.577 187.996C162.32 185.955 162.473 183.778 163.104 181.705C163.409 180.708 163.831 179.742 164.121 178.744C164.411 177.74 164.549 176.706 164.533 175.669C164.588 174.159 164.24 172.658 163.516 171.292C162.335 169.129 159.984 167.428 157.308 167.147C155.832 166.993 154.199 167.219 152.988 166.453C152.154 165.922 151.716 165.02 150.953 164.389C149.503 163.165 147.182 163.228 145.295 163.8C142.753 164.577 140.575 166.088 139.107 168.095C138.227 169.301 137.611 170.684 136.482 171.723C135.53 172.589 134.284 173.143 133.236 173.914C132.46 174.453 131.829 175.14 131.389 175.925C130.948 176.71 130.71 177.572 130.691 178.449C130.691 178.449 130.691 178.494 130.691 178.517C130.691 178.63 130.691 178.744 130.691 178.857C130.742 180.608 132.111 182.349 134.034 182.703C134.538 182.786 135.053 182.798 135.561 182.739C135.127 184.168 135.022 185.66 135.25 187.126C135.479 188.592 136.038 190.001 136.893 191.27C137.747 192.539 138.881 193.641 140.225 194.51C141.569 195.379 143.096 195.997 144.715 196.327C144.684 196.473 144.648 196.618 144.613 196.781H144.72C144.499 197.487 144.224 198.178 143.895 198.849H143.748L144.119 198.26L138.878 197.937C137.352 197.835 135.823 198.09 134.441 198.677C132.635 199.457 130.661 200.944 130.417 203.756C129.959 209.026 118.765 216.963 118.765 216.963C114.882 222.46 89.5276 223.476 89.5276 223.476C89.5276 223.476 89.6395 223.603 89.6904 223.671L89.1816 223.585L87.2633 223.272C87.2633 223.272 81.3253 207.598 75.6163 210.446C69.9073 213.294 85.4366 228.769 85.4366 228.769L89.9245 229.037L90.3773 229.064C90.2126 230.078 89.9764 231.083 89.6701 232.071C89.609 232.27 89.5632 232.397 89.553 232.429C89.553 232.429 101.358 231.214 111.387 231.409H112.292L112.933 231.381C113.442 236.293 121.299 246.276 121.299 246.276L126.148 247.183L126.514 247.251C124.951 250.131 122.967 252.814 120.612 255.228L119.014 263.17L119.141 263.143L119.014 263.782C119.288 263.723 119.541 263.604 119.752 263.437C116.622 270.839 111.432 282.359 107.825 286.377C102.345 292.486 103.027 302.251 103.027 302.251C103.027 302.251 97.5466 327.903 97.7756 332.584C97.8021 334.843 97.1163 337.063 95.7963 338.992C94.7213 340.092 93.7767 341.288 92.9774 342.562C88.8661 348.875 82.2412 348.458 82.2412 348.458C76.5322 351.732 83.3606 354.381 83.3606 354.381ZM118.637 230.207L119.228 229.998L119.365 229.948L119.93 229.73L120.026 229.69L120.535 229.481L120.647 229.436L121.187 229.195L121.314 229.136L121.823 228.896H121.863L122.372 228.633L122.494 228.569L123.003 228.306L123.085 228.261L123.527 228.021L123.629 227.966L124.102 227.699L124.209 227.635L124.647 227.377L124.687 227.354L125.135 227.077L125.237 227.014L125.664 226.742L125.73 226.701L126.107 226.456L126.188 226.402L126.58 226.134L126.662 226.079L127.018 225.83H127.048L127.41 225.572L127.486 225.517L127.827 225.268L127.857 225.245L128.163 225.014L128.213 224.973L128.514 224.742L128.559 224.705L128.834 224.483L129.099 224.27L129.134 224.238L129.643 223.785L130.386 223.73C131.017 224.46 131.266 225.753 131.292 227.236C131.221 231.041 129.928 235.74 129.928 235.74C129.818 238.072 129.363 240.381 128.575 242.606C128.018 242.579 127.471 242.461 126.962 242.257C126.962 242.257 126.931 242.402 126.885 242.647L126.448 242.547L124.224 242.053C124.224 242.053 122.377 233.672 118.637 230.207Z" fill="url(#paint5_linear_6_2395)"/>
<path d="M180.577 338.643L184.815 349.17C184.815 349.17 173.209 357.107 165.668 355.465C164.532 355.213 163.375 355.046 162.208 354.966C160.646 354.862 157.959 353.85 159.618 352.558C164.971 348.385 172.105 340.634 172.105 340.634L180.577 338.643Z" fill="#4F4D59"/>
<path d="M110.115 337.65L112.119 347.786C112.119 347.786 101.861 347.387 84.4699 352.158C84.4699 352.158 77.7788 349.573 83.3555 346.394C83.3555 346.394 89.8227 346.793 93.8373 340.629C97.8519 334.466 100.304 335.264 100.304 335.264L110.115 337.65Z" fill="#4F4D59"/>
<path d="M163.185 264.109L161.221 294.949C161.011 298.236 162.234 301.468 164.635 303.97C165.721 305.119 166.958 306.147 168.319 307.031C173 310.011 183.034 341.414 183.034 341.414C183.034 341.414 171.662 342.008 168.543 343.999C168.543 343.999 167.876 336.049 166.09 335.255C164.304 334.461 151.151 311.218 151.151 311.218L137.988 281.003C137.988 281.003 127.506 297.104 118.587 299.884V306.641C118.587 306.641 113.681 326.515 111.896 328.701C110.11 330.888 111.896 339.632 111.896 339.632C111.896 339.632 106.767 345.396 94.9517 339.233C94.9517 339.233 98.7424 335.455 98.5134 330.883C98.2845 326.311 103.653 301.276 103.653 301.276C103.653 301.276 102.986 291.752 108.334 285.774C113.681 279.796 122.581 256.956 122.581 256.956L128.717 245.187L163.185 264.109Z" fill="#787C9C"/>
<g opacity="0.1">
<path opacity="0.1" d="M180.912 341.423C180.912 341.423 170.878 310.02 166.197 307.041C164.758 306.103 163.457 305.007 162.325 303.78C160.034 301.312 158.883 298.16 159.104 294.963L161.068 264.122L128.183 246.053L128.631 245.196L163.073 264.118L161.109 294.958C160.888 298.155 162.039 301.307 164.33 303.775C165.462 305.003 166.763 306.098 168.202 307.036C172.883 310.016 182.917 341.419 182.917 341.419C182.917 341.419 171.545 342.013 168.426 344.004C168.426 344.004 168.4 343.695 168.344 343.192C172.73 341.854 180.912 341.423 180.912 341.423Z" fill="black"/>
<path opacity="0.1" d="M109.784 339.645C109.784 339.645 107.998 330.901 109.784 328.715C111.57 326.529 116.475 306.655 116.475 306.655V299.897C125.395 297.113 135.876 281.016 135.876 281.016L136.655 282.808C133.632 287.08 125.568 297.689 118.485 299.897V306.655C118.485 306.655 113.58 326.529 111.794 328.715C110.008 330.901 111.794 339.645 111.794 339.645C111.794 339.645 109.305 342.435 103.81 342.058C107.906 341.745 109.784 339.645 109.784 339.645Z" fill="black"/>
</g>
<path d="M86.4798 229.526L90.8608 229.785L93.1708 229.921V224.932L90.1179 224.442L88.2403 224.138C88.2403 224.138 82.4448 208.836 76.8681 211.616C71.2914 214.396 86.4798 229.526 86.4798 229.526Z" fill="#714B4F"/>
<path d="M156.718 188.586C156.718 188.586 159.618 198.523 160.509 204.686C161.399 210.85 139.774 205.879 139.774 205.879C139.774 205.879 148.022 196.935 143.336 192.164L156.718 188.586Z" fill="#714B4F"/>
<path d="M133.307 229.925L132.859 233.703L139.769 233.304L146.679 227.939L153.588 210.646L158.056 204.491L161.399 200.713L160.061 196.141C160.061 196.141 159.45 196.595 158.417 197.321C155.023 199.638 147.055 204.45 141.234 203.121C140.965 203.062 140.7 202.987 140.44 202.899L131.745 216.215L133.307 229.925Z" fill="#E6E6F0"/>
<path opacity="0.1" d="M158.28 194.967C158.28 194.967 161.842 195.561 164.299 200.332C166.187 204.001 172.552 207.784 175.397 209.339C175.939 209.635 176.409 210.025 176.78 210.485C177.15 210.945 177.414 211.467 177.554 212.02C178.129 214.287 178.348 218.505 175.224 224.583C170.319 234.107 166.752 238.298 166.752 238.298C166.752 238.298 165.861 247.822 167.2 250.62C168.538 253.419 167.2 268.707 167.2 268.707C167.2 268.707 143.794 272.68 135.983 268.707C128.173 264.734 129.292 249.391 129.292 249.391C129.292 249.391 121.935 263.315 119.273 263.714L120.8 255.963C120.8 255.963 129.496 247.613 129.959 236.883C129.959 236.883 132.635 227.145 130.407 224.56C130.407 224.56 92.723 227.345 90.4944 224.959C90.4944 224.959 115.244 223.966 119.034 218.61C119.034 218.61 129.959 210.859 130.407 205.693C130.472 204.724 130.813 203.786 131.398 202.967C131.983 202.148 132.792 201.475 133.75 201.012C135.266 200.244 137.007 199.898 138.746 200.019L143.784 200.328C143.784 200.328 135.093 214.015 135.556 215.83C136.019 217.644 135.108 232.125 135.108 232.125C135.108 232.125 145.142 212.845 149.599 210.659C154.057 208.473 159.17 199.502 159.17 199.502L158.28 194.967Z" fill="black"/>
<path opacity="0.1" d="M133.307 229.925L132.859 233.703L139.769 233.304L146.679 227.939L153.588 210.646L158.056 204.491L161.399 200.713L160.061 196.141C160.061 196.141 159.45 196.595 158.417 197.321L158.722 198.89C158.722 198.89 153.594 207.865 149.136 210.051C144.679 212.238 134.645 231.517 134.645 231.517C134.645 231.517 135.535 217.004 135.093 215.222C134.787 214.006 138.695 207.308 141.234 203.121C140.965 203.062 140.7 202.987 140.44 202.899L131.745 216.215L133.307 229.925Z" fill="black"/>
<path opacity="0.1" d="M90.8607 229.789L93.1707 229.926V224.937L90.1178 224.447C91.1914 225.717 91.1558 227.921 90.8607 229.789Z" fill="black"/>
<path d="M158.28 194.35C158.28 194.35 161.842 194.944 164.299 199.715C166.187 203.384 172.552 207.167 175.397 208.723C175.939 209.018 176.409 209.408 176.78 209.868C177.15 210.329 177.414 210.85 177.554 211.403C178.129 213.671 178.348 217.889 175.224 223.966C170.319 233.49 166.752 237.681 166.752 237.681C166.752 237.681 165.861 247.205 167.2 250.004C168.538 252.802 167.2 268.091 167.2 268.091C167.2 268.091 143.794 272.064 135.983 268.091C128.173 264.118 129.292 248.811 129.292 248.811C129.292 248.811 121.935 262.721 119.273 263.115L120.8 255.364C120.8 255.364 129.496 247.015 129.959 236.284C129.959 236.284 132.635 226.547 130.407 223.961C130.407 223.961 121.711 232.311 111.901 232.125C102.09 231.939 90.4944 233.118 90.4944 233.118C90.4944 233.118 92.723 226.769 90.4944 224.374C90.4944 224.374 115.244 223.381 119.034 218.025C119.034 218.025 129.959 210.274 130.407 205.108C130.469 204.135 130.809 203.193 131.395 202.371C131.981 201.548 132.793 200.873 133.755 200.409C135.271 199.641 137.012 199.295 138.751 199.416L143.789 199.724C143.789 199.724 135.093 213.43 135.556 215.217C136.019 217.004 135.108 231.513 135.108 231.513C135.108 231.513 145.142 212.233 149.599 210.047C154.057 207.861 159.186 198.885 159.186 198.885L158.295 194.35" fill="#67647E"/>
<path opacity="0.1" d="M163.185 215.217C163.185 215.217 157.832 231.318 154.713 233.304C151.594 235.291 132.64 245.427 127.063 243.042C127.063 243.042 125.725 249.006 127.73 250.394C127.73 250.394 148.521 249.668 148.688 249.6C148.688 249.6 162.289 248.008 164.518 242.049C166.747 236.089 169.423 225.948 169.423 225.948L163.185 215.217Z" fill="black"/>
<path d="M134.645 233.404C135.075 233.404 135.423 232.959 135.423 232.411C135.423 231.862 135.075 231.418 134.645 231.418C134.215 231.418 133.866 231.862 133.866 232.411C133.866 232.959 134.215 233.404 134.645 233.404Z" fill="#BA7855"/>
<path d="M132.416 240.361C132.846 240.361 133.195 239.917 133.195 239.368C133.195 238.82 132.846 238.375 132.416 238.375C131.986 238.375 131.638 238.82 131.638 239.368C131.638 239.917 131.986 240.361 132.416 240.361Z" fill="#BA7855"/>
<g opacity="0.1">
<path opacity="0.1" d="M165.637 267.887C165.637 267.887 166.976 252.584 165.637 249.8C164.299 247.015 165.19 237.477 165.19 237.477C165.19 237.477 168.751 233.304 173.662 223.762C176.786 217.685 176.562 213.467 175.992 211.199C175.851 210.646 175.587 210.124 175.215 209.663C174.844 209.203 174.373 208.814 173.83 208.519C170.985 206.963 164.62 203.18 162.737 199.511C161.353 196.822 159.618 195.457 158.361 194.781L158.275 194.327C158.275 194.327 161.837 194.921 164.294 199.693C166.182 203.362 172.547 207.144 175.387 208.7C175.93 208.995 176.401 209.384 176.772 209.845C177.144 210.305 177.408 210.827 177.549 211.38C178.124 213.648 178.343 217.866 175.219 223.943C170.314 233.468 166.747 237.658 166.747 237.658C166.747 237.658 165.856 247.183 167.194 249.981C168.533 252.779 167.194 268.068 167.194 268.068C167.194 268.068 150.469 270.907 140.578 269.388C150.571 270.445 165.637 267.887 165.637 267.887Z" fill="black"/>
<path opacity="0.1" d="M135.556 215.217C135.861 216.442 135.556 223.644 135.306 228.052C134.228 230.016 133.551 231.313 133.551 231.313C133.551 231.313 134.441 216.8 133.999 215.018C133.576 213.317 141.407 200.845 142.186 199.597L143.809 199.697C143.809 199.697 135.093 213.43 135.556 215.217Z" fill="black"/>
<path opacity="0.1" d="M110.339 231.912C120.149 232.112 128.844 223.748 128.844 223.748C129.107 224.073 129.299 224.439 129.409 224.828C126.865 226.964 119.742 232.257 111.901 232.084C102.09 231.885 90.4944 233.078 90.4944 233.078C90.4944 233.078 90.5402 232.946 90.6114 232.719C97.1652 232.124 103.751 231.855 110.339 231.912Z" fill="black"/>
<path opacity="0.1" d="M127.73 248.607C127.73 248.607 127.639 249.849 127.689 251.713C125.369 255.795 121.146 262.834 119.258 263.115L119.589 261.483C122.835 257.85 127.73 248.607 127.73 248.607Z" fill="black"/>
</g>
<path d="M130.31 198.45H77.0105V234.252H130.31V198.45Z" fill="url(#paint6_linear_6_2395)"/>
<path d="M128.931 199.371H78.3843V233.327H128.931V199.371Z" fill="white"/>
<path opacity="0.2" d="M100.177 202.31H83.3301V210.8H100.177V202.31Z" fill="#EF5B59"/>
<path d="M123.985 202.31H104.207V204.269H123.985V202.31Z" fill="#E6E8EC"/>
<path d="M118.129 205.575H104.207V207.534H118.129V205.575Z" fill="#E6E8EC"/>
<path d="M123.985 208.841H104.207V210.8H123.985V208.841Z" fill="#E6E8EC"/>
<path d="M123.99 212.106H83.3301V214.065H123.99V212.106Z" fill="#E6E8EC"/>
<path d="M123.99 215.371H83.3301V217.331H123.99V215.371Z" fill="#E6E8EC"/>
<path d="M123.99 218.632H83.3301V220.592H123.99V218.632Z" fill="#E6E8EC"/>
<path d="M120.693 221.898H83.3301V223.857H120.693V221.898Z" fill="#E6E8EC"/>
<path d="M123.99 225.163H83.3301V227.123H123.99V225.163Z" fill="#E6E8EC"/>
<path d="M123.99 228.429H83.3301V230.388H123.99V228.429Z" fill="#E6E8EC"/>
<path d="M121.487 246.62L126.224 247.527L129.959 248.212L127.954 243.223L126.56 242.91L124.387 242.43C124.387 242.43 121.268 228.529 115.025 229.526C108.781 230.524 121.487 246.62 121.487 246.62Z" fill="#714B4F"/>
<path opacity="0.1" d="M126.224 247.509L129.959 248.212L127.954 243.223L126.56 242.91C126.248 244.426 126.135 245.97 126.224 247.509Z" fill="black"/>
<path d="M163.185 214.823C163.185 214.823 157.832 230.923 154.713 232.91C151.594 234.896 132.64 245.033 127.063 242.647C127.063 242.647 125.725 248.611 127.73 249.999C127.73 249.999 148.521 249.273 148.688 249.205C148.688 249.205 162.289 247.613 164.518 241.654C166.747 235.695 169.423 225.553 169.423 225.553L163.185 214.823Z" fill="#67647E"/>
<path opacity="0.1" d="M156.494 188.985C156.494 188.985 156.947 190.54 157.552 192.803C156.315 194.886 154.343 196.547 151.941 197.531C149.539 198.515 146.84 198.766 144.262 198.246C144.796 196.205 144.679 194.164 143.112 192.545L156.494 188.985Z" fill="black"/>
<path d="M147.132 198.128C153.78 198.128 159.17 193.324 159.17 187.397C159.17 181.471 153.78 176.667 147.132 176.667C140.483 176.667 135.093 181.471 135.093 187.397C135.093 193.324 140.483 198.128 147.132 198.128Z" fill="#714B4F"/>
<path opacity="0.1" d="M136.675 184.44C135.801 184.657 134.886 184.706 133.989 184.585C132.111 184.241 130.773 182.54 130.727 180.83C130.746 179.973 130.978 179.131 131.408 178.365C131.837 177.598 132.453 176.927 133.21 176.399C134.228 175.642 135.449 175.102 136.38 174.258C137.484 173.256 138.085 171.904 138.924 170.725C140.359 168.767 142.486 167.292 144.969 166.535C146.816 165.977 149.075 165.913 150.495 167.11C151.222 167.723 151.65 168.607 152.464 169.124C153.644 169.873 155.242 169.65 156.682 169.8C157.987 169.979 159.223 170.441 160.28 171.147C161.337 171.853 162.183 172.779 162.742 173.846C163.836 176.005 164.045 178.438 163.332 180.721C163.053 181.696 162.646 182.644 162.345 183.615C161.72 185.638 161.572 187.76 160.849 189.756C160.127 191.751 158.636 193.701 156.382 194.291C156.56 192.054 156.065 189.815 154.947 187.805C154.762 187.368 154.399 187.008 153.929 186.799C153.527 186.707 153.105 186.707 152.703 186.799C149.88 187.172 147 186.652 144.562 185.329C143.707 184.876 142.374 183.284 141.458 183.125C140.303 182.939 137.896 184.195 136.675 184.44Z" fill="black"/>
<path d="M136.675 184.041C135.801 184.257 134.886 184.307 133.989 184.186C132.111 183.842 130.773 182.141 130.727 180.431C130.746 179.574 130.978 178.732 131.408 177.966C131.837 177.199 132.453 176.528 133.21 176C134.228 175.242 135.449 174.703 136.38 173.859C137.484 172.857 138.085 171.505 138.924 170.326C140.359 168.368 142.486 166.893 144.969 166.135C146.816 165.578 149.075 165.514 150.495 166.711C151.222 167.324 151.65 168.208 152.464 168.725C153.644 169.473 155.242 169.251 156.682 169.401C157.987 169.58 159.223 170.042 160.28 170.748C161.337 171.454 162.183 172.38 162.742 173.446C163.836 175.606 164.045 178.039 163.332 180.322C163.053 181.297 162.646 182.245 162.345 183.216C161.72 185.238 161.572 187.361 160.849 189.357C160.127 191.352 158.636 193.302 156.382 193.892C156.56 191.655 156.065 189.416 154.947 187.406C154.762 186.969 154.399 186.609 153.929 186.399C153.527 186.308 153.105 186.308 152.703 186.399C149.88 186.773 147 186.253 144.562 184.93C143.707 184.476 142.374 182.885 141.458 182.726C140.303 182.54 137.896 183.801 136.675 184.041Z" fill="#503F43"/>
<path d="M43.8453 344.82C44.7779 344.143 45.4575 343.228 45.7941 342.199C46.0485 341.156 45.5499 339.908 44.4305 339.527C43.1788 339.101 41.8406 339.872 40.828 340.657C39.8154 341.441 38.6502 342.33 37.3222 342.162C38.0048 341.611 38.5154 340.911 38.8043 340.131C39.0932 339.352 39.1506 338.519 38.9708 337.713C38.9134 337.379 38.7551 337.066 38.5129 336.806C37.8158 336.144 36.559 336.43 35.7245 336.951C33.0786 338.611 32.3408 341.813 32.3256 344.698C32.061 343.659 32.2848 342.575 32.2747 341.523C32.2645 340.471 31.9388 339.255 30.9314 338.702C30.3066 338.403 29.605 338.254 28.8961 338.271C27.7054 338.23 26.3825 338.339 25.5684 339.115C24.5507 340.076 24.8204 341.695 25.7007 342.743C26.5809 343.791 27.9141 344.466 29.1454 345.201C30.1323 345.724 30.9741 346.439 31.6081 347.292C31.6827 347.41 31.744 347.535 31.7913 347.664H39.2354C40.9091 346.906 42.4599 345.949 43.8453 344.82Z" fill="#EF5B59"/>
<path d="M486.013 281.778C486.946 281.101 487.625 280.187 487.962 279.157C488.217 278.114 487.718 276.867 486.598 276.486C485.347 276.059 484.009 276.83 482.996 277.615C481.983 278.4 480.818 279.288 479.49 279.121C480.173 278.569 480.683 277.869 480.972 277.09C481.261 276.31 481.319 275.477 481.139 274.671C481.081 274.338 480.923 274.024 480.681 273.764C479.984 273.102 478.727 273.388 477.892 273.91C475.247 275.569 474.509 278.771 474.493 281.656C474.229 280.617 474.453 279.533 474.443 278.481C474.432 277.429 474.107 276.214 473.099 275.66C472.475 275.361 471.773 275.212 471.064 275.229C469.873 275.189 468.55 275.297 467.736 276.073C466.719 277.034 466.988 278.654 467.869 279.701C468.749 280.749 470.082 281.425 471.313 282.159C472.3 282.682 473.142 283.397 473.776 284.25C473.851 284.368 473.912 284.493 473.959 284.622H481.413C483.084 283.863 484.631 282.907 486.013 281.778Z" fill="#EF5B59"/>
<path d="M552.15 145.445C551.097 142.697 549.576 139.213 548.375 138.393C548.302 138.34 548.221 138.296 548.136 138.261H547.988V134.864L545.149 135.268C544.698 134.041 544.357 132.783 544.131 131.508C544.405 131.752 544.753 131.918 545.133 131.986C545.512 132.054 545.905 132.02 546.263 131.889C546.218 131.821 546.177 131.748 546.136 131.676L546.263 131.626C545.816 130.923 545.58 130.13 545.576 129.322C545.599 128.584 545.731 127.852 545.968 127.145C546.477 125.58 547.337 124.12 547.815 122.546C548.12 121.533 548.264 120.487 548.243 119.439C548.258 117.662 547.805 115.907 546.92 114.314C546.696 113.854 546.346 113.452 545.902 113.144C545.502 112.946 545.091 112.768 544.671 112.609C543.965 112.185 543.357 111.645 542.88 111.017C540.863 108.827 538.162 107.221 535.12 106.4C534.327 106.136 533.467 106.075 532.637 106.223C530.729 106.677 530.037 108.786 528.49 109.892C527.126 110.867 525.254 110.967 523.539 111.294C521.824 111.62 520.1 112.269 518.929 113.448C518.123 114.27 517.683 115.327 517.693 116.419C517.646 116.929 517.747 117.441 517.985 117.906C518.224 118.372 518.593 118.774 519.056 119.076C519.585 119.385 520.183 119.586 520.808 119.664C521.434 119.742 522.071 119.697 522.674 119.53C522.203 120.982 522.073 122.504 522.293 124.003C522.513 125.502 523.078 126.943 523.953 128.238C524.828 129.533 525.993 130.652 527.376 131.526C528.76 132.4 530.331 133.01 531.991 133.317L532.322 133.848C533.344 135.545 534.12 137.351 534.632 139.222C532.016 140.542 529.162 141.78 527.437 141.898C527.367 142.499 527.241 143.094 527.06 143.676C526.657 145.136 525.882 146.494 524.796 147.645C522.45 149.994 511.902 167.755 511.902 167.755C511.902 167.755 511.572 168.462 511.027 169.668C504.479 170.385 493.788 171.419 490.807 170.888L479.104 160.965C479.104 160.965 475.318 163.541 475.649 166.671L473.537 164.884C473.537 164.884 462.404 172.458 479.984 177.419L506.733 180.186C504.189 187.039 501.807 195.017 502.545 199.357H502.764C503.275 199.357 503.785 199.322 504.29 199.253L504.245 200.024L501.67 241.141C501.67 241.141 501.085 248.716 508.997 252.108C508.997 252.108 518.665 277.438 514.859 280.314C514.859 280.314 515.311 280.527 516.075 280.822L508.122 287.103C508.122 287.103 502.26 288.409 499.039 288.146C498.473 288.077 497.898 288.196 497.424 288.48C496.951 288.765 496.611 289.195 496.47 289.688C496.47 289.743 496.47 289.797 496.439 289.851V289.919C496.439 289.974 496.439 290.028 496.439 290.087C496.439 290.146 496.439 290.128 496.439 290.151C496.439 290.173 496.439 290.246 496.439 290.296C496.439 290.346 496.439 290.337 496.439 290.355C496.439 290.373 496.439 290.468 496.475 290.523V290.586C496.492 290.647 496.514 290.707 496.541 290.768L496.566 290.822C496.592 290.881 496.622 290.94 496.658 290.999V291.04C496.694 291.099 496.734 291.153 496.775 291.212L496.811 291.262C496.858 291.322 496.911 291.383 496.968 291.443L497.014 291.489C497.075 291.552 497.141 291.611 497.208 291.67L497.238 291.693L497.457 291.861L497.503 291.892C497.584 291.951 497.676 292.006 497.767 292.06L497.828 292.096C497.925 292.151 498.027 292.205 498.134 292.255H498.179L498.51 292.4H498.556L498.943 292.536L499.024 292.564L499.446 292.686H499.518L499.981 292.795H500.016L500.525 292.886H500.627L501.176 292.958H501.283L501.904 293.013C503.11 293.094 504.733 293.126 506.611 293.117C506.611 293.117 506.611 293.158 506.611 293.18C506.611 293.203 506.611 293.276 506.611 293.326V293.385C506.611 293.439 506.611 293.498 506.646 293.552V293.616C506.663 293.676 506.685 293.737 506.712 293.797L506.738 293.852C506.763 293.911 506.794 293.97 506.829 294.029V294.069C506.865 294.128 506.906 294.183 506.946 294.242L506.982 294.292C507.03 294.352 507.082 294.413 507.14 294.473L507.186 294.518C507.247 294.582 507.313 294.641 507.379 294.7L507.409 294.722L507.628 294.89L507.674 294.922C507.755 294.981 507.847 295.035 507.939 295.09L508.005 295.126C508.101 295.181 508.203 295.235 508.31 295.285H508.356L508.687 295.43H508.732L509.119 295.566L509.2 295.593L509.623 295.716H509.694L510.157 295.825H510.193L510.702 295.915H510.803L511.353 295.988H511.46L512.08 296.042C519.713 296.564 544.014 294.999 544.014 294.999V294.94V294.863C544.253 293.852 545.424 287.974 541.272 283.629C541.394 283.516 541.516 283.393 541.628 283.266C541.628 283.266 538.407 278.304 540.163 276.735C541.918 275.166 531.375 248.008 531.375 248.008C531.375 248.008 525.809 240.175 529.029 231.295C532.25 222.415 528.734 212.755 528.734 212.755C528.734 212.755 536.418 210.718 536.575 202.287C536.575 202.033 536.575 201.77 536.575 201.502C536.744 201.524 536.914 201.533 537.084 201.53C537.193 201.536 537.301 201.536 537.41 201.53C537.41 201.53 535.944 196.831 537.705 193.434C539.465 190.037 543.271 193.171 546.787 179.333C549.331 169.319 551.57 157.799 552.613 152.194C553.067 149.943 552.908 147.629 552.15 145.445ZM485.286 174.821L482.614 172.553C483.5 172.88 484.482 173.202 485.581 173.51L495.656 174.553C491.158 174.925 486.98 175.125 485.286 174.825V174.821Z" fill="url(#paint7_linear_6_2395)"/>
<path d="M510.788 173.492C510.788 173.492 490.063 176.059 485.744 175.306L474.229 165.555C474.229 165.555 463.289 172.997 480.564 177.868L512.803 181.202L510.788 173.492Z" fill="#FDC2CC"/>
<path opacity="0.05" d="M510.788 173.492C510.788 173.492 490.063 176.059 485.744 175.306L474.229 165.555C474.229 165.555 463.289 172.997 480.564 177.868L512.803 181.202L510.788 173.492Z" fill="black"/>
<path d="M518.273 277.66L508.198 285.615C508.198 285.615 502.443 286.899 499.273 286.64C496.103 286.382 494.668 291.003 502.153 291.516C509.638 292.028 533.527 290.491 533.527 290.491C533.527 290.491 535.832 282.282 528.922 277.66H518.273Z" fill="#47465A"/>
<path opacity="0.05" d="M518.273 277.66L508.198 285.615C508.198 285.615 502.443 286.899 499.273 286.64C496.103 286.382 494.668 291.003 502.153 291.516C509.638 292.028 533.527 290.491 533.527 290.491C533.527 290.491 535.832 282.282 528.922 277.66H518.273Z" fill="black"/>
<path opacity="0.3" d="M533.889 286.935C533.872 287.87 533.751 288.802 533.527 289.715C533.527 289.715 509.613 291.253 502.153 290.74C498.556 290.495 497.024 289.298 496.75 288.151C496.424 289.466 497.727 291.207 502.153 291.511C509.638 292.024 533.527 290.486 533.527 290.486C533.808 289.32 533.929 288.128 533.889 286.935Z" fill="white"/>
<path d="M530.072 132.184C530.072 132.184 536.407 140.139 534.102 145.527C531.797 150.915 546.177 139.88 546.177 139.88C546.177 139.88 541.572 132.696 543.872 125L530.072 132.184Z" fill="#FDC2CC"/>
<path d="M528.368 280.735L518.293 288.69C518.293 288.69 512.538 289.974 509.368 289.715C506.198 289.457 504.764 294.078 512.248 294.591C519.733 295.103 543.623 293.566 543.623 293.566C543.623 293.566 545.928 285.357 539.018 280.735H528.368Z" fill="#47465A"/>
<path d="M531.227 278.939C529.726 280.59 527.61 281.207 525.396 281.32C520.364 281.534 514.823 278.939 514.823 278.939C518.563 276.118 509.068 251.228 509.068 251.228C501.298 247.895 501.873 240.452 501.873 240.452L504.417 200.055L505.053 189.91L513.113 185.547L519.468 189.892L525.493 194.014C525.884 195.325 526.137 196.666 526.246 198.019C526.943 207.448 518.583 209.666 518.583 209.666C518.583 209.666 522.038 219.159 518.873 227.88C515.708 236.602 521.178 244.298 521.178 244.298C521.178 244.298 531.543 270.98 529.828 272.522C528.113 274.064 531.227 278.939 531.227 278.939Z" fill="#565171"/>
<path opacity="0.05" d="M531.227 278.939C529.726 280.59 527.61 281.207 525.396 281.32C520.364 281.534 514.823 278.939 514.823 278.939C518.563 276.118 509.068 251.228 509.068 251.228C501.298 247.895 501.873 240.452 501.873 240.452L504.417 200.055L505.053 189.91L513.113 185.547L519.468 189.892L525.493 194.014C525.884 195.325 526.137 196.666 526.246 198.019C526.943 207.448 518.583 209.666 518.583 209.666C518.583 209.666 522.038 219.159 518.873 227.88C515.708 236.602 521.178 244.298 521.178 244.298C521.178 244.298 531.543 270.98 529.828 272.522C528.113 274.064 531.227 278.939 531.227 278.939Z" fill="black"/>
<path d="M541.302 282.019C536.407 287.407 524.898 282.019 524.898 282.019C525.132 281.829 525.307 281.588 525.406 281.32C527.518 276.204 518.283 251.745 518.283 251.745C510.513 248.412 509.633 240.457 509.633 240.457L507.598 199.343L507.333 194.019L519.443 189.896L523.163 188.631L535.542 197.098C536.078 198.847 536.345 200.652 536.336 202.464C536.178 210.75 528.632 212.75 528.632 212.75C528.632 212.75 532.087 222.243 528.922 230.964C525.757 239.686 531.227 247.382 531.227 247.382C531.227 247.382 541.592 274.064 539.877 275.606C538.163 277.148 541.302 282.019 541.302 282.019Z" fill="#565171"/>
<path opacity="0.1" d="M536.336 202.459C533.848 202.142 528.811 199.47 526.221 198.019C525.234 197.466 524.603 197.112 524.603 197.112C524.603 197.112 522.013 190.699 515.103 195.575C512.856 197.201 510.319 198.479 507.598 199.357C506.557 199.685 505.484 199.925 504.392 200.074L505.028 189.928L513.088 185.565L519.443 189.91L523.163 188.644L535.542 197.112C536.076 198.854 536.343 200.653 536.336 202.459Z" fill="black"/>
<path d="M551.916 153.241C550.899 158.747 548.69 170.063 546.192 179.905C542.737 193.511 538.997 190.422 537.267 193.76C535.537 197.098 536.977 201.715 536.977 201.715C534.097 201.974 524.597 196.327 524.597 196.327C524.597 196.327 522.007 189.914 515.098 194.79C508.188 199.665 502.718 199.407 502.718 199.407C501.278 190.939 511.928 168.362 511.928 168.362C511.928 168.362 522.292 150.915 524.592 148.606C525.659 147.475 526.42 146.141 526.816 144.706C526.992 144.134 527.115 143.55 527.182 142.96C530.922 142.701 540.137 137.064 540.137 137.064L547.332 136.039V139.372C547.415 139.406 547.494 139.448 547.566 139.499C548.751 140.306 550.242 143.731 551.275 146.429C552.114 148.618 552.334 150.958 551.916 153.241Z" fill="#F68080"/>
<path opacity="0.1" d="M546.177 142.706C546.177 142.706 538.692 137.318 527.467 154.765C516.243 172.213 513.653 169.387 513.653 169.387C513.653 169.387 515.958 177.097 514.803 178.626C514.803 178.626 522.572 178.113 525.452 178.626C528.332 179.138 546.177 159.137 546.177 159.137C546.177 159.137 555.407 147.835 546.177 142.706Z" fill="black"/>
<path opacity="0.1" d="M545.907 141.676C545.907 141.676 538.422 136.288 527.198 153.736C515.973 171.183 513.383 168.358 513.383 168.358C513.383 168.358 522.308 177.079 525.183 177.596C528.058 178.113 545.907 158.094 545.907 158.094C545.907 158.094 555.117 146.81 545.907 141.676Z" fill="black"/>
<path opacity="0.1" d="M514.553 176.957C514.67 175.056 513.866 171.714 513.403 169.981C515.154 169.777 516.258 169.641 516.258 169.641L518.293 177.351L514.553 176.957Z" fill="black"/>
<path opacity="0.1" d="M544.177 125.517L530.362 132.701C530.944 133.458 531.481 134.242 531.97 135.05C532.767 135.195 533.579 135.268 534.392 135.268C538.081 135.268 539.801 131.816 542.025 129.494C541.867 127.63 543.561 127.58 544.177 125.517Z" fill="black"/>
<path d="M534.107 134.751C540.784 134.751 546.197 129.926 546.197 123.975C546.197 118.023 540.784 113.198 534.107 113.198C527.43 113.198 522.018 118.023 522.018 123.975C522.018 129.926 527.43 134.751 534.107 134.751Z" fill="#FDC2CC"/>
<path d="M515.423 136.256H418.06V201.657H515.423V136.256Z" fill="url(#paint8_linear_6_2395)"/>
<path d="M513.241 137.721H420.243V200.192H513.241V137.721Z" fill="white"/>
<path opacity="0.2" d="M460.338 143.127H429.34V158.743H460.338V143.127Z" fill="#EF5B59"/>
<path d="M504.143 143.127H467.752V146.733H504.143V143.127Z" fill="#E6E8EC"/>
<path d="M493.361 149.137H467.752V152.742H493.361V149.137Z" fill="#E6E8EC"/>
<path d="M504.143 155.142H467.752V158.747H504.143V155.142Z" fill="#E6E8EC"/>
<path d="M504.143 161.146H429.34V164.752H504.143V161.146Z" fill="#E6E8EC"/>
<path d="M504.143 167.156H429.34V170.762H504.143V167.156Z" fill="#E6E8EC"/>
<path d="M504.143 173.161H429.34V176.766H504.143V173.161Z" fill="#E6E8EC"/>
<path d="M498.078 179.17H429.34V182.776H498.078V179.17Z" fill="#E6E8EC"/>
<path d="M504.143 185.175H429.34V188.781H504.143V185.175Z" fill="#E6E8EC"/>
<path d="M504.143 191.18H429.34V194.785H504.143V191.18Z" fill="#E6E8EC"/>
<path opacity="0.1" d="M518.812 115.258C520.032 114.142 521.618 113.401 523.341 113.14C525.02 112.818 526.862 112.718 528.205 111.779C529.731 110.695 530.403 108.636 532.276 108.178C533.09 108.032 533.934 108.092 534.713 108.35C537.705 109.155 540.361 110.733 542.345 112.886C542.813 113.502 543.409 114.033 544.101 114.45C544.514 114.606 544.919 114.782 545.312 114.976C545.743 115.28 546.082 115.674 546.299 116.124C547.649 118.553 547.96 121.337 547.174 123.956C546.706 125.503 545.861 126.936 545.362 128.492C544.864 130.047 544.737 131.775 545.652 133.15C544.767 133.553 543.648 133.045 543.108 132.311C542.569 131.576 542.386 130.669 542.091 129.821C541.515 128.152 540.436 126.657 538.972 125.498C538.066 124.782 536.428 124.301 535.812 125.226C535.568 125.585 535.583 126.038 535.374 126.41C534.962 127.136 533.771 127.281 532.983 126.864C532.223 126.396 531.688 125.69 531.487 124.886C530.301 121.312 528.281 119.063 523.992 120.591C522.394 121.163 520.512 121.548 518.975 120.568C516.97 119.276 517.362 116.718 518.812 115.258Z" fill="black"/>
<path d="M518.812 114.999C520.032 113.884 521.618 113.142 523.341 112.881C525.02 112.559 526.862 112.459 528.205 111.52C529.731 110.436 530.403 108.377 532.276 107.919C533.09 107.773 533.934 107.833 534.713 108.092C537.705 108.896 540.361 110.475 542.345 112.627C542.813 113.244 543.409 113.775 544.101 114.192C544.514 114.348 544.919 114.524 545.312 114.718C545.743 115.021 546.082 115.416 546.299 115.865C547.649 118.295 547.96 121.079 547.174 123.698C546.706 125.244 545.861 126.678 545.362 128.233C544.864 129.789 544.737 131.517 545.652 132.891C544.767 133.295 543.648 132.787 543.108 132.052C542.569 131.317 542.386 130.41 542.091 129.562C541.515 127.894 540.436 126.399 538.972 125.24C538.066 124.523 536.428 124.043 535.812 124.968C535.568 125.326 535.583 125.78 535.374 126.152C534.962 126.877 533.771 127.022 532.983 126.605C532.223 126.137 531.688 125.431 531.487 124.628C530.301 121.054 528.281 118.804 523.992 120.333C522.394 120.904 520.512 121.29 518.975 120.31C516.97 119.017 517.362 116.464 518.812 114.999Z" fill="#B96B6B"/>
<path opacity="0.05" d="M547.581 139.499H541.73C541.73 139.499 530.215 144.629 529.93 144.375C529.737 144.202 527.956 144.497 526.826 144.71C527.003 144.138 527.125 143.554 527.192 142.964C530.932 142.706 540.147 137.068 540.147 137.068L547.342 136.043V139.377C547.427 139.408 547.508 139.45 547.581 139.499Z" fill="black"/>
<path opacity="0.3" d="M543.963 290.015C543.946 290.95 543.825 291.881 543.602 292.795C543.602 292.795 519.687 294.332 512.228 293.82C508.631 293.575 507.099 292.378 506.824 291.23C506.499 292.545 507.801 294.287 512.228 294.591C519.713 295.103 543.602 293.566 543.602 293.566C543.882 292.399 544.004 291.207 543.963 290.015Z" fill="white"/>
<g opacity="0.05">
<path opacity="0.05" d="M512.371 194.513C508.488 197.234 505.054 198.373 502.8 198.826C502.8 199.017 502.84 199.207 502.871 199.389C502.871 199.389 508.341 199.647 515.25 194.772C516.321 193.954 517.586 193.365 518.95 193.048C517.443 192.427 515.291 192.468 512.371 194.513Z" fill="black"/>
<path opacity="0.05" d="M551.438 146.438C550.42 143.717 548.894 140.316 547.729 139.508C547.657 139.457 547.578 139.415 547.495 139.381C547.495 139.381 545.113 139.454 545.19 139.508C546.375 140.316 547.525 143.481 548.558 146.18C549.39 148.367 549.605 150.704 549.184 152.983C548.166 158.489 545.958 169.805 543.46 179.646C540.005 193.252 536.265 190.164 534.535 193.502C533.12 196.223 533.828 199.824 534.133 201.035C535.364 201.489 536.433 201.774 537.125 201.711C537.125 201.711 535.685 197.094 537.415 193.756C539.145 190.418 542.885 193.497 546.34 179.9C548.838 170.063 551.036 158.743 552.064 153.237C552.484 150.959 552.27 148.624 551.438 146.438Z" fill="black"/>
</g>
<path d="M518.273 177.342L514.553 176.957L486.059 174.004C468.79 169.129 479.724 161.691 479.724 161.691L491.239 171.442C494.562 172.036 507.587 170.653 513.424 169.986C515.174 169.782 516.278 169.646 516.278 169.646L518.273 177.342Z" fill="#FDC2CC"/>
<path d="M546.177 142.193C546.177 142.193 538.692 136.805 527.467 154.253C516.243 171.7 513.653 168.875 513.653 168.875C513.653 168.875 515.958 176.585 514.803 178.113C514.803 178.113 522.572 177.601 525.452 178.113C528.332 178.626 546.177 158.611 546.177 158.611C546.177 158.611 555.407 147.323 546.177 142.193Z" fill="#F68080"/>
</g>
<defs>
<linearGradient id="paint0_linear_6_2395" x1="321.063" y1="270.871" x2="321.063" y2="51.1863" gradientUnits="userSpaceOnUse">
<stop stop-color="#808080" stop-opacity="0.25"/>
<stop offset="0.54" stop-color="#808080" stop-opacity="0.12"/>
<stop offset="1" stop-color="#808080" stop-opacity="0.1"/>
</linearGradient>
<linearGradient id="paint1_linear_6_2395" x1="60804.3" y1="151094" x2="60804.3" y2="62346.2" gradientUnits="userSpaceOnUse">
<stop stop-color="#808080" stop-opacity="0.25"/>
<stop offset="0.54" stop-color="#808080" stop-opacity="0.12"/>
<stop offset="1" stop-color="#808080" stop-opacity="0.1"/>
</linearGradient>
<linearGradient id="paint2_linear_6_2395" x1="18689.2" y1="123759" x2="18689.2" y2="69567.2" gradientUnits="userSpaceOnUse">
<stop stop-color="#808080" stop-opacity="0.25"/>
<stop offset="0.54" stop-color="#808080" stop-opacity="0.12"/>
<stop offset="1" stop-color="#808080" stop-opacity="0.1"/>
</linearGradient>
<linearGradient id="paint3_linear_6_2395" x1="65048.4" y1="70189.3" x2="65048.4" y2="53277.7" gradientUnits="userSpaceOnUse">
<stop stop-color="#808080" stop-opacity="0.25"/>
<stop offset="0.54" stop-color="#808080" stop-opacity="0.12"/>
<stop offset="1" stop-color="#808080" stop-opacity="0.1"/>
</linearGradient>
<linearGradient id="paint4_linear_6_2395" x1="17891.3" y1="19713.4" x2="22096.5" y2="19713.4" gradientUnits="userSpaceOnUse">
<stop stop-color="#808080" stop-opacity="0.25"/>
<stop offset="0.54" stop-color="#808080" stop-opacity="0.12"/>
<stop offset="1" stop-color="#808080" stop-opacity="0.1"/>
</linearGradient>
<linearGradient id="paint5_linear_6_2395" x1="-57095.2" y1="164478" x2="-57095.2" y2="81010.3" gradientUnits="userSpaceOnUse">
<stop stop-color="#808080" stop-opacity="0.25"/>
<stop offset="0.54" stop-color="#808080" stop-opacity="0.12"/>
<stop offset="1" stop-color="#808080" stop-opacity="0.1"/>
</linearGradient>
<linearGradient id="paint6_linear_6_2395" x1="10935.1" y1="18690.3" x2="10935.1" y2="15864.1" gradientUnits="userSpaceOnUse">
<stop stop-color="#808080" stop-opacity="0.25"/>
<stop offset="0.54" stop-color="#808080" stop-opacity="0.12"/>
<stop offset="1" stop-color="#808080" stop-opacity="0.1"/>
</linearGradient>
<linearGradient id="paint7_linear_6_2395" x1="88404.5" y1="134740" x2="88404.5" y2="55046" gradientUnits="userSpaceOnUse">
<stop stop-color="#808080" stop-opacity="0.25"/>
<stop offset="0.54" stop-color="#808080" stop-opacity="0.12"/>
<stop offset="1" stop-color="#808080" stop-opacity="0.1"/>
</linearGradient>
<linearGradient id="paint8_linear_6_2395" x1="89729.5" y1="29215.1" x2="89729.5" y2="19784.4" gradientUnits="userSpaceOnUse">
<stop stop-color="#808080" stop-opacity="0.25"/>
<stop offset="0.54" stop-color="#808080" stop-opacity="0.12"/>
<stop offset="1" stop-color="#808080" stop-opacity="0.1"/>
</linearGradient>
<clipPath id="clip0_6_2395">
<rect width="553" height="358" fill="white"/>
</clipPath>
</defs>
</svg>
